<?xml version="1.0" encoding="UTF-8" standalone="no"?>
<svg
   xmlns:dc="http://purl.org/dc/elements/1.1/"
   xmlns:cc="http://creativecommons.org/ns#"
   xmlns:rdf="http://www.w3.org/1999/02/22-rdf-syntax-ns#"
   xmlns:svg="http://www.w3.org/2000/svg"
   xmlns="http://www.w3.org/2000/svg"
   xmlns:sodipodi="http://sodipodi.sourceforge.net/DTD/sodipodi-0.dtd"
   xmlns:inkscape="http://www.inkscape.org/namespaces/inkscape"
   role="img"
   viewBox="0 0 24 24"
   version="1.1"
   id="svg1087"
   sodipodi:docname="dart.svg"
   inkscape:version="1.0.1 (3bc2e813f5, 2020-09-07)">
  <metadata
     id="metadata1093">
    <rdf:RDF>
      <cc:Work
         rdf:about="">
        <dc:format>image/svg+xml</dc:format>
        <dc:type
           rdf:resource="http://purl.org/dc/dcmitype/StillImage" />
      </cc:Work>
    </rdf:RDF>
  </metadata>
  <defs
     id="defs1091" />
  <sodipodi:namedview
     pagecolor="#ffffff"
     bordercolor="#666666"
     borderopacity="1"
     objecttolerance="10"
     gridtolerance="10"
     guidetolerance="10"
     inkscape:pageopacity="0"
     inkscape:pageshadow="2"
     inkscape:window-width="1530"
     inkscape:window-height="845"
     id="namedview1089"
     showgrid="false"
     inkscape:zoom="10.149929"
     inkscape:cx="-0.037438078"
     inkscape:cy="16.023553"
     inkscape:window-x="70"
     inkscape:window-y="25"
     inkscape:window-maximized="1"
     inkscape:current-layer="svg1087"
     inkscape:document-rotation="0" />
  <title
     id="title1083">Dart icon</title>
  <path
     d="M4.105 4.105S9.158 1.58 11.684.316a3.079 3.079 0 0 1 1.481-.315c.766.047 1.677.788 1.677.788L24 9.948v9.789h-4.263V24H9.789l-9-9C.303 14.5 0 13.795 0 13.105c0-.319.18-.818.316-1.105l3.789-7.895zm.679.679v11.787c.002.543.021 1.024.498 1.508L10.204 23h8.533v-4.263L4.784 4.784zm12.055-.678c-.899-.896-1.809-1.78-2.74-2.643-.302-.267-.567-.468-1.07-.462-.37.014-.87.195-.87.195L6.341 4.105l10.498.001z"
     id="path1085"
     style="stroke:none;stroke-opacity:1;fill:none;stroke-width:0.05;stroke-miterlimit:4;stroke-dasharray:none" />
  <path
     style="fill:#1771ec;stroke:none;stroke-width:0.00174165;stroke-miterlimit:4;stroke-dasharray:none;stroke-opacity:1;fill-opacity:1"
     d="M 5.2206204,19.358491 C 2.6991267,16.834398 0.58545067,14.693594 0.52356258,14.601149 0.27446371,14.229059 0.09929113,13.747834 0.05011573,13.30052 0.02278488,13.051911 0.09461677,12.672771 0.23711688,12.313498 0.28650916,12.18897 1.1838852,10.300337 2.2312858,8.1165381 L 4.1356504,4.145993 5.4727601,3.4790271 C 6.2081702,3.1121958 7.9854862,2.2251384 9.4223512,1.5077883 11.252517,0.59408409 12.107849,0.18482637 12.278665,0.14110469 12.60342,0.05798096 13.154099,0.03082367 13.40529,0.08554406 c 0.258388,0.05628825 0.760932,0.29411661 1.105693,0.52326847 0.221781,0.1474111 1.172705,1.07942007 4.864924,4.76815827 l 4.58926,4.5849328 v 4.8681044 4.868105 h -2.142235 -2.142235 v 2.124819 2.124818 H 14.742926 9.8051547 Z m 13.5544156,1.515271 v -2.168327 l -6.99271,-6.992776 C 7.936335,7.8666329 4.7775125,4.7198839 4.7627202,4.7198839 c -0.014792,0 -0.022611,2.8097242 -0.017374,6.2438321 0.00907,5.947375 0.012553,6.252927 0.073381,6.435413 0.035123,0.10537 0.1035762,0.262119 0.1521186,0.348331 0.054776,0.09728 1.0611222,1.13131 2.6527262,2.725689 l 2.564468,2.568941 h 4.293499 4.293498 z M 16.058055,3.2815022 C 14.861931,2.097101 14.038909,1.3284088 13.810449,1.1822641 13.435468,0.94239201 13.007011,0.90470902 12.44339,1.0620307 12.27512,1.1089991 11.205433,1.6249029 9.2561622,2.5992116 7.6424862,3.405779 6.3167178,4.0707727 6.3100096,4.0769754 c -0.085065,0.078659 0.3473668,0.085534 5.3350074,0.084822 l 5.301282,-7.573e-4 z"
     id="path1660" />
  <path
     style="fill:#56ccf2;fill-opacity:1;stroke:none;stroke-width:0.00185969;stroke-miterlimit:4;stroke-dasharray:none;stroke-opacity:1"
     d="M 7.8283781,21.203462 C 5.9535642,19.349484 5.0277286,18.408579 4.9745887,18.303219 4.7751636,17.907827 4.784,18.234681 4.784,11.25346 V 4.784 l 7.448349,7.354993 7.448348,7.354993 v 2.226882 2.226882 h -4.538594 -4.538594 z"
     id="path1666" />
  <path
     style="fill:#56ccf2;fill-opacity:1;stroke:none;stroke-width:0.005;stroke-miterlimit:4;stroke-dasharray:none;stroke-opacity:1"
     d="m 8.4387826,3.0114394 c 2.7187244,-1.3185818 3.7443114,-1.795637 4.0043424,-1.8626328 0.420362,-0.1083041 0.94161,-0.1186011 1.215184,-0.024005 0.399869,0.1382657 0.83222,0.5072523 3.136097,2.6764754 L 17.843204,4.788776 11.313601,4.786388 4.784,4.784 Z"
     id="path1668" />
</svg>
