<?xml version="1.0" encoding="UTF-8" standalone="no"?>
<svg
   xmlns:dc="http://purl.org/dc/elements/1.1/"
   xmlns:cc="http://creativecommons.org/ns#"
   xmlns:rdf="http://www.w3.org/1999/02/22-rdf-syntax-ns#"
   xmlns:svg="http://www.w3.org/2000/svg"
   xmlns="http://www.w3.org/2000/svg"
   xmlns:sodipodi="http://sodipodi.sourceforge.net/DTD/sodipodi-0.dtd"
   xmlns:inkscape="http://www.inkscape.org/namespaces/inkscape"
   role="img"
   viewBox="0 0 24 24"
   version="1.1"
   id="svg178"
   sodipodi:docname="java.svg"
   inkscape:version="1.0.1 (3bc2e813f5, 2020-09-07)">
  <metadata
     id="metadata184">
    <rdf:RDF>
      <cc:Work
         rdf:about="">
        <dc:format>image/svg+xml</dc:format>
        <dc:type
           rdf:resource="http://purl.org/dc/dcmitype/StillImage" />
      </cc:Work>
    </rdf:RDF>
  </metadata>
  <defs
     id="defs182" />
  <sodipodi:namedview
     pagecolor="#ffffff"
     bordercolor="#666666"
     borderopacity="1"
     objecttolerance="10"
     gridtolerance="10"
     guidetolerance="10"
     inkscape:pageopacity="0"
     inkscape:pageshadow="2"
     inkscape:window-width="1530"
     inkscape:window-height="845"
     id="namedview180"
     showgrid="false"
     inkscape:zoom="18.333333"
     inkscape:cx="12"
     inkscape:cy="11.972727"
     inkscape:window-x="70"
     inkscape:window-y="25"
     inkscape:window-maximized="1"
     inkscape:current-layer="svg178"
     inkscape:document-rotation="0" />
  <title
     id="title174">Java icon</title>
  <path
     d="M8.851 18.56s-.917.534.653.714c1.902.218 2.874.187 4.969-.211 0 0 .552.346 1.321.646-4.699 2.013-10.633-.118-6.943-1.149M8.276 15.933s-1.028.761.542.924c2.032.209 3.636.227 6.413-.308 0 0 .384.389.987.602-5.679 1.661-12.007.13-7.942-1.218M13.116 11.475c1.158 1.333-.304 2.533-.304 2.533s2.939-1.518 1.589-3.418c-1.261-1.772-2.228-2.652 3.007-5.688 0-.001-8.216 2.051-4.292 6.573M19.33 20.504s.679.559-.747.991c-2.712.822-11.288 1.069-13.669.033-.856-.373.75-.89 1.254-.998.527-.114.828-.093.828-.093-.953-.671-6.156 1.317-2.643 1.887 9.58 1.553 17.462-.7 14.977-1.82M9.292 13.21s-4.362 1.036-1.544 1.412c1.189.159 3.561.123 5.77-.062 1.806-.152 3.618-.477 3.618-.477s-.637.272-1.098.587c-4.429 1.165-12.986.623-10.522-.568 2.082-1.006 3.776-.892 3.776-.892M17.116 17.584c4.503-2.34 2.421-4.589.968-4.285-.355.074-.515.138-.515.138s.132-.207.385-.297c2.875-1.011 5.086 2.981-.928 4.562 0-.001.07-.062.09-.118M14.401 0s2.494 2.494-2.365 6.33c-3.896 3.077-.888 4.832-.001 6.836-2.274-2.053-3.943-3.858-2.824-5.539 1.644-2.469 6.197-3.665 5.19-7.627M9.734 23.924c4.322.277 10.959-.153 11.116-2.198 0 0-.302.775-3.572 1.391-3.688.694-8.239.613-10.937.168 0-.001.553.457 3.393.639"
     id="path176"
     style="fill:none;fill-opacity:1;stroke:none;stroke-opacity:1;stroke-width:0.05;stroke-miterlimit:4;stroke-dasharray:none" />
  <path
     style="fill:#2d9cdb;fill-opacity:1;stroke:none;stroke-width:0.00272727;stroke-miterlimit:4;stroke-dasharray:none;stroke-opacity:1"
     d="M 8.1603221,15.217415 C 6.2329227,15.096596 5.0255305,14.783149 5.1579816,14.437987 5.2481453,14.203024 6.6959551,13.629981 7.72675,13.421268 c 0.9030063,-0.182838 1.0128461,-0.14225 0.2812585,0.103933 -0.9829056,0.330752 -1.2725568,0.512116 -1.2351189,0.773365 0.085833,0.598963 4.7942554,0.637166 8.8267124,0.07162 0.524781,-0.0736 0.978871,-0.133494 1.009091,-0.133097 0.03022,3.98e-4 -0.118201,0.09675 -0.329821,0.21413 -0.420989,0.2335 -1.171389,0.408332 -2.451599,0.571186 -1.599432,0.203462 -4.1383727,0.290833 -5.6669509,0.195014 z"
     id="path1011" />
  <path
     style="fill:#2d9cdb;fill-opacity:1;stroke:none;stroke-width:0.00272727;stroke-miterlimit:4;stroke-dasharray:none;stroke-opacity:1"
     d="M 9.8454545,17.777195 C 8.3162204,17.654106 7.1591582,17.281827 7.0584268,16.880481 c -0.046983,-0.187195 0.1673518,-0.41645 0.5900177,-0.63109 0.3689712,-0.187372 0.3910074,-0.191054 0.317111,-0.05298 -0.1619242,0.302558 0.022326,0.553359 0.4775669,0.650062 0.5806663,0.123345 1.8375016,0.185301 3.1605166,0.155798 1.301278,-0.02902 1.532073,-0.05172 3.178179,-0.312562 l 0.409091,-0.06483 0.393158,0.262581 c 0.216237,0.144419 0.385788,0.269951 0.37678,0.278959 -0.05001,0.05001 -1.534416,0.353679 -2.18812,0.447633 -1.420387,0.204147 -2.737844,0.258873 -3.9272725,0.163136 z"
     id="path1013" />
  <path
     style="fill:#2d9cdb;fill-opacity:1;stroke:none;stroke-width:0.00272727;stroke-miterlimit:4;stroke-dasharray:none;stroke-opacity:1"
     d="M 10.881818,20.47668 C 9.6514889,20.356698 8.9007375,20.189397 8.3538658,19.913337 8.0540692,19.762 7.7454545,19.479224 7.7454545,19.355865 c 0,-0.178631 0.2632971,-0.416392 0.6314658,-0.570223 0.1946522,-0.08133 0.2004677,-0.08048 0.1728296,0.0252 -0.076105,0.291025 0.2990677,0.452965 1.2684319,0.547507 1.5591832,0.152067 2.4065052,0.127996 3.9071022,-0.110996 l 0.716192,-0.114064 0.565243,0.282971 c 0.310884,0.155634 0.572223,0.289949 0.580752,0.298478 0.02958,0.02958 -0.834831,0.317124 -1.334032,0.443757 -0.902926,0.229046 -2.62204,0.391279 -3.371621,0.31818 z"
     id="path1015" />
  <path
     style="fill:#2d9cdb;fill-opacity:1;stroke:none;stroke-width:0.00272727;stroke-miterlimit:4;stroke-dasharray:none;stroke-opacity:1"
     d="M 8.7,22.740844 C 7.3788722,22.666474 5.5687925,22.470462 4.4629928,22.282022 3.6140287,22.13735 3.2181818,21.945481 3.2181818,21.678657 c 0,-0.269108 0.7266332,-0.73377 1.6082439,-1.028428 0.524606,-0.175337 1.3078216,-0.317179 1.6246276,-0.294223 0.2137764,0.01549 0.1986407,0.02326 -0.2055988,0.105607 C 5.6920146,20.574346 4.964267,20.854537 4.7790417,21.026198 4.6026191,21.189701 4.5939832,21.396303 4.7590909,21.503495 4.9280475,21.613187 5.5090024,21.796476 6,21.894998 c 2.1257849,0.426553 6.616187,0.476741 9.954545,0.111261 1.534086,-0.167951 2.682281,-0.410304 3.150941,-0.665079 0.321553,-0.174804 0.376485,-0.239546 0.419179,-0.494038 l 0.03384,-0.201687 0.103868,0.156285 c 0.0939,0.14129 0.09619,0.170075 0.02385,0.3 -0.332049,0.596381 -2.411659,1.213028 -5.068039,1.502779 C 12.898347,22.792113 10.565409,22.845852 8.7,22.740844 Z"
     id="path1017" />
  <path
     style="fill:#2d9cdb;fill-opacity:1;stroke:none;stroke-width:0.00272727;stroke-miterlimit:4;stroke-dasharray:none;stroke-opacity:1"
     d="M 10.363636,23.913329 C 8.8363495,23.812794 7.5384315,23.651405 7.1181818,23.509773 c -0.1833915,-0.06181 -0.1596967,-0.06051 1.1727273,0.06408 0.9931917,0.09287 4.8489159,0.09253 5.8909089,-5.21e-4 2.777598,-0.24805 5.000812,-0.728706 6.091373,-1.316947 0.219745,-0.118529 0.399536,-0.187771 0.399536,-0.153871 0,0.122698 -0.500601,0.537355 -0.87845,0.727637 -0.946079,0.476438 -2.353068,0.787973 -4.439732,0.983045 -0.815996,0.07628 -4.293335,0.146047 -4.990909,0.100129 z"
     id="path1019" />
  <path
     style="fill:#2d9cdb;fill-opacity:1;stroke:none;stroke-width:0.00272727;stroke-miterlimit:4;stroke-dasharray:none;stroke-opacity:1"
     d="m 17.824905,17.243251 c 1.231816,-0.740344 1.984543,-1.620837 2.066775,-2.417585 0.06191,-0.599835 -0.263937,-1.161154 -0.836725,-1.441394 -0.259051,-0.126741 -0.373643,-0.149288 -0.748596,-0.147287 l -0.442723,0.0024 0.218182,-0.07831 c 0.12,-0.04307 0.403494,-0.09191 0.629987,-0.108537 1.189127,-0.08728 2.157427,0.747865 2.05267,1.770392 -0.08151,0.795673 -0.808468,1.599656 -1.973566,2.18269 -0.326787,0.16353 -1.237942,0.503512 -1.349416,0.503512 -0.0324,0 0.140137,-0.119628 0.383412,-0.26584 z"
     id="path1021" />
  <path
     style="fill:#eb5757;fill-opacity:1;stroke:none;stroke-width:0.00272727;stroke-miterlimit:4;stroke-dasharray:none;stroke-opacity:1"
     d="M 10.892664,11.996992 C 9.9947137,11.086431 9.505904,10.461596 9.2093391,9.8452347 8.7324014,8.8539976 8.8164255,8.1951289 9.5332669,7.30518 9.9338489,6.8078629 10.323727,6.4573871 11.754545,5.3083882 12.9611,4.3394813 13.560094,3.7492167 13.962834,3.1322806 14.42834,2.4191978 14.575138,1.9027042 14.573915,0.98226393 14.572966,0.269683 14.620485,0.25911448 14.846654,0.92160753 15.01791,1.4232576 15.016725,2.1133294 14.843654,2.6703779 14.4768,3.8511206 13.663558,4.8954725 12.083027,6.2155315 10.642329,7.418802 10.126736,8.1603071 10.052079,9.1363636 c -0.057877,0.7566699 0.175714,1.3352184 1.077678,2.6691504 0.337084,0.49852 0.596459,0.92282 0.57639,0.942889 -0.02007,0.02007 -0.386135,-0.318066 -0.813478,-0.751411 z"
     id="path1023" />
  <path
     style="fill:#eb5757;fill-opacity:1;stroke:none;stroke-width:0.00272727;stroke-miterlimit:4;stroke-dasharray:none;stroke-opacity:1"
     d="m 13.309091,13.561137 c 0,-0.01138 0.06497,-0.162602 0.144385,-0.33606 0.110064,-0.240412 0.144385,-0.401611 0.144385,-0.678154 0,-0.441193 -0.13406,-0.738159 -0.582063,-1.289371 -0.374617,-0.46092 -0.712616,-1.093632 -0.831181,-1.5559148 -0.364965,-1.4229993 0.69747,-2.8324628 2.92848,-3.8850233 0.654141,-0.3086151 1.684713,-0.7097126 1.723602,-0.6708239 0.01253,0.012526 -0.09492,0.090765 -0.238781,0.1738658 -0.143855,0.0831 -0.568373,0.3590974 -0.943373,0.6133268 -1.608773,1.0906599 -2.290909,1.8925244 -2.290909,2.6930097 0,0.4705562 0.186446,0.8660955 0.867441,1.8402507 0.175767,0.251433 0.35005,0.558251 0.387294,0.681818 0.204473,0.678387 -0.04783,1.341188 -0.768686,2.019315 -0.381339,0.358736 -0.540594,0.474735 -0.540594,0.393761 z"
     id="path1025" />
</svg>
