<svg xmlns="http://www.w3.org/2000/svg" viewBox="0 0 386.06 391.08"><defs><style>.cls-1,.cls-2{fill:#27ae60;}.cls-2{stroke:#27ae60;}.cls-2,.cls-3{stroke-miterlimit:10;}.cls-3{stroke:#000;}.cls-4{fill:#fff;}</style></defs><title>shasha2</title><g id="Layer_2" data-name="Layer 2"><g id="Layer_1-2" data-name="Layer 1"><path class="cls-1" d="M107.44,335.12c.32-.07.65-.12,1-.18a3.33,3.33,0,0,1-1.52,1.65c9.2-3,16.13-12.34,19-20.49,2.15-1.63,3.18-4.11,2.27-5.58s-3.42-1.32-5.62.32a10,10,0,0,1-1.73.67,44.31,44.31,0,0,0-14.35,4.94l3.33-.95a19,19,0,0,0-4.14,2.51l1.07.31c-5.46,1.83-10.2,7.44-10.65,12.27s3.59,7.2,8.94,5.32Z"/><path class="cls-1" d="M121.18,335.9c-3,1.21-6,2.36-9,3.47l-.82,0,1.93,1.79-.07-.16a15.13,15.13,0,0,1,2.18-5.36c.55-.9,1.15-1.8,1.8-2.67s1.35-1.7,2-2.52l.87-1.28a2.34,2.34,0,0,0,.08-1.94c-.57-1.17-2.35-1.18-4,0l-1.86,1.34c-5.11,2.62-11.58,8.59-10.79,13.9.2,1.22,1.54,1.75,2.47,2.52,1,1.4,3.59,1.09,5.68-.68s2.93-4.34,1.88-5.75l1.28-.69L114.5,339c-.46-1.64,1.15-3.6,2-5.47.58-.75,1.2-1.46,1.8-2.18l-3.91-2c-.25.45-.48.92-.72,1.39a5.13,5.13,0,0,1,.53.12,59.49,59.49,0,0,1-4.21,7.91l-1.79,3.69c-.23,1.27.63,2,1.94,1.78l1.84-.51-.91.14c3.48-2,6.84-4.37,10.31-6.26a1.61,1.61,0,0,0,1-1.38C122.28,335.79,121.77,335.62,121.18,335.9Z"/><path class="cls-1" d="M111.48,345.61a3.78,3.78,0,0,0-1.95,1l-.06.5,1.38-.33C111.84,346.58,111.91,346,111.48,345.61Z"/><path class="cls-1" d="M109.48,347.15l-.58.14.51,0,.05-.09Z"/><path class="cls-1" d="M241.53,239.66c5.43-2.73,11-5.27,16.44-7.94s11-5.21,16.48-7.83c.37-.17.59-.49.49-.73s-.47-.26-.8-.09c-5.5,2.61-11.06,5.09-16.5,7.79s-11,5.19-16.43,7.93c-.36.2-.56.52-.49.76S241.18,239.83,241.53,239.66Z"/><path class="cls-1" d="M332.64,222.33c-.18.29-.07.52.27.58a1,1,0,0,0,.88-.39.37.37,0,0,0-.26-.57A1,1,0,0,0,332.64,222.33Z"/><path class="cls-1" d="M131.34,312.15c-.82-1.49-1.58-3-2.3-4.56a79.32,79.32,0,0,0-16.48,13.46c-.71.54-1.09,1.4-.8,1.88s1.12.46,1.86-.08c3.33-1.6,6.63-2.71,9.93-4.6,2.84-1.68,5.81-3,8.72-4.5C131.94,313.22,131.64,312.68,131.34,312.15Z"/><path class="cls-1" d="M353,212.88c-.1-.25-.49-.31-.86-.16A224.08,224.08,0,0,0,298,241l-2.89,1.5v0a5.73,5.73,0,0,0-3-1.51c6.17-3.46,12.21-7.14,18.42-10.57,5.4-2.37,10.77-4.77,16.25-7,.79-.32,1.27-1,1-1.57s-1-.65-1.86-.33l-4,1.63a3.75,3.75,0,0,0,.76-3.41,3.34,3.34,0,0,0-2.55-2c2.76-1.74,5.5-3.5,8.2-5.31q2-1.36,4-2.75c1.33-.92,2.67-1.82,4-2.75.31-.21.4-.51.19-.68a.81.81,0,0,0-.92.07c-4.14,1.94-8.11,4.18-12.11,6.32l-6,3.24c-2,1.08-3.94,2.23-5.91,3.33-3.51.87-7,1.7-10.53,2.66a100.4,100.4,0,0,0-10.6,3.63q-3.91,1.61-7.55,3.49c-2.41,1.3-4.74,2.68-7,4.11s-4.51,2.9-6.71,4.4-4.32,3.11-6.46,4.67c-3.48,1.51-6.92,3.09-10.28,4.75a2.53,2.53,0,0,0-.15-2,2,2,0,0,0-.32-.39l8.88-4.62c6.89-3.71,13.72-7.29,20.3-11.19,3.3-1.93,6.63-3.77,9.89-5.72s6.48-4,9.76-5.83c6.53-3.82,12.94-7.84,19.51-11.59,3.27-1.9,6.52-3.86,9.82-5.74l10-5.53c1.75-.85,2.64-2.42,2-3.48s-2.65-1.22-4.4-.37c-3.4,1.35-6.67,2.8-9.88,4.33s-6.28,3.28-9.36,5-6.15,3.51-9.17,5.45L300,211.18c-4.47,2.8-8.57,5.6-12.73,8.26l-6.28,4-6.43,4.21c-2.58,1.67-5.15,3.24-7.73,4.73s-5.09,3-7.66,4.45-5.12,2.86-7.7,4.27-5.13,2.91-7.73,4.4a15.75,15.75,0,0,0-3.2,1.56l-3,2-6.14,3.39q-3.06,1.68-6.14,3.29l-6.17,3.17L213,262.13c4.37-3.35,8.85-6.54,13.24-9.85,2.2-1.65,4.36-3.35,6.53-5s4.35-3.34,6.49-5.06c.64-.45.85-1.11.55-1.48a1.51,1.51,0,0,0-1.78.17c-12.62,8.46-25.21,17-37.58,25.74a21.69,21.69,0,0,0-10.22,1,38.72,38.72,0,0,0-10.8,5.2,29.94,29.94,0,0,0-6.12,5.76l3.37-1.79a32.17,32.17,0,0,0-6.77,7.82c-.25.12-.5.24-.76.39a50.64,50.64,0,0,0-10.46,5.51c-1.7,1.11-3.41,2.24-5.08,3.39l-.35.24a3.39,3.39,0,0,1,0,.69c-.16.93-.31,1.86-.47,2.8a3,3,0,0,1,.17,1.1c0,.2,0,.39,0,.59a3.06,3.06,0,0,1,3.59,3.68c-1.71,6.93-4.23,13.61-6.33,20.43a2.84,2.84,0,0,1-2.65,2.09,2.51,2.51,0,0,1-1,1.48l-.18.18c0,.11,0,.22-.07.33a3.07,3.07,0,0,1-4,2,.88.88,0,0,1-1,.28,3.09,3.09,0,0,1-2.25-2.33s0,0,0-.06l-.47.35a12.3,12.3,0,0,0-2.48,2.49,20.37,20.37,0,0,0-5.57.2c2.65-1.32,5.26-3.27,7.91-4.79a56.2,56.2,0,0,1-4.3-8.81l-1-1.56c-1.83.92-3.66,1.92-5.44,3a67.73,67.73,0,0,0-7.58,5.72,54.15,54.15,0,0,0-6.58,6.77,46,46,0,0,0-5,7.73c-.69.76-.82,1.66-.29,2a1.9,1.9,0,0,0,2.2-.68c2.33-1.57,4.64-3.18,7-4.69a54.67,54.67,0,0,1,7.25-3.91c.21-.08.46.73.93.69.24,0,.47-.06.71-.1a18.85,18.85,0,0,0-1.81,1l-2.16,4.31h0l-.09.22-.5,1,0,0-.11.27-1,.72a1.34,1.34,0,0,0-.62,1,5.37,5.37,0,0,0-.8-.06c-2,1.31-2,1.31-4,2.69a2.1,2.1,0,0,0,.38.29,5.5,5.5,0,0,1-1.25,1.34,13,13,0,0,1-2.5,1.93l1.33-.17-1.06.25.79.48-1-.41.2.81-2.82-.25-.71,1.24a2.73,2.73,0,0,0,0,.61c.16.2.16.2.24,1.36a2.44,2.44,0,0,0,.46.41c.37.06.37.06,1,.61a3.77,3.77,0,0,0,.87,0c.37-.13.47-.17,1.79-.71a4.3,4.3,0,0,0,.06.53c.85,1.27.85,1.27,4.47,2.69a8.86,8.86,0,0,0,2.89-.44c1.49-.93,1.49-.93,3.19-2,0,0,.41-.2,1.07-.58a12.59,12.59,0,0,1,1.63.16h0a2.84,2.84,0,0,0-.57.94c-.32,1,.17,1.68,1.11,1.6.85,2.38,2.72,3.51,5,4.15a4.77,4.77,0,0,0,1.27,2.11,14.67,14.67,0,0,0,2.32,6.48l1.21,1.55a7.76,7.76,0,0,0,5.45.92l.71,0,.72,1.53a30.58,30.58,0,0,0,7.36,1.35,47.39,47.39,0,0,1,7.54,1.11l3,.27a12,12,0,0,0,7.3-1.59l2.56-1.44,1.41-1.14c-1,3.52-.29,6.87,2.17,8.85,2.06,1.63,4.89,2,7.91,1.37a17.3,17.3,0,0,0,8.7-4.89c13.77-11.67,27.43-22.53,41.46-34.52-.49-8.37-.81-16.74-1.26-25.11-.58-10.8-2.65-21.55-2.85-32.33a2.65,2.65,0,0,1,1.46-2.54,2.91,2.91,0,0,1,3.63-1.12c1.71-1.25,4.63-.68,4.79,1.74a3.21,3.21,0,0,1,.3.71c2.71,9.68,3.24,19.69,4.28,29.64.62,6,1.69,11.88,2.75,17.78q3.23-2.67,6.45-5.29l4.14-3.28c1.41-1.05,2.84-2.08,4.28-3.1,2.89-2,5.85-4,8.94-5.91,10.83-8.93,21.07-18.12,31.72-27.39a70.09,70.09,0,0,0,6.1-6.12c1.9-2,3.66-4.16,5.38-6.3l5.1-6.48c1.71-2.18,3.51-4.24,5.4-6.33a.37.37,0,0,0-.1-.63.91.91,0,0,0-.89.3c-13.37,10.43-26.6,20.68-41.45,29.92-1.71,1-3.45,2-5.14,2.93a2.51,2.51,0,0,0-.69.23c-1.66.67-3.31,1.38-4.95,2.09l1.58-1c1.08-.59,1.67-1.68,1.31-2.49a1.34,1.34,0,0,0-.88-.62q1.31-1.16,2.58-2.36l2.56-2.35c1.69-1.58,3.36-3.2,5-4.82a11.06,11.06,0,0,0,2.76-2.51c2.41-1,4.85-1.93,7.28-2.88l7.3-2.85,1.26-.37a4.94,4.94,0,0,0,3.11-3.1,2.17,2.17,0,0,0,0-1.07l14.93-10.15c2.49-1.67,4.94-3.39,7.33-5.17s4.71-3.64,7-5.5c.46-.38.59-.84.35-1.17a1,1,0,0,0,.7-.27,19.59,19.59,0,0,1,3.53-3.1c.27-.27.35-.56.12-.69a.77.77,0,0,0-.9.11,26.72,26.72,0,0,0-3.72,3.25.5.5,0,0,0-.13.42,1.69,1.69,0,0,0-1.35.3c-2.59,1.38-5.07,3-7.54,4.54l-7.34,4.75c-4.87,3.19-9.68,6.48-14.85,9.28,2.24-2,4.57-3.82,7-5.67s4.87-3.73,7.47-5.52c6.24-4.38,11.71-9.17,18.44-12.83.36-.16.51-.49.38-.69a.65.65,0,0,0-.86-.05c-7,3.55-12.89,8.3-18.9,12.8-3,2.24-6,4.62-9.11,6.76a98.61,98.61,0,0,1-10,6c-.56.29-1.13.55-1.7.81,3.42-4.13,6.88-8.1,10.36-12.08,6.45-3.71,13-7.2,19.43-10.9l2.42-1.38,2.44-1.33,4.86-2.7c3.24-1.79,6.42-3.72,9.66-5.5.66-.28,1-.87.85-1.3s-.91-.57-1.57-.29c-4,1.21-8,2.62-12,4l-6,2.06c-2,.71-4,1.48-5.93,2.23l1.35-1.32,1.51-1c4.93-2.29,9.9-4.48,14.81-6.89,1.89-.76,3-2.39,2.63-3.69s-2.3-1.68-4.15-1l.79-.6c.27-.18.39-.52.22-.68a.86.86,0,0,0-.91,0L333,224.94a268.26,268.26,0,0,0-28.64,12.73c4.73-3.15,9.65-6,14.62-8.9,2.48-1.45,5-2.74,7.6-4s5.15-2.56,7.77-3.79a.35.35,0,0,0,.27.57,1.05,1.05,0,0,0,.89-.4.35.35,0,0,0-.26-.57h0c5.64-2.57,11.43-4.83,17.27-7C352.86,213.44,353.08,213.12,353,212.88ZM142.05,367.74l-2-4.82,2.27,4.87Z"/><path class="cls-1" d="M145.34,300.15a15.71,15.71,0,0,0-3.25,2,34.08,34.08,0,0,0-4.67,1.37q1.39,2.93,2.75,5.86c.6-.39,1.2-.78,1.79-1.2.41-.17.81-.34,1.23-.48l1.28,0C144.72,305.15,145,302.64,145.34,300.15Z"/><path class="cls-1" d="M144.42,308.18l-1.37.64.59,0-2.83,1.88c.42.91.82,1.83,1.23,2.74a3.18,3.18,0,0,1,.86.89c.28.43.54.87.8,1.31C143.95,313.16,144.18,310.67,144.42,308.18Z"/><path class="cls-1" d="M135.42,345.35h0l-1.37-.24Z"/><path class="cls-1" d="M119.71,347.72a2.63,2.63,0,0,0-.82,0Z"/><path class="cls-1" d="M294,62.45c-.33,0-.68-.08-1-.12a3.58,3.58,0,0,1,2-1.13c-10.06,0-19.88,7.42-25.07,14.5-2.58,1.07-4.27,3.28-3.77,4.93s3,2.12,5.6,1a8.53,8.53,0,0,1,1.88-.2A46.67,46.67,0,0,0,289,80.64h-3.49a19.4,19.4,0,0,0,4.73-1.27l-.94-.6c5.8-.22,12.12-4,14.12-8.5s-1-8-6.84-7.84Z"/><path class="cls-1" d="M280.68,57.69c3.41-.36,6.74-.55,10.07-.74l.8.27-1.28-2.29v.18c-1.72,3.22-5.72,6-9.44,8.47l-1.26,1a2.4,2.4,0,0,0-.68,1.87c.2,1.3,1.95,1.78,3.89,1.1l2.24-.8c5.87-1.06,14.12-4.77,15.2-10.16.23-1.24-.88-2.16-1.52-3.18-.52-1.67-3.13-2.14-5.8-1s-4.4,3.33-3.84,5l-1.5.29.79-1.05c-.11,1.72-2.36,3.13-3.8,4.67l-2.48,1.63,3.21,3,1.16-1.13a5.28,5.28,0,0,1-.48-.27,61.92,61.92,0,0,1,6.78-6.35l3-3c.67-1.15.09-2.15-1.28-2.3l-2-.05.95.13c-4.11.88-8.28,2.2-12.38,3A1.8,1.8,0,0,0,279.64,57C279.55,57.5,280,57.81,280.68,57.69Z"/><path class="cls-1" d="M293.62,51.12a4.15,4.15,0,0,0,2.28-.43l.23-.46-1.47-.09C293.61,50.08,293.33,50.63,293.62,51.12Z"/><path class="cls-1" d="M296.14,50.23l.61,0-.49-.2-.08.07Z"/><path class="cls-1" d="M114.32,151q-4.23,2.22-8.43,4.49c-.38.2-.59.54-.48.77s.49.23.83,0q4.1-2.21,8.23-4.36C114.41,151.58,114.36,151.27,114.32,151Z"/><path class="cls-1" d="M45,165.22c.16-.32,0-.54-.35-.53a1.15,1.15,0,0,0-.89.57.35.35,0,0,0,.36.52A1.15,1.15,0,0,0,45,165.22Z"/><path class="cls-1" d="M113.67,141.84c-26.5,15.41-49.16,34.16-72.12,52.9-1.63,1.21-2.27,2.95-1.4,3.84s2.92.66,4.54-.55c3.2-2,6.27-4.13,9.26-6.3s5.93-4.35,8.83-6.62c5.78-4.56,11.51-9.27,17.53-14.16,4.28-3.5,8.38-6.67,12.5-9.82s8.29-6.25,12.79-9.47c2.72-2,5.45-3.78,8.18-5.53Q113.64,144,113.67,141.84Z"/><path class="cls-1" d="M284,72.46c-3.72.64-7.3.83-11.12,1.78-7,1.75-13.86,2.75-20.7,5.32,0,1.29.09,2.58.14,3.88,0,.72,0,1.43,0,2.14,10.39-.57,22.25-5.45,32.13-11.09.86-.33,1.48-1.06,1.34-1.61S284.9,72.14,284,72.46Z"/><path class="cls-1" d="M131,60.1c-1,.18-2.06.3-3.1.4l.74.1c.79-.13,1.59-.23,2.39-.31A1.22,1.22,0,0,1,131,60.1Z"/><path class="cls-1" d="M173.55,54A15.13,15.13,0,0,1,169.44,53c-5.57-.13-12.27-3.24-15.74-7.46-1.75-.58-3.53-1.07-5.33-1.51l-1.44.94c-3.11,2.08-6.18,4.13-9.25,6.15.37.33.74.66,1.1,1a9.41,9.41,0,0,1,4,3.57,1,1,0,0,1,0,.09c.47.35.93.72,1.37,1.11,1,.86-.46,2.27-1.41,1.41-.44-.4-.91-.77-1.38-1.12h-.15a.82.82,0,0,1-.59,0,18.88,18.88,0,0,1-7.87-2.87l-3.59,2.28c2.64.13,5.08.92,6.56,2.83a1.25,1.25,0,0,1,.25.91l.76.05a1,1,0,0,1,.21.07c.34,0,.69,0,1,.09a1,1,0,0,1,0,2l-2.54.28a1,1,0,0,1-1-.41c-6.22.24-11.95,3-17.72,5.39a.94.94,0,0,1,0,.14.87.87,0,0,1-.16.51c-.91,1.33-3.65,1.75-5,2.45a24.31,24.31,0,0,0-2.88,1.78l-.71.65a1,1,0,0,1-.45.24c-2.07,1.82-4,3.88-5.79,5.85a.86.86,0,0,1-.68.3,36.53,36.53,0,0,0-3.69,6.06c-.57,1.16-2.29.14-1.73-1,.35-.72.73-1.42,1.12-2.11a.91.91,0,0,1,.13-.54,56,56,0,0,1,4.17-6.33c-8.64,6.9-17,14-25.16,21.44a90.31,90.31,0,0,0-7.06,7.17c-2.14,2.45-4.11,4.94-6,7.43-3.8,5-7.31,10-11.3,15a.36.36,0,0,0,.15.63,1.18,1.18,0,0,0,1-.48C67,113.8,81.88,101.11,99.33,90.31c2-1.23,4-2.41,6-3.49a3.41,3.41,0,0,0,.8-.28c1.94-.8,3.86-1.63,5.78-2.46L110,85.19c-1.27.68-2,1.84-1.69,2.66a1.29,1.29,0,0,0,.95.59c-4.2,3.38-8.1,7-12,10.7A14.37,14.37,0,0,0,94.11,102c-5.52,2.41-10.92,5.09-16.43,7.61l-1.42.54a6,6,0,0,0-3.48,3.62,2.12,2.12,0,0,0,0,1.11c-10.87,8.54-22.09,16.88-31.31,26.54-.47.49-.57,1-.27,1.28a1.24,1.24,0,0,0-.74.43A24.68,24.68,0,0,1,36.93,147c-.26.33-.32.64-.05.72a.94.94,0,0,0,1-.31,33.71,33.71,0,0,0,3.73-4.11.53.53,0,0,0,.1-.46,2.13,2.13,0,0,0,1.44-.59c5.36-4,10.51-8.16,15.69-12.32s10.48-8.15,16.12-11.85c-4.87,4.72-10.12,9.07-15.57,13.75-6.58,5.65-12.26,11.42-19.13,16.66-.38.24-.51.6-.34.78a.76.76,0,0,0,.94-.13c14.31-10.32,24.55-23.31,40.29-32.59.62-.36,1.25-.7,1.88-1-3.84,4.59-7.51,9.22-11.18,13.8-14,9.3-27.46,19.16-40.37,29.5-.67.44-1,1.13-.74,1.52s1.05.36,1.72-.08L57.31,147.1,56,148.67l-1.55,1.22c-5.11,3.2-10.15,6.53-15.16,9.93-1.95,1.15-3,3-2.34,4.26s2.67,1.18,4.57.12l-.77.76c-.27.24-.35.59-.15.72a1,1,0,0,0,1-.21l2.69-2.8c10-5.65,19.71-11.75,29.41-17.91-4.89,3.85-9.84,7.68-14.91,11.36S48.55,163.48,43.31,167c.13-.27,0-.53-.36-.52a1.24,1.24,0,0,0-.89.57c-.16.32,0,.53.36.52h0c-5.62,3.76-11.32,7.43-17.17,10.9-.35.19-.52.56-.37.77s.57.2.94,0a480.59,480.59,0,0,0,54.55-38.65l3-1.91v0a5.78,5.78,0,0,0,3.29,1.17c-6.4,4.36-12.76,8.7-19,13.27-5.53,3.26-11.07,6.51-16.56,9.86-.8.48-1.23,1.25-.92,1.78s1.15.45,2,0l4.06-2.42a3.81,3.81,0,0,0-.4,3.6,3.25,3.25,0,0,0,2.9,1.55c-5.34,4.55-10.6,9.09-15.43,14-.29.28-.34.6-.09.72a.89.89,0,0,0,.93-.26l11.71-8.66c3.87-2.9,7.73-5.81,11.66-8.63,3.6-1.41,7.17-2.77,10.76-4.26s7.21-3,10.87-4.93c2.66-1.38,5.21-2.85,7.69-4.38s4.89-3.09,7.25-4.72c3.29-2.28,6.47-4.65,9.64-7,0-.13,0-.25,0-.38-1.59-10-.94-20.07,3.45-29.51a82.2,82.2,0,0,1,3.23-17.1c3.14-10.58,8.29-21.9,17-29,3.09-2.53,7.07-3.57,10.6-2.29a9.51,9.51,0,0,1,7.55.2,45.52,45.52,0,0,1,6.2-4.5l.08,0a.91.91,0,0,1,.17-.92,18.73,18.73,0,0,0-3.79-.83h0c.46.1.91.21,1.36.35a1,1,0,0,1-.53,1.93l-.74-.19a1,1,0,0,1-.5,0c-1.41-.28-2.83-.57-4.26-.74-1.25-.16-1.3-2.11,0-2l1,.1a1,1,0,0,1,.72-1.15c2.47-.78,5-.06,7.4.62a.94.94,0,0,1,.67,1.17c2.27-.73,4.95-.11,7.14.54a.93.93,0,0,1,.69.85c.24.14.47.28.7.44a25.82,25.82,0,0,1,4.57-2.26A8.48,8.48,0,0,1,173.55,54Z"/><path class="cls-1" d="M297.89,47.1a2.3,2.3,0,0,0-.31-.53c-.34-.16-.34-.16-.73-.88a3.82,3.82,0,0,0-.86-.25c-.41,0-.52,0-2,.16a4.43,4.43,0,0,0,.13-.53c-.38-1.49-.37-1.49-3.45-3.93a9.4,9.4,0,0,0-3.05-.41c-1.84.48-1.84.48-3.94,1.07,0,0-.48.08-1.29.26a13.34,13.34,0,0,1-1.59-.62h0a3.29,3.29,0,0,0,.92-.76c.68-.85.44-1.69-.54-1.87,0-2.56-1.46-4.2-3.54-5.45a4.39,4.39,0,0,0-.51-2.42,14.14,14.14,0,0,0,.09-7l-.64-1.86a7.89,7.89,0,0,0-5.3-2.39l-.75-.17-.15-1.71C266.21,15,260.12,14,255.53,11.61l-3.07-.95a14.76,14.76,0,0,0-8.51,0l-3.34.89c-.66.28-1.31.56-2,.86,2.4-3.36,2.95-6.87,1-9.41-3.24-4.17-12.13-4-19.81.53-15.77,7.81-31,15.68-46.2,24.59l.08,0A40.67,40.67,0,0,1,190,42c.66.52,1.31,1,2,1.56a2.42,2.42,0,0,1,1,2.23,3.69,3.69,0,0,1,.27.88l.27-.06a19.87,19.87,0,0,1,12.18,1.53,17.82,17.82,0,0,1,9.09,5c4.71,5,2.86,11.38-1.22,14.8l0,.15c4.57,1.42,8,6,7.54,10.69,5.19-4.43,14.76-3,16.42,4.28a10,10,0,0,1,6.95,4.1,12.08,12.08,0,0,0,2-.26c.16-4.21-.56-8.57-.66-12.7-.14-6.13,1.94-13.78-1.18-19.44-.75-1.37-4.06-5.82-5.18-9.33a35.78,35.78,0,0,0-5-2.84,3,3,0,0,1-1.08-4.1,2.82,2.82,0,0,1,1.32-1.17,2.76,2.76,0,0,1,.09-.68,2.84,2.84,0,0,1,.67-1.19A2.8,2.8,0,0,1,239.59,34a25.53,25.53,0,0,1,3.19,2.39A13.1,13.1,0,0,1,245,38.31a15.11,15.11,0,0,1,4.22,4.05,2.37,2.37,0,0,1,.41,1.14,11.25,11.25,0,0,1,2.89,4.29,3,3,0,0,1-2.1,3.69,2.92,2.92,0,0,1-.8.1l.12.17c2.19,3.66,2.43,8.59,2.37,12.87,2.85-1,5.69-2.13,8.57-3.37a17.38,17.38,0,0,0,3.27-1.85,22.29,22.29,0,0,0,5.69,1.24c-3.1.61-6.41,1.82-9.53,2.77-2.71.8-5.37,1.62-8,2.45C252,70,252,74,252.14,78c2.42-.87,4.84-1.72,7.27-2.53a75.86,75.86,0,0,0,9.35-2.33A73.59,73.59,0,0,0,278,69.6a58.71,58.71,0,0,0,16-10.72c.94-.52,1.37-1.36,1-1.89s-1.48-.52-2.39,0c-5.66,1.62-11.31,3.48-16.91,4.32-.23,0-.23-.83-.71-.92-.24,0-.49-.07-.74-.09a21,21,0,0,0,2.13-.54l3.54-3.65h0l.16-.19.82-.84,0-.06.2-.23,1.25-.4a1.47,1.47,0,0,0,1-.79,5.65,5.65,0,0,0,.77.29c2.41-.69,2.41-.69,4.87-1.45a2,2,0,0,0-.28-.39,6.18,6.18,0,0,1,1.71-.92A14.52,14.52,0,0,1,293.5,50l-1.37-.23,1.14.07-.61-.7.82.68.09-.84,2.69,1.08,1.14-1a2.88,2.88,0,0,0,.22-.59C297.54,48.25,297.54,48.25,297.89,47.1ZM270.61,20.74l.23.12.26,5.29Z"/><path class="cls-1" d="M269.53,44.68h0l1.31.59Z"/><path class="cls-1" d="M286.21,46.67a2.78,2.78,0,0,0,.82.23Z"/><path class="cls-1" d="M13.69,238.67c.41-.22.84-.4,1.24-.61a8.12,8.12,0,0,1-2.09,2.68,51.88,51.88,0,0,0,8.49-6.67,90.5,90.5,0,0,0,7.5-8.3,92.67,92.67,0,0,0,11-17.68c3-2.75,4.81-6.16,3.92-7.67s-4.14-.48-7.27,2.31a23.14,23.14,0,0,1-2.33,1.43,65.61,65.61,0,0,0-9.37,4.68,99.12,99.12,0,0,0-9.69,6.72l4.35-2.46a42.72,42.72,0,0,0-5.62,4.72c.42,0,.89,0,1.31,0C8,222.21,1.2,231.16.16,237.55s3.64,7.66,10.45,3.09C11.64,240,12.64,239.3,13.69,238.67Z"/><path class="cls-1" d="M30.79,234.39c-4,2.64-7.77,5.22-11.69,7.76l-1,.28,2.18,1.49-.07-.18a29,29,0,0,1,3.42-7.54c.8-1.33,1.68-2.69,2.61-4s1.94-2.63,2.92-3.9l1.28-1.93a3.15,3.15,0,0,0,.38-2.46c-.55-1.26-2.78-.61-5,1.44l-2.54,2.37A59.07,59.07,0,0,0,12.93,238.1c-3,4-5,8.19-4.82,11.39.11,1.46,1.71,1.58,2.78,2.17C12,253,15.2,251.58,18,248.49s4.15-6.6,3-8l1.69-1.35L22,240.82c-.36-1.88,1.91-5,3.2-7.61.82-1.17,1.71-2.27,2.57-3.41l-4.64-1c-.38.66-.73,1.34-1.1,2a5.71,5.71,0,0,1,.64-.05,128.77,128.77,0,0,1-6.32,11.54l-2.61,5.4c-.42,1.7.56,2.32,2.2,1.46l2.31-1.39-1.14.55c1.12-1,2.24-2,3.36-3l3.42-3c2.28-2,4.55-4,6.83-5.83a3.38,3.38,0,0,0,1.44-2.09C32.18,233.85,31.57,233.81,30.79,234.39Z"/><path class="cls-1" d="M17.51,250.32a8,8,0,0,0-2.51,2.1l-.12.65,1.73-1C17.85,251.39,18,250.62,17.51,250.32Z"/><path class="cls-1" d="M14.88,253.07l-.72.41.63-.15.07-.14Z"/><path class="cls-1" d="M269.36,79.43q-8.55,2.29-17,4.82c0,.31,0,.62,0,.93q8.51-2.55,17.09-4.88c.6-.16,1-.48,1-.73S269.91,79.27,269.36,79.43Z"/><path class="cls-1" d="M352.82,86.27c-.39.24-.34.5.11.62a2.09,2.09,0,0,0,1.43-.2c.33-.21.27-.52-.11-.62A2.09,2.09,0,0,0,352.82,86.27Z"/><path class="cls-1" d="M381.08,57.72c-.43-1.2-3.22-1.88-6.16-1.52C352.74,57.95,332.7,63,311.34,69.58,296.14,74.29,283,78.7,268.12,84.25c-5.44,2-10.77,4-16,5.88a25.29,25.29,0,0,1-.91,4.2c19.75-6.66,39.08-13,58.59-18.53,21.91-6.23,44-11.65,66.78-15.24C379.47,60.19,381.51,58.91,381.08,57.72Z"/><path class="cls-1" d="M113.81,146.42c-1.14,1-2.25,2-3.32,3.08l3.41-1.95C113.86,147.18,113.83,146.8,113.81,146.42Z"/><path class="cls-1" d="M164.78,210.69c-.84-.3-1.65-.65-2.46-1a35.79,35.79,0,0,1-13.65-4.9c-7.41-3.28-14-8.26-17.29-14.6a34.05,34.05,0,0,1-6-8.45c-5-7-8.75-14.69-9.17-22.47a60.34,60.34,0,0,1-2.28-11.39,73.14,73.14,0,0,0-9.6,9.52c-.37.2-.74.4-1.11.64A93.94,93.94,0,0,0,87.9,167.1c-2.51,1.78-5,3.56-7.52,5.41s-4.94,3.67-7.43,5.39l1.67.72c-2,1.1-3.63,1.14-5.66,2.53l2.29-.41-.12.08a29.65,29.65,0,0,0-7.66,4.91,57,57,0,0,0-5.34,2.49c-1.78,1-3.59,2-5.4,3.18s-3.65,2.38-5.48,3.69-3.59,2.76-5.38,4.22-3.56,3-5.31,4.56-3.41,3.24-5.07,4.91-3.29,3.36-4.88,5.05-3.06,3.48-4.51,5.22c-1,.95-1.58,2.17-1.29,2.66s1.35.16,2.35-.8c2.22-1.62,4.39-3.11,6.6-4.6s4.47-3,6.73-4.73C44.91,205,53.62,199.92,62,193.1c.56-.33,1.11-.66,1.69-1l3-.73-.31.23c-1,.64-2.09,1.27-3.12,1.93l.75-.15q-5.49,4.34-11,8.59c-3.74,2.44-7.54,5.15-11.26,8.12a140.36,140.36,0,0,0-10.61,9.75,117.82,117.82,0,0,0-9.25,10.94,90.78,90.78,0,0,0-7.22,11.63c-.94,1.24-1.2,2.45-.58,2.71s1.89-.55,2.79-1.76c3.1-2.89,6.22-5.78,9.33-8.56a111.32,111.32,0,0,1,9.64-7.58c.27-.18.47.74,1.07.51.3-.11.6-.24.9-.38-.78.59-1.59,1.24-2.42,2l-3.32,6.17h0l-.15.3-.76,1.42.05,0-.17.38L29.73,239a2.76,2.76,0,0,0-.9,1.49,7.2,7.2,0,0,0-1,.23c-2.63,2.39-2.63,2.39-5.29,4.88a1.48,1.48,0,0,0,.44.22,14.86,14.86,0,0,1-1.71,2.17A29.36,29.36,0,0,1,18,251.39l1.65-.75-1.33.75.92.29-1.16-.12.16.94-3.45.83-1,1.86a3.75,3.75,0,0,0-.07.77c.18.19.18.19.15,1.62a1.65,1.65,0,0,0,.53.32c.45-.08.45-.08,1.13.37a5.4,5.4,0,0,0,1.07-.36c.47-.32.59-.4,2.27-1.61a5,5,0,0,0,0,.65c.91,1.26.92,1.25,5.2,1.6a14.46,14.46,0,0,0,3.59-1.71c1.94-1.75,1.89-1.8,4.14-3.8,0,0,.53-.4,1.4-1.13a16.28,16.28,0,0,1,2-.41h0a5.92,5.92,0,0,0-.83,1.39c-.52,1.33,0,2,1.18,1.57.77,2.63,2.94,3.34,5.67,3.3a3.48,3.48,0,0,0,1.32,2.15,12.5,12.5,0,0,0,2.12,7.16L46,268.52c1.63.6,4,.31,6.6-.86l.88-.28.72,1.62a36,36,0,0,0,8.88-1,54.29,54.29,0,0,1,9.13-1.25l3.6-.68a15.59,15.59,0,0,0,4.42-1.41,27.14,27.14,0,0,0,4.82-2.89l3.38-2.54c.64-.61,1.26-1.22,1.92-1.82-1.76,4.57-1.33,8.38,1.45,10,3.37,1.89,9.23.16,15-3.83a15.3,15.3,0,0,1-7.64-2.33,11.85,11.85,0,0,1-5.53-4.88,3.17,3.17,0,0,1-.27-.66c-3.94-.25-8.08-.82-11.62-2.59-2.18-1.09-1.81-4.94.61-5.45.08-.32.19-.64.29-1a3.49,3.49,0,0,1-.83-1.1l-.14-.19c-1.87-2-3.88-4.71-2.31-7.33a4.35,4.35,0,0,1,3.67-2c.16-.21.33-.42.5-.62a10.46,10.46,0,0,1,3.33-10.16A11.66,11.66,0,0,1,89.21,223c-11.64-.78-23.23-2.33-34.91-2.42a2.79,2.79,0,0,1-2-.81l-.2.19q-.88,1-1.66,2a31.49,31.49,0,0,0-7.1,2.15c2.68-1.89,5.38-4.23,8.1-6.43a2.9,2.9,0,0,1,1.77-2.92,2.29,2.29,0,0,1,1.14-.94,2.61,2.61,0,0,1,1.43-.79c.71-.15,1.43-.26,2.14-.37l2.41-1.85c2-1.53,4-3,6-4.48l-1.18,1.3c-.36.44-1.24,1.13-.33,1.23l-2.75,2.17-1.6,1.36c.87-.07,1.73-.11,2.6-.13l.54-.11a2.34,2.34,0,0,1,2.75-1.89c8.34,1,16.83,1.11,25,2.8,7.33.25,15.49.4,21.22,4.51a28.22,28.22,0,0,1,2.32-8.92,3.15,3.15,0,0,1,1.26-1.44c0-.1,0-.19,0-.29a13.41,13.41,0,0,1,1.17-3.31,2.49,2.49,0,0,1,2.19-1.44l.44-.46a3,3,0,0,1,5,2.92c-.32,1.14-.62,2.27-.89,3.41q-.08.85-.16,1.71c0,.32,0,.64-.07,1a106.93,106.93,0,0,1-.58,17.1,34.14,34.14,0,0,1,2.16,11.07,29.93,29.93,0,0,1,.83,7.46q8.92-7.74,18.12-15.14c8.22-6.58,16.65-13,25.34-19.47A20,20,0,0,1,164.78,210.69ZM53,266.2l-.29,0L50.74,261Z"/><path class="cls-1" d="M96.29,223.67c.14.2.29.4.42.6a2.94,2.94,0,0,1,1.87.36,8.82,8.82,0,0,1,.78.5,5.25,5.25,0,0,1,.72-.11l-.8-.4-.43-.15C98,224.2,97.14,223.93,96.29,223.67Z"/><path class="cls-1" d="M324.31,120.07a1.87,1.87,0,0,0-1.36.19c-11.5,4.24-22.81,8.95-34.21,13.65l-21.56,9c-.36.61-.71,1.21-1,1.82a2.59,2.59,0,0,1-2.85,1.42,31.25,31.25,0,0,1-5.32,4.38,2.83,2.83,0,0,1-1.27,1.5c-2.31,1.38-4.67,2.68-7,3.94a57,57,0,0,1-7,4q-2,4.28-4.32,8.45c0,.19,0,.37,0,.56,14.92-8.62,29.81-16.75,45.3-24.61,15.22-7.6,26.43-16.28,40.52-23.64C324.6,120.51,324.58,120.22,324.31,120.07Z"/><path class="cls-1" d="M384.92,81.54C354,82.85,323.67,89.6,295.66,99.87L291,101.19v0a6.6,6.6,0,0,0-3.64-1.82L294.9,97c2.52-.79,5.07-1.48,7.6-2.23s5.06-1.51,7.62-2.19l7.67-2.06c8.65-1.68,17.35-3.1,26.1-4.34,1.26-.18,2.25-.77,2.19-1.38s-1.15-.83-2.48-.66l-6.45.92c1.66-1,2.66-2.15,2.61-3.28s-1.09-1.93-2.73-2.45c4.71-1.25,9.4-2.56,14.1-3.72l7-1.86,7-1.8c.54-.14.81-.41.59-.62a1.6,1.6,0,0,0-1.34-.14c-13.63,2.06-26.93,4.91-40.1,8.19-5.4.24-10.7.74-16.14,1.25-2.72.23-5.43.67-8.2,1.06s-5.58.86-8.43,1.47c-14.91,3.09-28.4,8.28-41.43,14.08-.13.27-.24.55-.39.82a2.65,2.65,0,0,1-3.77,1.13c0,.25-.05.5-.08.76a9.05,9.05,0,0,1,7.57,9.42,83.61,83.61,0,0,1-.56,8.42c.11,1.84.1,3.68,0,5.51a2.26,2.26,0,0,1,2.41-.61,13.9,13.9,0,0,1,6.32-4.7,10.8,10.8,0,0,1,.92-.58,3.05,3.05,0,0,1,3.75-2.49,8.87,8.87,0,0,1,3.63,1.63,2.52,2.52,0,0,1,2.77,2.14c0,.19.07.38.1.58a3.06,3.06,0,0,1,2.88,2.85,19.24,19.24,0,0,1-1.86,9.39,2.56,2.56,0,0,1-.22,2.65l-.19.28,1.48-.36,5.57-1.35,5.62-1.2,1.88-.29c2.45-.53,4.63-1.71,5.53-3a2.08,2.08,0,0,0,.46-1.1c16.39-6.32,33.5-11.31,49.45-17.21.81-.3,1.2-.73,1-1.11a2.05,2.05,0,0,0,1.09-.15,33.5,33.5,0,0,1,6.31-2.41c.49-.2.74-.48.47-.65a1.49,1.49,0,0,0-1.32-.09,47.91,47.91,0,0,0-6.65,2.55.62.62,0,0,0-.37.4,3.48,3.48,0,0,0-2,.05c-16.93,3.87-32.7,9.87-49.26,14.94a246,246,0,0,1,24.73-9.91c2.64-.91,5.23-1.85,7.79-2.79l7.7-2.62a154.69,154.69,0,0,1,15.87-4.49c.58-.09.93-.39.84-.62s-.61-.36-1.18-.21A150.88,150.88,0,0,0,332,107.16c-2.65.86-5.27,1.69-7.86,2.63l-7.74,2.86c-2.58.92-5.14,1.95-7.72,2.93s-5.18,1.92-7.81,2.88c-5.23,2-10.64,3.69-16.28,5.41-.89.26-1.79.49-2.68.71,6.39-4.06,12.79-7.89,19.28-11.68,5.3-1.44,10.56-3.06,15.89-4.38l8-2.1,8-1.94,4-1,4-.9,8-1.83,8-1.67,4-.85c1.34-.28,2.68-.51,4-.78,1.06-.12,1.87-.61,1.8-1.08s-1-.76-2.07-.65c-12.4.68-24.9,1.74-37.33,3.59l2.48-1.1,2.54-.71c4-.81,8-1.38,12-2.1s8-1.29,12-2c3-.34,5.38-1.7,5.4-3.06s-2.48-2.16-5.42-1.88l1.39-.42c.47-.12.78-.43.63-.62a1.66,1.66,0,0,0-1.3-.17l-5,1.6a327.68,327.68,0,0,0-46,8.23,297.91,297.91,0,0,1,49.78-11.9c-.33.21-.33.5.12.62a2.27,2.27,0,0,0,1.44-.2c.38-.24.28-.52-.11-.62h0c2.29-.37,4.59-.64,6.89-.89l6.92-.75c4.62-.45,9.28-.68,13.93-1,.54,0,1-.27,1-.53S385.52,81.49,384.92,81.54Z"/><path class="cls-1" d="M47.28,240.94h0l-1.67.19Z"/><path class="cls-1" d="M27.4,249.7a4,4,0,0,0-1,.33Z"/><path class="cls-1" d="M310.61,195.66c-.36,0-.73,0-1.08.07a4.19,4.19,0,0,1,2-1.52c-10.63,1.82-20.09,11.26-24.69,19.39-2.58,1.59-4.09,4.15-3.36,5.72s3.41,1.55,6,0a9.44,9.44,0,0,1,2-.57,53.05,53.05,0,0,0,16.05-3.77l-3.66.65a22.53,22.53,0,0,0,4.81-2.18L307.6,213c6.07-1.32,12.28-6.27,13.87-11.19s-2-7.92-8.1-6.64Z"/><path class="cls-1" d="M296,193.35c3.55-1,7.05-1.83,10.55-2.65l.88.12-1.62-2.07,0,.18c-1.45,3.58-5.36,7.11-9,10.33l-1.21,1.27a2.5,2.5,0,0,0-.5,2c.37,1.27,2.26,1.43,4.23.36l2.26-1.24c6.06-2.18,14.33-7.45,14.86-13.09.1-1.29-1.18-2-2-2.93-.73-1.59-3.54-1.57-6.24,0s-4.26,4.18-3.49,5.76l-1.55.57.72-1.21c.08,1.75-2.13,3.59-3.47,5.43-.82.69-1.62,1.41-2.42,2.12l3.73,2.39,1.09-1.36a5.33,5.33,0,0,1-.54-.18,71.14,71.14,0,0,1,6.43-7.67l2.85-3.61c.57-1.29-.14-2.19-1.61-2.08l-2.1.32,1,0c-4.24,1.66-8.49,3.77-12.73,5.37a2.08,2.08,0,0,0-1.38,1.38C294.82,193.38,295.33,193.61,296,193.35Z"/><path class="cls-1" d="M308.94,184.29a4.82,4.82,0,0,0,2.36-.86l.19-.51-1.56.19C308.81,183.24,308.58,183.85,308.94,184.29Z"/><path class="cls-1" d="M311.5,182.92l.65-.08-.54-.11-.08.09Z"/><path class="cls-1" d="M136.64,322.44q-4.8,3.92-9.55,7.9c-.36.3-.53.69-.37.9s.55.11.87-.18c3.16-2.62,6.31-5.24,9.48-7.82Z"/><path class="cls-1" d="M160.42,304.49c-.15-.21-.54-.17-.89.09q-2.22,1.62-4.42,3.29c-.15.51-.31,1-.46,1.51,1.77-1.35,3.54-2.69,5.33-4C160.36,305.1,160.53,304.71,160.42,304.49Z"/><path class="cls-1" d="M65.8,355.85c.11-.37-.09-.55-.46-.44a1.36,1.36,0,0,0-.82.81c-.09.31.14.53.46.43A1.35,1.35,0,0,0,65.8,355.85Z"/><path class="cls-1" d="M112.91,262.62a15.82,15.82,0,0,1-12.88-.8c-4.65,5.59-9.18,11.25-13.6,17.07a106.56,106.56,0,0,0-6.23,9.06c-1.83,3-3.47,6.07-5,9.09-3.14,6-6,12.05-9.25,18.19-.2.35,0,.58.26.59a1.41,1.41,0,0,0,.93-.74c12.67-17,26.15-33.75,42.76-49,1.11-1,2.22-2,3.34-3Z"/><path class="cls-1" d="M134.1,316.8l-1.22-2c-25,22-45.15,46.78-65.28,71.8-1.46,1.66-1.79,3.58-.74,4.25s3.12-.12,4.57-1.76c2.92-2.9,5.69-5.84,8.36-8.83s5.32-5.94,7.9-9,5.09-6.17,7.7-9.28l7.89-9.55c3.8-4.65,7.52-8.86,11.24-13.08l5.67-6.34c1.94-2.11,3.93-4.22,6-6.41,2.79-2.95,5.6-5.74,8.45-8.44C134.44,317.7,134.27,317.25,134.1,316.8Z"/><path class="cls-1" d="M144.78,304.67l-4.89,4.07q.75,1.62,1.49,3.25c1-.86,1.94-1.7,2.92-2.55C144.45,307.85,144.6,306.26,144.78,304.67Z"/><path class="cls-1" d="M124.53,296.84a2.63,2.63,0,0,1-.13-1.69q-1.38-2.69-2.7-5.41c-2.21-4.56-6-10.46-5.45-15.75a3.06,3.06,0,0,1,1.3-2.22c-.09-.46-.17-.91-.24-1.37a.86.86,0,0,1-.55-.47c-.44-.88-.9-1.74-1.35-2.61-2.15,2.71-4.23,5.47-6.29,8.22a17.08,17.08,0,0,0-2.91,3.67c-5.4,3.81-10.58,7.91-15.93,11.85l-1.39.9c-1.75,1.31-3,3.09-3,4.55a2.1,2.1,0,0,0,.17,1.13c-4.93,5.76-10,11.4-14.8,17.22-2.38,2.91-4.71,5.84-6.94,8.8s-4.37,5.94-6.31,9c-.4.62-.42,1.15-.05,1.36a1.48,1.48,0,0,0-.69.63,29.06,29.06,0,0,1-3,4.92c-.21.4-.22.74.07.75a1.1,1.1,0,0,0,1-.57,39.71,39.71,0,0,0,3.14-5.16.56.56,0,0,0,0-.49,2.52,2.52,0,0,0,1.39-1c4.86-5.48,9.51-11,14.17-16.6s9.54-11,14.8-16.17c-4.28,6-9,11.77-13.91,17.94-5.86,7.45-10.79,14.76-17,21.91-.35.34-.42.74-.21.88s.64,0,.95-.38c6.47-7.17,11.9-14.6,17.45-22.06,2.77-3.73,5.68-7.36,8.76-11A105.15,105.15,0,0,1,95,297.24c.59-.52,1.19-1,1.8-1.52-3.27,5.6-6.32,11.24-9.37,16.82-6.51,6.46-12.76,13.16-18.93,19.88-3.1,3.34-6.06,6.81-9,10.23s-5.94,6.86-8.78,10.38c-.62.63-.83,1.42-.49,1.74s1.15.08,1.76-.55c3.85-3.35,7.8-6.62,11.69-10l5.84-5,5.89-5-1.13,1.94-1.39,1.64c-4.75,4.58-9.35,9.3-13.94,14.07-1.81,1.68-2.54,3.86-1.67,4.93s3,.47,4.75-1.1l-.66,1c-.24.31-.25.69,0,.77a1.16,1.16,0,0,0,1-.47l2.29-3.55c9.31-8.38,18.32-17.08,27.33-25.8C87.46,332.82,83,338,78.39,343s-9.22,10.13-14,15c.09-.31-.09-.54-.46-.43a1.47,1.47,0,0,0-.82.82c-.1.36.14.53.46.43h0c-5.13,5.3-10.32,10.57-15.73,15.65-.32.29-.43.7-.24.88s.62,0,1-.3a675.52,675.52,0,0,0,49.62-53.44L101,319h0a5.92,5.92,0,0,0,3.61.34c-5.9,6-11.79,12-17.46,18.28C82,342.33,76.83,347,71.77,351.9c-.74.69-1,1.59-.64,2s1.27.15,2.06-.55l3.76-3.52a3.88,3.88,0,0,0,.22,3.74,3.21,3.21,0,0,0,3.27.8c-2.36,3-4.68,6-6.94,9s-4.44,6.06-6.48,9.18c-.24.36-.24.69,0,.75a1,1,0,0,0,.91-.52L78.48,361c3.48-4,6.94-7.91,10.52-11.76,3.48-2.35,6.93-4.65,10.38-7.08s6.95-4.9,10.41-7.73c2.52-2.06,4.91-4.19,7.22-6.36s4.57-4.34,6.74-6.56,4.29-4.49,6.37-6.76l1.66-1.81-.45-.79A129,129,0,0,1,124.53,296.84Z"/><path class="cls-1" d="M313,179.43a2.12,2.12,0,0,0-.38-.48c-.38-.1-.38-.1-.87-.75a4,4,0,0,0-.93-.09c-.43.1-.55.12-2.11.54a4.54,4.54,0,0,0,.08-.57c-.57-1.43-.56-1.43-4.08-3.32a10.34,10.34,0,0,0-3.27.16c-1.89.83-1.89.83-4.05,1.82,0,0-.5.17-1.34.51a14,14,0,0,1-1.76-.33h0a3.84,3.84,0,0,0,.89-.94c.62-1,.28-1.79-.78-1.79-.28-2.58-2-4-4.37-4.84a4.09,4.09,0,0,0-.81-2.35,13.68,13.68,0,0,0-.68-7.1l-.89-1.76a8.13,8.13,0,0,0-5.9-1.4l-.82,0-.35-1.7c-4.71-2.07-11.3-1.9-16.44-3.36l-3.37-.35a11.88,11.88,0,0,0-3.28,0,3.09,3.09,0,0,1-.77.66c-2.31,1.38-4.67,2.68-7,3.94a57,57,0,0,1-7,4c-1.34,2.86-2.77,5.69-4.32,8.47a8,8,0,0,1-1.39,5.71l-1.79,2.42a56.38,56.38,0,0,1-6.88,10.14c.4,0,.79,0,1.19,0a77.72,77.72,0,0,1,8.24-1.13c5-1.13,9.85-2.8,14.95-3.58a3.14,3.14,0,0,1,1.35.1c4.13-1.85,8.09-4,12.32-5.73a2.31,2.31,0,0,1,1.68-.05,22.37,22.37,0,0,0,2.56-2.79c2.31-3,7.52,0,5.18,3-6.39,8.37-17.19,13.32-27.53,14.36a3.17,3.17,0,0,1-.76,0q-1.63.47-3.27.92c-5.71,1.54-12,3.67-17.6.9l-.18-.11c-.31,0-.61,0-.92-.08a3.1,3.1,0,0,1-1.92-1,40.8,40.8,0,0,1-11.06,7.27,30,30,0,0,1-5,2.07,10,10,0,0,1-3.74,4.18,36.23,36.23,0,0,1-4.16,2.3,30.79,30.79,0,0,0-.49,6.81,2.65,2.65,0,0,1,.69,1.44c1.57,9.5,5.94,18.21,11.37,26.08,1.65,2.39-.85,4.66-3.12,4.34a3.19,3.19,0,0,1-5.79-.23c-1.22,1.49-3.83,1.75-4.86,0a2.49,2.49,0,0,1-2.17-1.39,3.09,3.09,0,0,1-2.15.49,3.15,3.15,0,0,1-5.11-1.28q-1.44-4.86-2.7-9.75a46.4,46.4,0,0,1-1.88-7.77q-1.71-7.51-3-15.11h-.21c-5.13.93-10.12,1.66-15.42-.25-.84-.3-1.65-.65-2.46-1a43.47,43.47,0,0,1-7.92-2.05l-1.15,1.06L143,218.38l-5.16,4.75c-1.72,1.59-3.44,3.18-5.18,4.75q-3.7,3.33-7.56,6.6c.22,1.5.35,3,.43,4.46,1.67,7.41,1.41,14.7-5.91,19.17l.06.27,2.44-1.68-1.79,1.58a4.91,4.91,0,0,0-.55.54c.26,1.07.53,2.13.75,3.21a1,1,0,0,1-.25.88,1,1,0,0,1-1.63.5c-.62.73-1.22,1.47-1.82,2.21l.45.86c1.1-2.41,5.1-3,5.53.18q.18,1.29.4,2.57a2.73,2.73,0,0,1,1.23,1.72c3.2,12.38,8.89,23.76,14.31,35.27q3.29-2.46,6.49-5c.3-2.27.66-4.53,1.12-6.78q.29-2.67.58-5.35c.42-3.8,6.42-3.83,6,0-.11,1-.23,2.09-.34,3.14,0,0,0,.09,0,.14a3,3,0,0,1,.6,2.42c-.16.93-.31,1.86-.47,2.79a3,3,0,0,1,.17,1.11c0,.2,0,.39,0,.59a3.39,3.39,0,0,1,2.57.66l1-.81a20.7,20.7,0,0,0,3.28-2.43l3-2.82c4.15-3.43,8.47-6.56,12.76-9.69l6.47-4.6c2.17-1.51,4.36-3,6.54-4.44-4.7,4.17-9.27,8.49-13.77,12.84-2.25,2.18-4.48,4.37-6.66,6.6s-4.29,4.53-6.38,6.83c-.63.62-.78,1.36-.41,1.66s1.26,0,1.89-.61c12.44-11.88,25.63-23,38.83-34.06,3.16.23,7.09-.68,11.1-2.31a57.87,57.87,0,0,0,11.7-6.56,37.51,37.51,0,0,0,6.82-6.49l-3.7,2.13a41.61,41.61,0,0,0,7.66-8.72c.28-.14.57-.27.86-.44,8.07-3,15.5-9.1,23.38-13.38l-1.43-1c1.58-.62,2.93-.38,4.58-1.18l-1.9-.11.1,0a16.83,16.83,0,0,0,6.18-2.8c11.44-2.11,24.29-9.85,34.72-18,.86-.5,1.43-1.35,1.22-1.88s-1.09-.58-2-.08c-3.84,1.36-7.58,2.23-11.49,3.93-7.26,3.17-14.5,5.58-21.52,9.67l-1.4.47-2.49,0,.26-.15c.85-.35,1.69-.73,2.56-1.07l-.64,0c3.07-1.71,6.13-3.4,9.21-5a89.1,89.1,0,0,0,9.54-4.2,86.5,86.5,0,0,0,9.29-5.34,78.67,78.67,0,0,0,8.46-6.46,58.09,58.09,0,0,0,7.18-7.38c.93-.7,1.29-1.63.82-2.09s-1.63-.25-2.53.45c-2.89,1.35-5.78,2.76-8.67,4.06a84.74,84.74,0,0,1-8.67,3.5c-.24.07-.34-.8-.86-.79-.26,0-.52,0-.79,0,.71-.27,1.43-.58,2.19-1l3.3-4.37h0l.15-.22.77-1,0-.05.19-.27,1.27-.64a1.7,1.7,0,0,0,.93-1,5.93,5.93,0,0,0,.85.14c2.47-1.15,2.47-1.15,5-2.37a1.85,1.85,0,0,0-.34-.34,7.28,7.28,0,0,1,1.7-1.25,17.14,17.14,0,0,1,3.2-1.73l-1.47,0,1.21-.14-.72-.59.95.54v-.87l3,.59,1.09-1.22a3,3,0,0,0,.17-.64C312.76,180.66,312.76,180.66,313,179.43ZM281.42,158l.87,5.29L281.16,158ZM275,203.12c-3.53,1.73-7,3.46-10.41,5.23l1-.9c.31-.32,1.07-.74.3-1,3.15-1.74,6.3-3.59,9.45-5.59a21.57,21.57,0,0,0,3.22-2.51,24.24,24.24,0,0,0,6.15.15C281.53,199.68,278.18,201.53,275,203.12Z"/><path class="cls-1" d="M282.75,182.37h0l1.45.34Z"/><path class="cls-1" d="M300.61,181.19a3,3,0,0,0,.9.07Z"/><path class="cls-2" d="M142.68,53.38l4,4a41.91,41.91,0,0,1,4.73-6.64Q147,52,142.68,53.38Z"/><path class="cls-3" d="M276.66,124.34c-.47-9.65-7.17-12.35-13.46-10.5a4,4,0,0,1-3,2.13,3.92,3.92,0,0,1-1.36,0,16.11,16.11,0,0,0-2.88,2.51c.12-1.43.21-2.87.29-4.31l0-.06c-1.17-1.55-2.4-3.09-3.42-4.76,0,1.23-.06,2.46-.11,3.68-.2,4.37-.6,8.8-1.21,13.25l1-.59a3.8,3.8,0,0,1,2.72-.42c0-.28.08-.56.11-.84,1.75-5.06,6.82-9.5,12.34-8.8,9.18,1.18,6.38,14.91,3.49,20.35-4.14,7.8-10.72,12.77-17.89,17a126.87,126.87,0,0,1-11,6.64c-.13.33-.27.65-.43,1l-1.78,3.55.48-.21a90.24,90.24,0,0,1-21.43,29.24c-23.07,20.41-62.74,22.46-85-.55-21.52-22.22-21.75-61.11-14.49-89.18a105.74,105.74,0,0,1,25.63-45.84c-1.23,0-2.46,0-3.69,0A106,106,0,0,0,119.34,94c-5.7,15.66-7.47,33-6.68,49.58.75,15.83,4.39,32.16,13.74,45.24,19,26.68,59.69,30.79,86.39,13.71,15.08-9.65,25.8-24.5,32.84-41.08a105.72,105.72,0,0,0,18-12.3C270.93,142.88,277.15,134.4,276.66,124.34Z"/><path d="M215.55,135.62c-1.23-.66-2.16,1.25-1,1.93,1.66.94,3.61,1.85,5.48,2.87C198,160,160.46,187.15,131.4,166c-1.08-.78-2.23.9-1.18,1.69,14.35,10.89,32.57,9.29,48.58,3.06,15.27-5.93,30.64-15.64,41.63-28a7.9,7.9,0,0,1,6.08,3.26,7.45,7.45,0,0,1,.15,6.09c-.27.76.76,1.52,1.29.77C234.39,143.75,221.73,138.94,215.55,135.62Z"/><path d="M224.57,131.59c-.79-.37-1.31.82-.55,1.22,3,1.6,3.94,4.52,4.92,7.55.23.73,1.44.4,1.3-.35C229.56,136.3,228.13,133.27,224.57,131.59Z"/><path d="M182.83,182.94c-2.14-.3-7.24-1.2-7.48-4-.12-1.43-2.28-1-2.18.39.27,4.11,6.23,5.47,9.49,5.7C183.85,185.14,184,183.11,182.83,182.94Z"/><path d="M111.58,60.86c-14.52-.08-24.64,10.32-29.25,23.37-.25.7,1,1.13,1.23.44,4.81-12.15,14-22.39,27.86-22.44C112.29,62.22,112.46,60.86,111.58,60.86Z"/><path d="M276.94,174.69c-.6-3.94-3.78-7.47-6.18-10.42-4.17-5.11-8.7-9.79-12.08-15.48-.52.29-1,.57-1.58.84q1.26,2.25,2.72,4.35l-.29-.18,0,0a1.88,1.88,0,0,0-.64-.34l0,0a2.26,2.26,0,0,0-2.92,1.41,8.87,8.87,0,0,0-1.59.79,2.1,2.1,0,0,0-.89,1.21,12.1,12.1,0,0,0-2.94,1.55,18.31,18.31,0,0,0-4.53,3.1,2.52,2.52,0,0,0-1.7.86c-.38.46-.73.92-1,1.37l-.07,0a2.21,2.21,0,0,0-1.39,2.82,10.68,10.68,0,0,0-.39,1.55s0,.09,0,.14c-3.34,3.46-7.16,8.1-8,12.09a11.36,11.36,0,0,0-1.14,3.38,2.3,2.3,0,0,0,0,.46c-1.07,1-2.08,2-3,3a13.77,13.77,0,0,0-2.52,1.77,2.26,2.26,0,0,0-.71,1.2c-.85,0-1.69-.07-2.55,0a1.8,1.8,0,0,0-1.14,3.25c2.7,2,6.74,2,10.75,1.42l2.13,0a30.68,30.68,0,0,0,6.19-.39c9.21-.89,18.56-3.24,25.93-8.14C272.08,183.9,277.86,180.68,276.94,174.69ZM238,192.2c-3.67.37-7.35.78-11-.19a.5.5,0,0,1,.27-1c3.53.95,7.12.52,10.69.15C238.68,191.14,238.68,192.14,238,192.2Zm5.29-.71c-.8.15-1.61.19-2.41.34-.63.12-.9-.84-.27-1,.8-.15,1.61-.19,2.41-.34C243.69,190.41,244,191.38,243.33,191.5Zm22.28-7.66A55.11,55.11,0,0,1,246.27,191c-.63.11-.9-.85-.27-1a54.36,54.36,0,0,0,19.1-7.08C265.65,182.63,266.15,183.5,265.61,183.84Zm6.8-5a34.91,34.91,0,0,1-4.2,3.53c-.52.38-1-.49-.5-.86a33.28,33.28,0,0,0,4-3.38A.5.5,0,0,1,272.41,178.79Zm1.55-2.26-.06.09-.19.23c-.41.49-1.12-.22-.71-.71.21-.25.3-.48.65-.56C274.26,175.44,274.52,176.35,274,176.53Z"/><path d="M267.95,121.84a8.65,8.65,0,0,0-4.17.22.37.37,0,0,0-.26,0c-.12.06-.24.13-.35.2a8.33,8.33,0,0,0-4.88,5,.58.58,0,0,0,.18.66.75.75,0,0,0,.74.74c2.22.14,7.72.65,3.59,5.68-.85,1-2.69,1.64-3.92,2.14-2,.83-4.27,1.52-5.79,3.22-1.93,2.16-2.2,5.56.54,7.08.37.21.75-.21.7-.57v0c.11-1,.19-1.91.35-2.82a11.68,11.68,0,0,1,4.79-5.12c2.37-.87,4.81-1.93,6-4.34,1.55-3.25-.21-5.32-2.76-6.29a6.69,6.69,0,0,1,3.7-5.06,7.67,7.67,0,0,1,1.46,0C268.24,122.63,268.37,121.92,267.95,121.84Z"/><path d="M269.43,124.56c-.09-.89-1.63-.75-1.57.15.57,8.63-4.06,15.4-11.32,19.77-.53.32,0,1.06.51.88C265.62,142.54,270.28,133.18,269.43,124.56Z"/><path d="M204.4,60.62a.42.42,0,0,1-.35.12c-1.56-.12-3.61-.36-4.77.89a52.37,52.37,0,0,0-3.54,9.12.46.46,0,0,1-.1.52l-.06.05-.07.24a3.4,3.4,0,0,0,1.82,1.4.5.5,0,0,1,.24.2,29,29,0,0,0,4.49.36c4.19,0,10-1.67,11.26-6.32C214.63,62.34,208.54,61.1,204.4,60.62Z"/><path d="M198,61.68a2.2,2.2,0,0,0-.55-2l-.36-.09-.18-.06a1.75,1.75,0,0,0-.95.54,34.66,34.66,0,0,0-3.81,9,.49.49,0,0,1,0,.23c-.21.75-.22,1.67.67,1.93a2.07,2.07,0,0,0,1.86-.52,55.46,55.46,0,0,1,3.35-8.92A.48.48,0,0,1,198,61.68Z"/><path d="M191.31,57.22a53.91,53.91,0,0,1-6.18-2.39,84.31,84.31,0,0,0-23.19-6,.4.4,0,0,0-.25-.45c-3.14-1.39-6.3-2.75-9.54-3.9-1.33-.47-2.67-.9-4-1.26a.54.54,0,0,0-.17,0,35.15,35.15,0,0,0-3.64-.78,32.85,32.85,0,0,1-3.41-.35c-1.48-.4-2.37.15-.61-1.24C143,38.71,148.26,39,151.53,39c7.56,0,14.82,1,20.22,7.79a.38.38,0,0,0,.64-.33,14.6,14.6,0,0,0-2.48-4.77c-.95-1-1.94-1.93-2.86-2.94a29.57,29.57,0,0,0-8.95-4.86.54.54,0,0,0-.06-.18c-.25-.09-.49-.18-.73-.29l-.31.09a47.08,47.08,0,0,0-5.1-1.32c-.51,0-1,0-1.53,0a41.44,41.44,0,0,0-16.42.26.63.63,0,0,0,.28,1.22,45,45,0,0,1,20.25,1.15,12.3,12.3,0,0,0-1.19,1A.79.79,0,0,0,153,36q-.66.65-1.27,1.35l0,0c-6-.26-12.63.67-14.84,5a.59.59,0,0,0,.57.83,25.81,25.81,0,0,1,9.32.82,17.53,17.53,0,0,0-4.33,5.54c-.45.31-.9.62-1.39.94a1.41,1.41,0,0,0-.64,1.13,49.79,49.79,0,0,0-13-7.2,91.64,91.64,0,0,0-25.51-4.64.64.64,0,0,0-.66.37.57.57,0,0,0,.27,1,146,146,0,0,1,30,10.63c.53.25,1-.63.49-.91A102.6,102.6,0,0,0,113.21,43a95.61,95.61,0,0,1,10.27,2.41c8.59,2.58,14.9,7.2,21.85,12.55-1,0-2,0-3,.1-18.58-11.27-47.12-5.6-58,13.8a.48.48,0,0,0,.83.47c5-7.83,13.22-13.19,22.31-15.82,9.69-1.18,18.29-1.09,27.18,1.91-8.95-.59-18.29,3-25.27,8.37C103,71.6,93.62,80.21,94.95,89.1c.1.67,1.07,1,1.4.29,5-11.08,13.72-17.81,24-21.75l.91-.28a118.62,118.62,0,0,1,13.57-2,5.82,5.82,0,0,0,1.79-.12h.2A66.48,66.48,0,0,0,126.61,71c-1.28.82-2.52,1.69-3.71,2.61l-.47.25a.49.49,0,0,0-.28.4s0,0,0,.06a64.71,64.71,0,0,0-7,6.55c-.47.51.25,1.3.75.8a73.81,73.81,0,0,1,8.79-7.56,123,123,0,0,1,29.83-8.45,117.23,117.23,0,0,1,19.22-.89,165.24,165.24,0,0,1,17,5.74,41,41,0,0,1,4.06-10.38.49.49,0,0,1,.12-.34l.29-.3c.09-.14.17-.28.27-.42C194.09,58.45,192.75,57.72,191.31,57.22ZM96.57,85.81c1.36-7.35,9.46-14.42,15-18.38a43.4,43.4,0,0,1,4.84-3c.84-.38,1.67-.79,2.52-1.12,1.18-.47,2.37-.91,3.57-1.35a.41.41,0,0,0,.36.09,56.74,56.74,0,0,1,17.09-.9.56.56,0,0,0,.48-.17.82.82,0,0,0,.73-1.14l.44.26a1.57,1.57,0,0,0,0,.92C123.4,62.69,105.68,69.91,96.57,85.81Zm40.82-22.15,0-.08q2.49-.31,5-.51-1.81.63-3.58,1.35a.7.7,0,0,0-.67-.79Zm19.49-7.94a1,1,0,0,1,0-2A1,1,0,0,1,156.88,55.71Zm8.65,1.44a1,1,0,0,1,0-2A1,1,0,0,1,165.53,57.16Zm8.88,1.44a1,1,0,0,1,0-2A1,1,0,0,1,174.41,58.6Zm8,2.16a1,1,0,0,1,0-2A1,1,0,0,1,182.45,60.76Zm6.6,3.24a1,1,0,0,1,0-2A1,1,0,0,1,189.05,64Z"/><path d="M269.39,68.27c-4.19-12.15-11.92-23.06-22.78-30.11q-2.29-1.49-4.73-2.81a44,44,0,0,1,2.52,5c.26.58-.6,1.09-.86.5a39.78,39.78,0,0,0-2.94-5.67.42.42,0,0,1,0-.49C229.66,28.94,217,25.48,205,23.82a87.18,87.18,0,0,0-20.46-.55h-.06a68.44,68.44,0,0,0-11.71,2.17.85.85,0,0,1-.65.21h-.07c-.78.23-1.55.46-2.32.72a29.28,29.28,0,0,0-4.84-1.24,27.45,27.45,0,0,0-7.66.66.63.63,0,0,0,.46.26l1.48.19A40.39,40.39,0,0,1,175,41.38a49.71,49.71,0,0,0-45.16-16.47.44.44,0,0,0,.13.86A50.85,50.85,0,0,1,173.58,42.1a1,1,0,0,1,.38.26c.56.62,1.1,1.27,1.62,1.93h0a.93.93,0,0,1,.71.46c.51.82,1.17,1.53,1.68,2.35,0,0,0,0,0,.07h.08l.24.54.16.22a.91.91,0,0,1,.17.52l0,.11a.49.49,0,0,0,.6.3c-.51-2.12-1.08-4.23-1.78-6.3A37.78,37.78,0,0,0,163,26.8a37.05,37.05,0,0,1,9.26,2.57l0,0c1.14.58,2.28,1.2,3.39,1.84.31.21.62.42.93.65A.75.75,0,0,0,177,32c4.77,3,9,6.65,11.47,11.38,2,2.94,2.91,6.39,3.88,9.81a.9.9,0,0,1,0,.11c.07.11.14.22.22.32a.66.66,0,0,1,.07.17,1,1,0,0,0,.23-.59,22.4,22.4,0,0,0-.14-3.47c.57.22,1.15.41,1.73.57a1.72,1.72,0,0,0,.44.56c.81.69,1.64,1.34,2.47,2l.49.46a3,3,0,0,1-.37,2.75,3.32,3.32,0,0,1-2,1.75,18.67,18.67,0,0,0,4.65,1.36c2.51.33,5.07.38,7.56.93,3.53.79,7.74,3.08,6.61,7.35-1.06,4-5.62,6.29-9.4,6.85a22.46,22.46,0,0,1-4.9.13c.78.36,1.56.71,2.33,1.07a222.07,222.07,0,0,1,22.14,12.18,25.62,25.62,0,0,0-.24,20.24l-4.54-1.86c.07-.8.13-1.59.18-2.33,0,0,0-.08,0-.11-.9-.22-1.78-.48-2.66-.77a1.37,1.37,0,0,0-.24.33.83.83,0,0,0-.5-.38c-2.43-.74-4.9-1.35-7.4-1.87l0,0-1-.26h0a70.27,70.27,0,0,0-14.46-1.84,152.22,152.22,0,0,0-24.11.55,1,1,0,0,0-.78,1.58,1,1,0,0,0-.29.7c0,1.41-.08,2.85-.09,4.29a16.65,16.65,0,0,0-10-.56c.41-2.61.64-5.15.78-7.36,0,0,0-.08,0-.13l-2.6-.82a1.43,1.43,0,0,0-.22.3l-.23-.08a.85.85,0,0,0-.35-.21c-.67-.2-1.36-.38-2-.57a72.56,72.56,0,0,0-15-2.71l.09-.1a144.16,144.16,0,0,0-30.15,0,1,1,0,0,0-.78,1.58,1,1,0,0,0-.29.7c-.2,7-.42,14.54,3.37,20.73a18.14,18.14,0,0,0,8.07,7,1.87,1.87,0,0,1,.31-1.18c5.87-9.4,12.14-18.54,18.56-27.57q3.46.47,6.86,1.12c-.82.89-1.61,1.8-2.39,2.72q-2.92,3.8-5.83,7.62c-4.29,6-8.18,12.37-12.4,18.46a2.14,2.14,0,0,1-.42.44c.73.17,1.47.3,2.21.42A217.7,217.7,0,0,1,147,96.61l1.13.23A213.16,213.16,0,0,0,126.93,126c.56.07,1.13.14,1.69.18a11.57,11.57,0,0,0-.35,6.43c1.19,4.8,5.94,7.74,9.72,10.37a.64.64,0,0,0,.6.08,5.49,5.49,0,0,0,2.2.93c.52.09.85-.73.31-.92a8.21,8.21,0,0,1-1.94-1,.67.67,0,0,0-.23-.41c-.32-.27-.65-.53-1-.8-.09-.12-.2-.23-.28-.36a.54.54,0,0,0-.51-.26c-2.9-2.22-6.12-4.6-7-8.18a10,10,0,0,1-.12-3.48,7.46,7.46,0,0,1,0-.75.79.79,0,0,1,0-.46l0-.06a5.93,5.93,0,0,1,.61-1.75,5.66,5.66,0,0,1,4.11-3.57,5.38,5.38,0,0,1,2.16-.06,5.6,5.6,0,0,1,2.86.64,6,6,0,0,1,2,1,7.9,7.9,0,0,1,1.25.95,8,8,0,0,1,.84.81h0c4.92,4.32,7.71,12.28,14.24,14.14.76.22,1.17-.94.41-1.17-3.08-.91-5.41-3.73-7.57-6.78a.73.73,0,0,0-.08-.31,57.92,57.92,0,0,0-3.81-6.92,13.7,13.7,0,0,0,4.46-2.79c2.57-2.52,4.25-6.22,5.37-10.19,4.41-2.2,8.17-.72,11.65,1.91a23.36,23.36,0,0,0,3.07,9.24,18,18,0,0,0,7.14,6.56c6.5-9.61,12.77-19.38,19.76-28.64q3.43.42,6.83,1.09c-7.41,9.51-14,19.64-20.63,29.67a30.87,30.87,0,0,0,3.15.51c6.44-9.93,12.5-20.11,19.28-29.81l1.06.23c-6.77,9.66-12.81,19.8-19.22,29.7l.53.05c6.84.42,17.56.52,22.86-4.66,2.9-2.83,4.67-7.16,5.76-11.69,5.84,1.2,11.59,2.66,17.32,4.3,1.12,1.7,2.26,3.25,3.34,4.61.72.91,2.2-.05,1.51-1s-1.21-1.75-1.84-2.71l3.37,1a2.63,2.63,0,0,0,.76.11l1.32.55c1.22,4.37.73,9.08.45,13.6a.76.76,0,0,0,1.34.59c1.91-2.36,5.95-6.86,7.22-11.05a2.25,2.25,0,0,0,1.55-3,16.49,16.49,0,0,0,5.82-.48c.93-.26.76-1.73-.24-1.53a19,19,0,0,1-7.5-.21c-.06-.09-.11-.18-.17-.26a.71.71,0,0,0-1.09,0l-.77-.22q-3.82-2-7.77-3.85c-5.1-3.73-8.37-9.27-6.38-15.51.32-1-1.23-1.4-1.55-.42-1.64,5-.13,9.81,3,13.71q-2.22-1-4.46-1.91a40.82,40.82,0,0,1-2.16-5.58,20.07,20.07,0,0,1,1.42-13.1,84,84,0,0,1,8.71,6.92,39.27,39.27,0,0,1,7.4,8.64c1.2,2,2.15,4.16,3.38,6.17C248,113.33,244.7,110.64,242,106c-.4-.67-1.49-.16-1.11.55,3.44,6.36,8.36,10.3,15.28,10.88-.14.17-.27.35-.4.53a.75.75,0,0,0,1,1.1,18.83,18.83,0,0,0,2.14-1.58H259a.62.62,0,0,0,.58-.6A7,7,0,0,1,264,115a.86.86,0,0,0,.66-1.43,1.13,1.13,0,0,0,.14-.1l.39-.38a1.76,1.76,0,0,0,3.43.1c1.82-8.24,4.58-16.18,4.4-24.73A66.6,66.6,0,0,0,269.39,68.27ZM251,124.94a22,22,0,0,1-4.77,8.74,32.8,32.8,0,0,0-.37-10.64Q248.43,124,251,124.94Zm-23.23-15.55A19.3,19.3,0,0,1,228.23,90l.42.27c.58.38,1.15.77,1.72,1.15-3.55,5.54-2.51,12.56.19,19.08ZM247,52.82c.18,1,.2,2,.42,2.94.14.63-.82.89-1,.27-.22-1-.24-2-.42-2.94C245.88,52.46,246.85,52.19,247,52.82Zm-2.38-7.59c-.28-.58.59-1.09.86-.5a12.87,12.87,0,0,1,.89,3.06c.13.63-.84.9-1,.27A12,12,0,0,0,244.58,45.23Zm1.81,50.86a.5.5,0,0,1-1-.27,35.73,35.73,0,0,0,1.18-7.49c0-.64,1-.64,1,0A37,37,0,0,1,246.39,96.09Zm1.22-11.66a.5.5,0,0,1-1,0V82.54a.5.5,0,0,1,1,0Zm.21-6.5a.5.5,0,0,1-1,0V74.78a.5.5,0,0,1,1,0Zm-.58-8.6c-.21-3.29-.44-6.58-.84-9.86-.08-.64.92-.63,1,0,.4,3.28.63,6.57.84,9.86C248.28,70,247.28,70,247.24,69.32Zm7.67,46.24a1,1,0,0,0,0-.78c.26.18.53.35.8.51l.07,0a1.31,1.31,0,0,0,0,.4C255.51,115.66,255.2,115.62,254.91,115.56Z"/><path d="M246.47,334.81a381.68,381.68,0,0,0-4.83-44.32c2-2.68,3.3-5.95,4.8-8.91a1,1,0,0,0-.19-1.22c-8.13-23.32-20.86-45.44-41.9-58.42l-.07,0c-.34-.76-.64-1.53-.92-2.31a40.06,40.06,0,0,1-.58-9,1.36,1.36,0,0,0-.8-1.38c0-.09,0-.19,0-.28a2,2,0,0,0-.05-.72,1.4,1.4,0,0,0-1.92-2,47.07,47.07,0,0,1-5.73,2.77,1.33,1.33,0,0,0-.88-.06q-6.44,1.65-12.91,3.22c-.11-.32-.2-.65-.32-1-.84-2.35-4.4-.89-3.58,1.45a56.32,56.32,0,0,1,2.19,11.2h0c0,1.09.12,2.19.24,3.29,0,.39,0,.78.09,1.16a1.07,1.07,0,0,0-.24.11,65.38,65.38,0,0,0-13.88,11.41c-.16.06-.32.13-.47.21-.31.41-.65.79-1,1.18l-.3.41-.72,1c-.55.74-1.11,1.47-1.7,2.18-9.71,12.51-15.6,28-20.09,43.72,2.67,3.27,7.15,4.75,10.84,6.54a2.45,2.45,0,0,1,1.24,2.16c-.35,11.37-.46,22.85-2.13,34.11l.15,0c0,.22-.05.44-.08.66-.63,4.44-1.14,8.89-1.58,13.35q-.48,4.58-.78,9.2l-.05.39a1.47,1.47,0,0,0,0,.4c0,.16,0,.32,0,.47a1.2,1.2,0,0,0,.05.36q-.2,2.52-.36,5a1.21,1.21,0,0,0,.26.83,1,1,0,0,0,.8.92c25.58,5.25,54.24,5.62,79.35-2.3a1,1,0,0,0,.47-.32l1.28-.4a5.64,5.64,0,0,0,4.61-1.84c0,2.49-.08,5-.08,7.49,0,1.07,1.66,1,1.83,0,1.68-10.07,1.13-20.62,0-30.8a159.57,159.57,0,0,0-3.14-24.13.51.51,0,0,0-.17-.29A163.85,163.85,0,0,1,230.41,288a2.55,2.55,0,0,1,1.84-2.41c1.95-.62,3.92-1.17,5.88-1.74,2.78,18,4.51,36.09,6.58,54.18.39,10,.46,20.11,1.13,30.12.07,1,1.73,1.15,1.81.09C248.55,357.23,247.72,345.88,246.47,334.81ZM199.2,237c-4.77,2.92-11.86,2.43-14.42-3-.26-1.61-.55-3.22-.87-4.83s-.6-3.49-1-5.21h.14c-.29-2.29-.67-4.58-1.18-6.82a35.53,35.53,0,0,0,16.34-6,27.48,27.48,0,0,0,2,11.37,21.19,21.19,0,0,0,4.25,9.47A20.65,20.65,0,0,1,199.2,237Z"/><path class="cls-4" d="M199.62,261.93a10.52,10.52,0,0,0-3.1-1.69,12.5,12.5,0,0,0-11.82-.17,11.39,11.39,0,0,0-5.54,6,12.59,12.59,0,0,0-.69,1.22,11.33,11.33,0,0,0-1.11,2.34,10.7,10.7,0,0,0,.16,7.7,10.89,10.89,0,0,0,4.53,7.23,12.33,12.33,0,0,0,8.75,1.87,13.59,13.59,0,0,0,3.86-.52C204.89,283,208.1,268.64,199.62,261.93Z"/><path d="M189.79,270.29a4,4,0,0,0-3.14-3.54c-2-.33-3.75,1.17-4.91,2.66h0a7.57,7.57,0,0,0-2.32,3.94,3.5,3.5,0,0,0,.43,2.65c.28,1.29,1.21,2.2,3.22,2.09a6.38,6.38,0,0,0,4.33-2.32,7.18,7.18,0,0,0,1.68-2.17,4.66,4.66,0,0,0,.36-1.08A5.09,5.09,0,0,0,189.79,270.29Z"/><path d="M199.53,272.37s0-.07,0-.1a7,7,0,0,0-.52-2.4,3.27,3.27,0,0,0-2.25-2.24,2.11,2.11,0,0,0-.53,0,1.94,1.94,0,0,0-1.5.57c-1.84,1-1.74,4.43-.79,6a3.42,3.42,0,0,0,1,1.1,2.31,2.31,0,0,0,2.69.45,2.47,2.47,0,0,0,.41-.27l.23-.15.05,0a3.14,3.14,0,0,0,1.16-2.27s0-.1,0-.14S199.54,272.54,199.53,272.37Z"/><path d="M190.46,276a4.66,4.66,0,0,0-1.41,1.58,2.66,2.66,0,0,0-.24.45,5.5,5.5,0,0,0-.32.91.7.7,0,0,0,1,.82,3.13,3.13,0,0,0,1.66-2.29,6.88,6.88,0,0,0,.24-.7C191.5,276.3,191,275.67,190.46,276Z"/><path d="M193.5,278.9a9.83,9.83,0,0,0-.25-1,3.75,3.75,0,0,0-.51-1.51.47.47,0,0,0-.28-.21.71.71,0,0,0-1,.43,2.79,2.79,0,0,0,.43,2.38.6.6,0,0,0,.2.16,2.64,2.64,0,0,0,.39.38C193,279.93,193.6,279.41,193.5,278.9Z"/><path d="M184.54,283.56c-.89,1.42-1.7,3.25-1.33,5,.12.54.94.72,1.14.13a20.79,20.79,0,0,1,1.5-4.4C186.35,283.43,185,282.76,184.54,283.56Z"/><path d="M187.8,283.85a7.33,7.33,0,0,0-1,5c.16.67,1.2.5,1.29-.12a15,15,0,0,1,.86-4.24C189.3,283.78,188.16,283.16,187.8,283.85Z"/><path d="M191.83,286.59a10.83,10.83,0,0,1,.05-2.1c.1-.86-1.37-1.06-1.53-.2-.24,1.26-.59,3.52.47,4.5a.62.62,0,0,0,1-.14A4.2,4.2,0,0,0,191.83,286.59Z"/><path d="M194.64,283.59a.74.74,0,0,0-1.42.44,12.31,12.31,0,0,0,1.31,4,.69.69,0,0,0,1.2-.37A11.43,11.43,0,0,0,194.64,283.59Z"/><path d="M200.55,286.25a9.1,9.1,0,0,0-1.35-1.81c-.5-.59-1-1.19-1.47-1.8s-1.79.23-1.28,1c.82,1.25,1.75,2.81,3.09,3.56A.76.76,0,0,0,200.55,286.25Z"/><path class="cls-4" d="M209.06,258.36A1.78,1.78,0,0,0,208,257a2.45,2.45,0,0,0-.07-3.39,2.69,2.69,0,0,0-4.34.91,2.66,2.66,0,0,0,.52,3L201.2,261a.48.48,0,0,0-.11.29.6.6,0,0,0,.1.8,2.34,2.34,0,0,0,1.43.63.89.89,0,0,0,.28,0,.67.67,0,0,0,.49-.31l.24-.35,0,0c.69-.81,1.34-1.65,2-2.5a1.69,1.69,0,0,0,1,.93A1.85,1.85,0,0,0,209.06,258.36Z"/><path class="cls-4" d="M209.6,280.66a1.87,1.87,0,0,0-1.92.85c-.93-.76-1.85-1.51-2.76-2.29a.86.86,0,0,0-1.39.55.75.75,0,0,0,.12.93,16.44,16.44,0,0,0,2.94,2.56,1.58,1.58,0,0,0-.47.42l0,0-.07.1a1.54,1.54,0,0,0-.22,1.45,1.69,1.69,0,0,0,2.68.71,1.74,1.74,0,0,0,.52-1.7,1.82,1.82,0,0,0,.65,0,1.65,1.65,0,0,0,.87-.55,1.67,1.67,0,0,0,.31-.38A1.82,1.82,0,0,0,209.6,280.66Z"/><path class="cls-4" d="M178,282l-.06-.18c.07-.43-.37-.92-.81-.76a.74.74,0,0,0-.38.15l-.36.27c-1,.69-2,1.37-2.92,2.15h0a1.72,1.72,0,0,0-.89-1.15,1.76,1.76,0,1,0-1.36,3.23,2,2,0,0,0-.14,1.11,1.88,1.88,0,0,0,.41,1.57c1.06,1.11,2.57.37,3.21-.79a1.91,1.91,0,0,0-.16-2.31,20.59,20.59,0,0,0,2.7-2.18l.58-.45A.67.67,0,0,0,178,282Z"/><path class="cls-4" d="M180.88,261.54a7.74,7.74,0,0,0-2-2.42,2.1,2.1,0,0,0,.42-.63,2.06,2.06,0,0,0-.11-2.58,2.33,2.33,0,0,0-3.88,1,2.08,2.08,0,0,0,0,.87h-.16a1.91,1.91,0,0,0-1.33.83s0,.07,0,.1a1.93,1.93,0,0,0-.19.41l0,0s0,.07,0,.11A1.88,1.88,0,0,0,174,261a1.74,1.74,0,0,0,1.42.51,2,2,0,0,0,.32,0h.05a1.77,1.77,0,0,0,1.27-1,1.9,1.9,0,0,0,.09-.33l.44.47a4.77,4.77,0,0,0,.83,1.06,4.29,4.29,0,0,0,1.15,1,.89.89,0,0,0,.3.1.65.65,0,0,0,.39,0A.81.81,0,0,0,180.88,261.54Z"/><path d="M182.18,260.2c-1.6,1.25-3.48,2.89-4.18,4.85-.16.44.42.71.73.44a26.84,26.84,0,0,0,2.08-2.34,26.34,26.34,0,0,1,2-2C183.39,260.67,182.78,259.73,182.18,260.2Z"/><path d="M205,264.67a15.1,15.1,0,0,0-4.82-4c-.59-.32-1.15.69-.57,1a15.43,15.43,0,0,1,4.3,3.79C204.43,266.12,205.51,265.36,205,264.67Z"/><path d="M204,277c-.85,1.61-1.77,3.19-2.51,4.85-.29.65.74,1.22,1.11.6.93-1.57,1.7-3.26,2.51-4.9A.62.62,0,0,0,204,277Z"/><path d="M180.22,284.1a37.74,37.74,0,0,1-2.75-5,.47.47,0,0,0-.89.26,8.88,8.88,0,0,0,3,5.36C180,285,180.44,284.49,180.22,284.1Z"/><path d="M151.24,319.34c0-.72-1.11-.71-1.34-.12a30,30,0,0,1-3.77,7.79.94.94,0,0,0-.43.24c-1.8,1.77-4.4,2.46-6.16.62a.63.63,0,0,0-.06-.35c-8.55-17.33-16.3-34.46-22.2-52.61a11.11,11.11,0,0,0,6.34-2.64,235.43,235.43,0,0,0,17.64,39,91.88,91.88,0,0,0,4,8.47.61.61,0,0,0,1.1-.52c-.58-1.62-1.26-3.21-2-4.77,0,0,0,0,0-.06a105.85,105.85,0,0,0,1.48-11,62.69,62.69,0,0,0,.89-10,.69.69,0,0,0-1.37-.16c-.84,5.86-1.59,11.73-2.83,17.52-.38-.78-.75-1.56-1.12-2.34a.61.61,0,0,0-.38-.34,328,328,0,0,1-15.81-37.21c.62-.59,1.18-1.18,1.66-1.73a1.63,1.63,0,0,0,.26-1.88c-1.46-2.94-2.9-5.9-4.35-8.85a1.29,1.29,0,0,0-1-.7,1.16,1.16,0,0,0-.4-.31c6.52-3.22,7.3-10.65,6.07-17.25-1-5.61-2.42-11-2.56-16.73s1.82-11.59,1.64-17.33c-.15-4.65-4.39-8.6-8.69-5.38-4.71,3.53-6.24,10.58-5.55,16.79a87.16,87.16,0,0,0-30.79-7.3,118.67,118.67,0,0,0-17.56.28c-3.72.33-9.5.13-12.68,2.62a4.27,4.27,0,0,0-1.56,5.24C51.33,221.49,56,222,59,222.38c9.13,1.3,18.23.75,27.29,1.28-2.18,2.77-5.19,7.39-5.15,10.9-2.33,3.19-4.44,7.3-2.09,11.12a5.7,5.7,0,0,0,1.61,1.7c-1.2,1.66-2.33,3.74-1.21,5.73,1.65,2.94,6.91,2.55,9.68,2.91.88.11,1.91.32,3,.53,4,5.76,12.14,11.72,18.79,6.28.64-.53,0-1.42-.75-1.16-6.15,2.26-11.29-.09-15.29-4.64,2.33.34,4.69.44,6.43-.44,2.74-1.38,3.45-4.55,3.28-7.37a6.27,6.27,0,0,0,2.61-1.86,6.41,6.41,0,0,0,1.54-4.79,13.2,13.2,0,0,0,6.63,8.37.65.65,0,0,0,.75-1c-6.45-6.09-8-15.88-1-22.46.56-.52-.13-1.43-.75-.94a15.71,15.71,0,0,0-2.76,2.8,4.53,4.53,0,0,0-3.05-4,31.91,31.91,0,0,0-8.52-1.48c-7.51-2.74-15.56-2.8-23.49-2.86-4.07,0-8.15,0-12.21-.32a46,46,0,0,1-8.48-1.17q-4.45-.34-1.46-5.41a15.83,15.83,0,0,1,3.66-.71c18.53-2.62,37.59-1,54.78,6.6a19.34,19.34,0,0,0,1.52,4.44c.3.6,1.18.11,1-.48-.21-.77-.39-1.56-.55-2.35-.61-2.24-1.22-4.67-.64-7a19,19,0,0,1,2-8c.61-1.2,1.88-3.86,3.07-4.35,6.78-2.77,4.65,6.68,4.26,9a63.71,63.71,0,0,0-.9,9.29,66.73,66.73,0,0,0,1.65,15.54c1.43,6.6,3.77,15.89-3.89,19.75a.94.94,0,0,0-.5.61.65.65,0,0,0-.67.83c.13.51.26,1,.39,1.52a10.41,10.41,0,0,1-5.94,4c-.24-.89-.49-1.78-.72-2.68-.32-1.25-2.14-.59-1.88.63.17.78.35,1.56.53,2.34l-.28,0c-.75,0-1.6.8-1.28,1.62,1,2.47,1.88,7,4.24,9.1,5.14,18.63,12.72,37.07,23.07,53.15a.85.85,0,0,0-.1,1c1.67,3.06,6.11,4.23,8.65,2a.94.94,0,0,0,.44-.24C149.07,327.1,151.46,323.31,151.24,319.34ZM99.4,254.91c-1.41.35-4.21-.35-5.69-.53l-5.09-.62c-2.22-.26-9.49-.47-6.73-5.72,3.64,1.51,8.91,0,12.42.48,2.67.33,5.61,1.33,8.29,1.15C102.38,251.8,102.08,254.25,99.4,254.91Zm-1.87-8.22a37.73,37.73,0,0,0-5.68-.71c-1.39-.05-2.74.05-4.13.11a18.91,18.91,0,0,1-4.26.12q-3.72-5.26-1.71-9.41a4.21,4.21,0,0,0,1.7,1.58c3.52,1.89,9.11.59,13,1.22,3,.49,6.27,1.63,9.2.53C109.65,247.29,101.69,247.48,97.54,246.69Zm9.91-7.57a8.62,8.62,0,0,0,.89-.86,14.78,14.78,0,0,0,.14,2.8A6.89,6.89,0,0,0,107.45,239.11ZM96,224.78c-.87.68-1.14,1.8-.39,3.56.45,1.05,2.13.56,1.73-.55-1.19-3.28,8.51-1.5,9.62-.84,2,1.2,2.49,3.07,2,5.51-1.23,5.62-6.35,6.06-11.3,5.16a57.65,57.65,0,0,0-9.83-.75c-7.74-.08-2-9.34.22-13.09A74.12,74.12,0,0,1,96,224.78Z"/><path d="M143.55,326.05a9,9,0,0,0-1.79-.79c-.74-.26-1.18.9-.43,1.14a9.63,9.63,0,0,0,1.93.46A.45.45,0,0,0,143.55,326.05Z"/><path d="M143.05,88.29a14.31,14.31,0,0,0-10.88.71c-.77.42-.15,1.49.61,1.32a20.09,20.09,0,0,1,9.79-.24C143.59,90.34,144.07,88.59,143.05,88.29Z"/><path d="M197.18,81c-2.35-5.92-10-6-14.19-2.09-1.23,1.15.67,2.95,1.91,1.8,3.53-3.27,7.86-1.85,10.72,1.38C196.39,83,197.56,82,197.18,81Z"/><path class="cls-4" d="M171.8,294.4a.32.32,0,0,0,0-.64,5,5,0,0,0-5,5.17c.09,2.55,3,4.57,5.1,2.6.32-.3-.12-.91-.49-.63a2.24,2.24,0,0,1-3.26-.66,3.41,3.41,0,0,1-.16-3.08A4.18,4.18,0,0,1,171.8,294.4Z"/><path class="cls-4" d="M179.65,292.06a16.52,16.52,0,0,0-.88,4.62,2.26,2.26,0,0,0-2.47,2,2.07,2.07,0,0,0-.86-1.88,1.9,1.9,0,0,0-2.91,1.26,1.77,1.77,0,0,0,.15,1.42,2,2,0,0,0,3.06.43,1.87,1.87,0,0,0,.55-1.15,2.16,2.16,0,0,0,2.69,2.15.37.37,0,0,0,.25-.35,8.9,8.9,0,0,0,.53,1.35.4.4,0,0,0,.74-.28c-.61-3.29-1-6.08.09-9.3C180.8,291.7,179.85,291.47,179.65,292.06Zm-4.37,7.07a1.22,1.22,0,0,1-1.81,0,1.1,1.1,0,0,1-.08-1.32,1.34,1.34,0,0,1,1.48-.43A1.22,1.22,0,0,1,175.29,299.13Zm3.63,1a1.69,1.69,0,0,1-1.7-1.09,1.42,1.42,0,0,1,1.56-1.71,11.1,11.1,0,0,0,.43,3A.3.3,0,0,0,178.91,300.17Z"/><path class="cls-4" d="M183.67,299.12c0,1.35-1.56.89-1.89,0a1.67,1.67,0,0,1-.07-.4c1.32.1,2.94-.54,2.82-2.07s-2-1.4-2.86-.49c-1,1.12-1.32,3.16-.08,4.24a1.76,1.76,0,0,0,3-1.27C184.53,298.57,183.65,298.55,183.67,299.12Zm-.29-2.78c.37.19.23.76,0,1a2,2,0,0,1-1.61.5,2.82,2.82,0,0,1,.44-.91C182.44,296.67,183,296.13,183.37,296.34Z"/><path class="cls-4" d="M190.67,294.05c-1.4-.12-3,1.15-2.69,2.58-.45,1.48-.24,3.19,1.44,3.8s3.5-.9,3.79-2.54S192.46,294.2,190.67,294.05Zm1.39,3.86a2.12,2.12,0,0,1-2,1.56c-1.88-.26-1.33-2.65-.67-3.73v0a1.35,1.35,0,0,1,1.84-.32A2.32,2.32,0,0,1,192.06,297.92Z"/><path class="cls-4" d="M196.34,296.49h0a1.79,1.79,0,0,0-.63-3.47,3.12,3.12,0,0,0-2,.69.45.45,0,0,0-.62.47h0l-.11.09a.35.35,0,0,0,.17.61c.17,1.95.37,4.35,1.39,5.93.16.25.66.27.66-.12a18.1,18.1,0,0,0-.69-3.42c0-.1,0-.19-.05-.29a4.54,4.54,0,0,0,1.19-.19.39.39,0,0,0,.09.38,8.45,8.45,0,0,1,1.36,1.81c.37.67.57,1.41.91,2.08a.48.48,0,0,0,.91-.21C198.82,299.18,197.53,297.57,196.34,296.49Zm-2.08-.42c-.1-.59-.18-1.18-.26-1.78a3,3,0,0,1,1.13-.55c.69-.14,1.5.13,1.53.92C196.71,295.95,195.33,296,194.27,296.07Z"/><path class="cls-4" d="M208.07,296.33a4.12,4.12,0,0,0-7.06-2.17.32.32,0,0,0,.4.48l.61,2.88a12.5,12.5,0,0,0,.67,2.57.43.43,0,0,0,0,.78C205.55,302.09,208.52,299.16,208.07,296.33ZM203.53,300a10.46,10.46,0,0,0-.44-2.45c-.28-1.16-.56-2.33-.84-3.49a3.31,3.31,0,0,1,4.89,2.75C207.22,299,205.4,299.94,203.53,300Z"/><path class="cls-4" d="M210.65,299.48a2,2,0,0,0-.89-.11s0,0,0,0a13.91,13.91,0,0,0-.8-5.68.36.36,0,0,0-.05-.09l.37,0c.49-.1.3-.75-.12-.8a7.82,7.82,0,0,0-1.28,0,.45.45,0,0,0,0,.9l.35,0a.33.33,0,0,0,0,.23,38.47,38.47,0,0,1,1,5.5.21.21,0,0,0,.06.1,5.48,5.48,0,0,0-.66.2c-.41.15-.19.85.24.74s1.11-.15,1.66-.25A.34.34,0,0,0,210.65,299.48Z"/><path class="cls-4" d="M214.52,297.9a10.88,10.88,0,0,0-2.12.48,15.12,15.12,0,0,0-.38-2,11.47,11.47,0,0,0,1.73-.35.49.49,0,0,0-.17-1,12,12,0,0,0-1.82.32c-.22-.79-.46-1.58-.68-2.34a11.32,11.32,0,0,0,2.44-.34c.38-.11.36-.76-.05-.8a14.9,14.9,0,0,0-3.08.23c-.49.06-.44.82,0,.93a25.88,25.88,0,0,0,1.36,6.1.37.37,0,0,0,.66.05,10.74,10.74,0,0,0,2.24-.48C215,298.55,215,297.85,214.52,297.9Z"/><path class="cls-4" d="M215.57,290.54c-.14-.55-1.08-.32-1,.24a44,44,0,0,0,1.46,6.2c.2.54.95.19.89-.31A44,44,0,0,0,215.57,290.54Z"/><path class="cls-4" d="M217.53,298.42a.55.55,0,0,0-.61-.23l-.09,0a.51.51,0,0,0-.35.59.61.61,0,0,0,.67.76A.7.7,0,0,0,217.53,298.42Z"/><path class="cls-4" d="M281,197.52c0-.46-.79-.53-.82-.05s-.11.52.15.8a.36.36,0,0,0,.5,0C281.13,198,281.05,197.87,281,197.52Z"/><path class="cls-4" d="M104.54,143.67c-.47.11-.81.13-1,.62a.41.41,0,0,0,.18.45h0v0a.84.84,0,0,0,1.45-.72A.53.53,0,0,0,104.54,143.67Z"/><path class="cls-1" d="M134.15,330.05l-.16.16a1.5,1.5,0,0,0,2.12,2.12l.16-.16a1.5,1.5,0,1,0-2.12-2.12Z"/><path class="cls-1" d="M136.12,329.71,130.82,323c-1.09-1.38-3.13.38-2.36,1.82A28.31,28.31,0,0,0,135.1,333c1.46,1.24,3.6-.87,2.12-2.12a26,26,0,0,1-6.17-7.62l-2.36,1.82,5.31,6.74c1.19,1.52,3.3-.62,2.12-2.12Z"/><path class="cls-1" d="M137.75,329.9l-4.36-5.08a1.51,1.51,0,0,0-2.51,1.46,10.33,10.33,0,0,0,3.73,5,1.51,1.51,0,0,0,2.05-.54,1.53,1.53,0,0,0-.54-2.05,6.78,6.78,0,0,1-2.35-3.19l-2.51,1.46,4.36,5.08c1.26,1.47,3.37-.66,2.12-2.12Z"/><path class="cls-1" d="M138.46,330.3l-3.23-5.66c-.83-1.45-3.29-.49-2.74,1.16a13.19,13.19,0,0,0,4,6c1.47,1.23,3.6-.88,2.12-2.12a10.31,10.31,0,0,1-3.25-4.7l-2.74,1.16,3.23,5.66a1.5,1.5,0,0,0,2.59-1.51Z"/><path class="cls-1" d="M131.83,327.08a4.56,4.56,0,0,0,.9,5.25,1.51,1.51,0,0,0,2.36-1.82c-.85-1.86-3.42-3.9-5.52-2.67a2.26,2.26,0,0,0-.5,3.44,3.27,3.27,0,0,0,3.64.65c1.84-.57,1.06-3.46-.8-2.89a3.48,3.48,0,0,0-.63.18h-.11q.42.15,0,.65.13.63-.39.63H131c-.09-.05.15.05.15.05a2.66,2.66,0,0,1,1.35,1.48l2.36-1.82a1.5,1.5,0,0,1-.43-1.62,1.55,1.55,0,0,0-.54-2.05,1.51,1.51,0,0,0-2.05.54Z"/><path class="cls-1" d="M136.55,328.31v-.78l-2.95.4.33,1.11a1.5,1.5,0,1,0,2.89-.8l-.33-1.11a1.51,1.51,0,0,0-2.95.4v.78a1.5,1.5,0,0,0,3,0Z"/><path class="cls-1" d="M137.54,328.39l-.33-1a1.54,1.54,0,0,0-1.85-1,1.51,1.51,0,0,0-1,1.85l.33,1a1.54,1.54,0,0,0,1.85,1,1.51,1.51,0,0,0,1-1.85Z"/><path class="cls-1" d="M137.82,328.41l-.33-1a1.53,1.53,0,0,0-1.85-1,1.52,1.52,0,0,0-1,1.85l.33,1a1.53,1.53,0,0,0,1.85,1,1.52,1.52,0,0,0,1-1.85Z"/><path class="cls-1" d="M137,327.88l-.54-.94a1.53,1.53,0,0,0-1.69-.69,1.5,1.5,0,0,0-1.1,1.45l.32,2.93a1.54,1.54,0,0,0,1.5,1.5,1.51,1.51,0,0,0,1.5-1.5l-.32-2.93-2.8.76.54.94a1.5,1.5,0,0,0,2.59-1.51Z"/><path class="cls-1" d="M130.34,321.66l-2.17-5.91a1.51,1.51,0,0,0-2.89,0,6.9,6.9,0,0,0,1.57,6.9,1.51,1.51,0,0,0,2.51-1.46l-1.48-5.74c-.41-1.59-3.14-1.32-2.95.4a12.55,12.55,0,0,0,2.89,6.81c1.24,1.49,3.35-.65,2.12-2.12a8.94,8.94,0,0,1-2-4.69l-2.95.4,1.48,5.74,2.51-1.46a3.86,3.86,0,0,1-.8-4h-2.89l2.17,5.91c.66,1.8,3.56,1,2.89-.8Z"/><path class="cls-1" d="M126.17,316l2.31,4.95c.82,1.75,3.4.23,2.59-1.51l-2.31-4.95c-.82-1.75-3.4-.23-2.59,1.51Z"/><path class="cls-1" d="M126.43,316l2.3,4.13c.94,1.69,3.53.18,2.59-1.51l-2.3-4.13c-.94-1.69-3.53-.18-2.59,1.51Z"/><path class="cls-1" d="M126.67,314.86l1.81,4.45a1.55,1.55,0,0,0,1.85,1,1.51,1.51,0,0,0,1-1.85l-1.81-4.45a1.55,1.55,0,0,0-1.85-1,1.51,1.51,0,0,0-1,1.85Z"/><path class="cls-1" d="M126.87,315.35l2.31,4.45c.89,1.71,3.48.2,2.59-1.51l-2.31-4.45c-.89-1.71-3.48-.2-2.59,1.51Z"/><path class="cls-1" d="M126.84,314.76l2.23,4.18c.91,1.7,3.5.19,2.59-1.51l-2.23-4.18c-.91-1.7-3.5-.19-2.59,1.51Z"/></g></g></svg>