<?xml version="1.0" encoding="UTF-8" standalone="no"?>
<svg
   xmlns:dc="http://purl.org/dc/elements/1.1/"
   xmlns:cc="http://creativecommons.org/ns#"
   xmlns:rdf="http://www.w3.org/1999/02/22-rdf-syntax-ns#"
   xmlns:svg="http://www.w3.org/2000/svg"
   xmlns="http://www.w3.org/2000/svg"
   xmlns:sodipodi="http://sodipodi.sourceforge.net/DTD/sodipodi-0.dtd"
   xmlns:inkscape="http://www.inkscape.org/namespaces/inkscape"
   viewBox="0 0 386.06 391.08"
   version="1.1"
   id="svg242"
   sodipodi:docname="me.svg"
   inkscape:version="1.0.1 (3bc2e813f5, 2020-09-07)">
  <metadata
     id="metadata246">
    <rdf:RDF>
      <cc:Work
         rdf:about="">
        <dc:format>image/svg+xml</dc:format>
        <dc:type
           rdf:resource="http://purl.org/dc/dcmitype/StillImage" />
        <dc:title>shasha2</dc:title>
      </cc:Work>
    </rdf:RDF>
  </metadata>
  <sodipodi:namedview
     pagecolor="#ffffff"
     bordercolor="#666666"
     borderopacity="1"
     objecttolerance="10"
     gridtolerance="10"
     guidetolerance="10"
     inkscape:pageopacity="0"
     inkscape:pageshadow="2"
     inkscape:window-width="1530"
     inkscape:window-height="845"
     id="namedview244"
     showgrid="false"
     inkscape:zoom="0.6228861"
     inkscape:cx="-92.414195"
     inkscape:cy="436.95519"
     inkscape:window-x="70"
     inkscape:window-y="25"
     inkscape:window-maximized="1"
     inkscape:current-layer="svg242" />
  <defs
     id="defs4">
    <style
       id="style2">.cls-1,.cls-2{fill:#27ae60;}.cls-2{stroke:#27ae60;}.cls-2,.cls-3{stroke-miterlimit:10;}.cls-3{stroke:#000;}.cls-4{fill:#fff;}</style>
  </defs>
  <title
     id="title6">shasha2</title>
  <g
     id="Layer_2"
     data-name="Layer 2">
    <g
       id="Layer_1-2"
       data-name="Layer 1">
      <path
         class="cls-1"
         d="M107.44,335.12c.32-.07.65-.12,1-.18a3.33,3.33,0,0,1-1.52,1.65c9.2-3,16.13-12.34,19-20.49,2.15-1.63,3.18-4.11,2.27-5.58s-3.42-1.32-5.62.32a10,10,0,0,1-1.73.67,44.31,44.31,0,0,0-14.35,4.94l3.33-.95a19,19,0,0,0-4.14,2.51l1.07.31c-5.46,1.83-10.2,7.44-10.65,12.27s3.59,7.2,8.94,5.32Z"
         id="path8" />
      <path
         class="cls-1"
         d="M121.18,335.9c-3,1.21-6,2.36-9,3.47l-.82,0,1.93,1.79-.07-.16a15.13,15.13,0,0,1,2.18-5.36c.55-.9,1.15-1.8,1.8-2.67s1.35-1.7,2-2.52l.87-1.28a2.34,2.34,0,0,0,.08-1.94c-.57-1.17-2.35-1.18-4,0l-1.86,1.34c-5.11,2.62-11.58,8.59-10.79,13.9.2,1.22,1.54,1.75,2.47,2.52,1,1.4,3.59,1.09,5.68-.68s2.93-4.34,1.88-5.75l1.28-.69L114.5,339c-.46-1.64,1.15-3.6,2-5.47.58-.75,1.2-1.46,1.8-2.18l-3.91-2c-.25.45-.48.92-.72,1.39a5.13,5.13,0,0,1,.53.12,59.49,59.49,0,0,1-4.21,7.91l-1.79,3.69c-.23,1.27.63,2,1.94,1.78l1.84-.51-.91.14c3.48-2,6.84-4.37,10.31-6.26a1.61,1.61,0,0,0,1-1.38C122.28,335.79,121.77,335.62,121.18,335.9Z"
         id="path10" />
      <path
         class="cls-1"
         d="M111.48,345.61a3.78,3.78,0,0,0-1.95,1l-.06.5,1.38-.33C111.84,346.58,111.91,346,111.48,345.61Z"
         id="path12" />
      <path
         class="cls-1"
         d="M109.48,347.15l-.58.14.51,0,.05-.09Z"
         id="path14" />
      <path
         class="cls-1"
         d="M241.53,239.66c5.43-2.73,11-5.27,16.44-7.94s11-5.21,16.48-7.83c.37-.17.59-.49.49-.73s-.47-.26-.8-.09c-5.5,2.61-11.06,5.09-16.5,7.79s-11,5.19-16.43,7.93c-.36.2-.56.52-.49.76S241.18,239.83,241.53,239.66Z"
         id="path16" />
      <path
         class="cls-1"
         d="M332.64,222.33c-.18.29-.07.52.27.58a1,1,0,0,0,.88-.39.37.37,0,0,0-.26-.57A1,1,0,0,0,332.64,222.33Z"
         id="path18" />
      <path
         class="cls-1"
         d="M131.34,312.15c-.82-1.49-1.58-3-2.3-4.56a79.32,79.32,0,0,0-16.48,13.46c-.71.54-1.09,1.4-.8,1.88s1.12.46,1.86-.08c3.33-1.6,6.63-2.71,9.93-4.6,2.84-1.68,5.81-3,8.72-4.5C131.94,313.22,131.64,312.68,131.34,312.15Z"
         id="path20" />
      <path
         class="cls-1"
         d="M353,212.88c-.1-.25-.49-.31-.86-.16A224.08,224.08,0,0,0,298,241l-2.89,1.5v0a5.73,5.73,0,0,0-3-1.51c6.17-3.46,12.21-7.14,18.42-10.57,5.4-2.37,10.77-4.77,16.25-7,.79-.32,1.27-1,1-1.57s-1-.65-1.86-.33l-4,1.63a3.75,3.75,0,0,0,.76-3.41,3.34,3.34,0,0,0-2.55-2c2.76-1.74,5.5-3.5,8.2-5.31q2-1.36,4-2.75c1.33-.92,2.67-1.82,4-2.75.31-.21.4-.51.19-.68a.81.81,0,0,0-.92.07c-4.14,1.94-8.11,4.18-12.11,6.32l-6,3.24c-2,1.08-3.94,2.23-5.91,3.33-3.51.87-7,1.7-10.53,2.66a100.4,100.4,0,0,0-10.6,3.63q-3.91,1.61-7.55,3.49c-2.41,1.3-4.74,2.68-7,4.11s-4.51,2.9-6.71,4.4-4.32,3.11-6.46,4.67c-3.48,1.51-6.92,3.09-10.28,4.75a2.53,2.53,0,0,0-.15-2,2,2,0,0,0-.32-.39l8.88-4.62c6.89-3.71,13.72-7.29,20.3-11.19,3.3-1.93,6.63-3.77,9.89-5.72s6.48-4,9.76-5.83c6.53-3.82,12.94-7.84,19.51-11.59,3.27-1.9,6.52-3.86,9.82-5.74l10-5.53c1.75-.85,2.64-2.42,2-3.48s-2.65-1.22-4.4-.37c-3.4,1.35-6.67,2.8-9.88,4.33s-6.28,3.28-9.36,5-6.15,3.51-9.17,5.45L300,211.18c-4.47,2.8-8.57,5.6-12.73,8.26l-6.28,4-6.43,4.21c-2.58,1.67-5.15,3.24-7.73,4.73s-5.09,3-7.66,4.45-5.12,2.86-7.7,4.27-5.13,2.91-7.73,4.4a15.75,15.75,0,0,0-3.2,1.56l-3,2-6.14,3.39q-3.06,1.68-6.14,3.29l-6.17,3.17L213,262.13c4.37-3.35,8.85-6.54,13.24-9.85,2.2-1.65,4.36-3.35,6.53-5s4.35-3.34,6.49-5.06c.64-.45.85-1.11.55-1.48a1.51,1.51,0,0,0-1.78.17c-12.62,8.46-25.21,17-37.58,25.74a21.69,21.69,0,0,0-10.22,1,38.72,38.72,0,0,0-10.8,5.2,29.94,29.94,0,0,0-6.12,5.76l3.37-1.79a32.17,32.17,0,0,0-6.77,7.82c-.25.12-.5.24-.76.39a50.64,50.64,0,0,0-10.46,5.51c-1.7,1.11-3.41,2.24-5.08,3.39l-.35.24a3.39,3.39,0,0,1,0,.69c-.16.93-.31,1.86-.47,2.8a3,3,0,0,1,.17,1.1c0,.2,0,.39,0,.59a3.06,3.06,0,0,1,3.59,3.68c-1.71,6.93-4.23,13.61-6.33,20.43a2.84,2.84,0,0,1-2.65,2.09,2.51,2.51,0,0,1-1,1.48l-.18.18c0,.11,0,.22-.07.33a3.07,3.07,0,0,1-4,2,.88.88,0,0,1-1,.28,3.09,3.09,0,0,1-2.25-2.33s0,0,0-.06l-.47.35a12.3,12.3,0,0,0-2.48,2.49,20.37,20.37,0,0,0-5.57.2c2.65-1.32,5.26-3.27,7.91-4.79a56.2,56.2,0,0,1-4.3-8.81l-1-1.56c-1.83.92-3.66,1.92-5.44,3a67.73,67.73,0,0,0-7.58,5.72,54.15,54.15,0,0,0-6.58,6.77,46,46,0,0,0-5,7.73c-.69.76-.82,1.66-.29,2a1.9,1.9,0,0,0,2.2-.68c2.33-1.57,4.64-3.18,7-4.69a54.67,54.67,0,0,1,7.25-3.91c.21-.08.46.73.93.69.24,0,.47-.06.71-.1a18.85,18.85,0,0,0-1.81,1l-2.16,4.31h0l-.09.22-.5,1,0,0-.11.27-1,.72a1.34,1.34,0,0,0-.62,1,5.37,5.37,0,0,0-.8-.06c-2,1.31-2,1.31-4,2.69a2.1,2.1,0,0,0,.38.29,5.5,5.5,0,0,1-1.25,1.34,13,13,0,0,1-2.5,1.93l1.33-.17-1.06.25.79.48-1-.41.2.81-2.82-.25-.71,1.24a2.73,2.73,0,0,0,0,.61c.16.2.16.2.24,1.36a2.44,2.44,0,0,0,.46.41c.37.06.37.06,1,.61a3.77,3.77,0,0,0,.87,0c.37-.13.47-.17,1.79-.71a4.3,4.3,0,0,0,.06.53c.85,1.27.85,1.27,4.47,2.69a8.86,8.86,0,0,0,2.89-.44c1.49-.93,1.49-.93,3.19-2,0,0,.41-.2,1.07-.58a12.59,12.59,0,0,1,1.63.16h0a2.84,2.84,0,0,0-.57.94c-.32,1,.17,1.68,1.11,1.6.85,2.38,2.72,3.51,5,4.15a4.77,4.77,0,0,0,1.27,2.11,14.67,14.67,0,0,0,2.32,6.48l1.21,1.55a7.76,7.76,0,0,0,5.45.92l.71,0,.72,1.53a30.58,30.58,0,0,0,7.36,1.35,47.39,47.39,0,0,1,7.54,1.11l3,.27a12,12,0,0,0,7.3-1.59l2.56-1.44,1.41-1.14c-1,3.52-.29,6.87,2.17,8.85,2.06,1.63,4.89,2,7.91,1.37a17.3,17.3,0,0,0,8.7-4.89c13.77-11.67,27.43-22.53,41.46-34.52-.49-8.37-.81-16.74-1.26-25.11-.58-10.8-2.65-21.55-2.85-32.33a2.65,2.65,0,0,1,1.46-2.54,2.91,2.91,0,0,1,3.63-1.12c1.71-1.25,4.63-.68,4.79,1.74a3.21,3.21,0,0,1,.3.71c2.71,9.68,3.24,19.69,4.28,29.64.62,6,1.69,11.88,2.75,17.78q3.23-2.67,6.45-5.29l4.14-3.28c1.41-1.05,2.84-2.08,4.28-3.1,2.89-2,5.85-4,8.94-5.91,10.83-8.93,21.07-18.12,31.72-27.39a70.09,70.09,0,0,0,6.1-6.12c1.9-2,3.66-4.16,5.38-6.3l5.1-6.48c1.71-2.18,3.51-4.24,5.4-6.33a.37.37,0,0,0-.1-.63.91.91,0,0,0-.89.3c-13.37,10.43-26.6,20.68-41.45,29.92-1.71,1-3.45,2-5.14,2.93a2.51,2.51,0,0,0-.69.23c-1.66.67-3.31,1.38-4.95,2.09l1.58-1c1.08-.59,1.67-1.68,1.31-2.49a1.34,1.34,0,0,0-.88-.62q1.31-1.16,2.58-2.36l2.56-2.35c1.69-1.58,3.36-3.2,5-4.82a11.06,11.06,0,0,0,2.76-2.51c2.41-1,4.85-1.93,7.28-2.88l7.3-2.85,1.26-.37a4.94,4.94,0,0,0,3.11-3.1,2.17,2.17,0,0,0,0-1.07l14.93-10.15c2.49-1.67,4.94-3.39,7.33-5.17s4.71-3.64,7-5.5c.46-.38.59-.84.35-1.17a1,1,0,0,0,.7-.27,19.59,19.59,0,0,1,3.53-3.1c.27-.27.35-.56.12-.69a.77.77,0,0,0-.9.11,26.72,26.72,0,0,0-3.72,3.25.5.5,0,0,0-.13.42,1.69,1.69,0,0,0-1.35.3c-2.59,1.38-5.07,3-7.54,4.54l-7.34,4.75c-4.87,3.19-9.68,6.48-14.85,9.28,2.24-2,4.57-3.82,7-5.67s4.87-3.73,7.47-5.52c6.24-4.38,11.71-9.17,18.44-12.83.36-.16.51-.49.38-.69a.65.65,0,0,0-.86-.05c-7,3.55-12.89,8.3-18.9,12.8-3,2.24-6,4.62-9.11,6.76a98.61,98.61,0,0,1-10,6c-.56.29-1.13.55-1.7.81,3.42-4.13,6.88-8.1,10.36-12.08,6.45-3.71,13-7.2,19.43-10.9l2.42-1.38,2.44-1.33,4.86-2.7c3.24-1.79,6.42-3.72,9.66-5.5.66-.28,1-.87.85-1.3s-.91-.57-1.57-.29c-4,1.21-8,2.62-12,4l-6,2.06c-2,.71-4,1.48-5.93,2.23l1.35-1.32,1.51-1c4.93-2.29,9.9-4.48,14.81-6.89,1.89-.76,3-2.39,2.63-3.69s-2.3-1.68-4.15-1l.79-.6c.27-.18.39-.52.22-.68a.86.86,0,0,0-.91,0L333,224.94a268.26,268.26,0,0,0-28.64,12.73c4.73-3.15,9.65-6,14.62-8.9,2.48-1.45,5-2.74,7.6-4s5.15-2.56,7.77-3.79a.35.35,0,0,0,.27.57,1.05,1.05,0,0,0,.89-.4.35.35,0,0,0-.26-.57h0c5.64-2.57,11.43-4.83,17.27-7C352.86,213.44,353.08,213.12,353,212.88ZM142.05,367.74l-2-4.82,2.27,4.87Z"
         id="path22" />
      <path
         class="cls-1"
         d="M145.34,300.15a15.71,15.71,0,0,0-3.25,2,34.08,34.08,0,0,0-4.67,1.37q1.39,2.93,2.75,5.86c.6-.39,1.2-.78,1.79-1.2.41-.17.81-.34,1.23-.48l1.28,0C144.72,305.15,145,302.64,145.34,300.15Z"
         id="path24" />
      <path
         class="cls-1"
         d="M144.42,308.18l-1.37.64.59,0-2.83,1.88c.42.91.82,1.83,1.23,2.74a3.18,3.18,0,0,1,.86.89c.28.43.54.87.8,1.31C143.95,313.16,144.18,310.67,144.42,308.18Z"
         id="path26" />
      <path
         class="cls-1"
         d="M135.42,345.35h0l-1.37-.24Z"
         id="path28" />
      <path
         class="cls-1"
         d="M119.71,347.72a2.63,2.63,0,0,0-.82,0Z"
         id="path30" />
      <path
         class="cls-1"
         d="M294,62.45c-.33,0-.68-.08-1-.12a3.58,3.58,0,0,1,2-1.13c-10.06,0-19.88,7.42-25.07,14.5-2.58,1.07-4.27,3.28-3.77,4.93s3,2.12,5.6,1a8.53,8.53,0,0,1,1.88-.2A46.67,46.67,0,0,0,289,80.64h-3.49a19.4,19.4,0,0,0,4.73-1.27l-.94-.6c5.8-.22,12.12-4,14.12-8.5s-1-8-6.84-7.84Z"
         id="path32" />
      <path
         class="cls-1"
         d="M280.68,57.69c3.41-.36,6.74-.55,10.07-.74l.8.27-1.28-2.29v.18c-1.72,3.22-5.72,6-9.44,8.47l-1.26,1a2.4,2.4,0,0,0-.68,1.87c.2,1.3,1.95,1.78,3.89,1.1l2.24-.8c5.87-1.06,14.12-4.77,15.2-10.16.23-1.24-.88-2.16-1.52-3.18-.52-1.67-3.13-2.14-5.8-1s-4.4,3.33-3.84,5l-1.5.29.79-1.05c-.11,1.72-2.36,3.13-3.8,4.67l-2.48,1.63,3.21,3,1.16-1.13a5.28,5.28,0,0,1-.48-.27,61.92,61.92,0,0,1,6.78-6.35l3-3c.67-1.15.09-2.15-1.28-2.3l-2-.05.95.13c-4.11.88-8.28,2.2-12.38,3A1.8,1.8,0,0,0,279.64,57C279.55,57.5,280,57.81,280.68,57.69Z"
         id="path34" />
      <path
         class="cls-1"
         d="M293.62,51.12a4.15,4.15,0,0,0,2.28-.43l.23-.46-1.47-.09C293.61,50.08,293.33,50.63,293.62,51.12Z"
         id="path36" />
      <path
         class="cls-1"
         d="M296.14,50.23l.61,0-.49-.2-.08.07Z"
         id="path38" />
      <path
         class="cls-1"
         d="M114.32,151q-4.23,2.22-8.43,4.49c-.38.2-.59.54-.48.77s.49.23.83,0q4.1-2.21,8.23-4.36C114.41,151.58,114.36,151.27,114.32,151Z"
         id="path40" />
      <path
         class="cls-1"
         d="M45,165.22c.16-.32,0-.54-.35-.53a1.15,1.15,0,0,0-.89.57.35.35,0,0,0,.36.52A1.15,1.15,0,0,0,45,165.22Z"
         id="path42" />
      <path
         class="cls-1"
         d="M113.67,141.84c-26.5,15.41-49.16,34.16-72.12,52.9-1.63,1.21-2.27,2.95-1.4,3.84s2.92.66,4.54-.55c3.2-2,6.27-4.13,9.26-6.3s5.93-4.35,8.83-6.62c5.78-4.56,11.51-9.27,17.53-14.16,4.28-3.5,8.38-6.67,12.5-9.82s8.29-6.25,12.79-9.47c2.72-2,5.45-3.78,8.18-5.53Q113.64,144,113.67,141.84Z"
         id="path44" />
      <path
         class="cls-1"
         d="M284,72.46c-3.72.64-7.3.83-11.12,1.78-7,1.75-13.86,2.75-20.7,5.32,0,1.29.09,2.58.14,3.88,0,.72,0,1.43,0,2.14,10.39-.57,22.25-5.45,32.13-11.09.86-.33,1.48-1.06,1.34-1.61S284.9,72.14,284,72.46Z"
         id="path46" />
      <path
         class="cls-1"
         d="M131,60.1c-1,.18-2.06.3-3.1.4l.74.1c.79-.13,1.59-.23,2.39-.31A1.22,1.22,0,0,1,131,60.1Z"
         id="path48" />
      <path
         class="cls-1"
         d="M173.55,54A15.13,15.13,0,0,1,169.44,53c-5.57-.13-12.27-3.24-15.74-7.46-1.75-.58-3.53-1.07-5.33-1.51l-1.44.94c-3.11,2.08-6.18,4.13-9.25,6.15.37.33.74.66,1.1,1a9.41,9.41,0,0,1,4,3.57,1,1,0,0,1,0,.09c.47.35.93.72,1.37,1.11,1,.86-.46,2.27-1.41,1.41-.44-.4-.91-.77-1.38-1.12h-.15a.82.82,0,0,1-.59,0,18.88,18.88,0,0,1-7.87-2.87l-3.59,2.28c2.64.13,5.08.92,6.56,2.83a1.25,1.25,0,0,1,.25.91l.76.05a1,1,0,0,1,.21.07c.34,0,.69,0,1,.09a1,1,0,0,1,0,2l-2.54.28a1,1,0,0,1-1-.41c-6.22.24-11.95,3-17.72,5.39a.94.94,0,0,1,0,.14.87.87,0,0,1-.16.51c-.91,1.33-3.65,1.75-5,2.45a24.31,24.31,0,0,0-2.88,1.78l-.71.65a1,1,0,0,1-.45.24c-2.07,1.82-4,3.88-5.79,5.85a.86.86,0,0,1-.68.3,36.53,36.53,0,0,0-3.69,6.06c-.57,1.16-2.29.14-1.73-1,.35-.72.73-1.42,1.12-2.11a.91.91,0,0,1,.13-.54,56,56,0,0,1,4.17-6.33c-8.64,6.9-17,14-25.16,21.44a90.31,90.31,0,0,0-7.06,7.17c-2.14,2.45-4.11,4.94-6,7.43-3.8,5-7.31,10-11.3,15a.36.36,0,0,0,.15.63,1.18,1.18,0,0,0,1-.48C67,113.8,81.88,101.11,99.33,90.31c2-1.23,4-2.41,6-3.49a3.41,3.41,0,0,0,.8-.28c1.94-.8,3.86-1.63,5.78-2.46L110,85.19c-1.27.68-2,1.84-1.69,2.66a1.29,1.29,0,0,0,.95.59c-4.2,3.38-8.1,7-12,10.7A14.37,14.37,0,0,0,94.11,102c-5.52,2.41-10.92,5.09-16.43,7.61l-1.42.54a6,6,0,0,0-3.48,3.62,2.12,2.12,0,0,0,0,1.11c-10.87,8.54-22.09,16.88-31.31,26.54-.47.49-.57,1-.27,1.28a1.24,1.24,0,0,0-.74.43A24.68,24.68,0,0,1,36.93,147c-.26.33-.32.64-.05.72a.94.94,0,0,0,1-.31,33.71,33.71,0,0,0,3.73-4.11.53.53,0,0,0,.1-.46,2.13,2.13,0,0,0,1.44-.59c5.36-4,10.51-8.16,15.69-12.32s10.48-8.15,16.12-11.85c-4.87,4.72-10.12,9.07-15.57,13.75-6.58,5.65-12.26,11.42-19.13,16.66-.38.24-.51.6-.34.78a.76.76,0,0,0,.94-.13c14.31-10.32,24.55-23.31,40.29-32.59.62-.36,1.25-.7,1.88-1-3.84,4.59-7.51,9.22-11.18,13.8-14,9.3-27.46,19.16-40.37,29.5-.67.44-1,1.13-.74,1.52s1.05.36,1.72-.08L57.31,147.1,56,148.67l-1.55,1.22c-5.11,3.2-10.15,6.53-15.16,9.93-1.95,1.15-3,3-2.34,4.26s2.67,1.18,4.57.12l-.77.76c-.27.24-.35.59-.15.72a1,1,0,0,0,1-.21l2.69-2.8c10-5.65,19.71-11.75,29.41-17.91-4.89,3.85-9.84,7.68-14.91,11.36S48.55,163.48,43.31,167c.13-.27,0-.53-.36-.52a1.24,1.24,0,0,0-.89.57c-.16.32,0,.53.36.52h0c-5.62,3.76-11.32,7.43-17.17,10.9-.35.19-.52.56-.37.77s.57.2.94,0a480.59,480.59,0,0,0,54.55-38.65l3-1.91v0a5.78,5.78,0,0,0,3.29,1.17c-6.4,4.36-12.76,8.7-19,13.27-5.53,3.26-11.07,6.51-16.56,9.86-.8.48-1.23,1.25-.92,1.78s1.15.45,2,0l4.06-2.42a3.81,3.81,0,0,0-.4,3.6,3.25,3.25,0,0,0,2.9,1.55c-5.34,4.55-10.6,9.09-15.43,14-.29.28-.34.6-.09.72a.89.89,0,0,0,.93-.26l11.71-8.66c3.87-2.9,7.73-5.81,11.66-8.63,3.6-1.41,7.17-2.77,10.76-4.26s7.21-3,10.87-4.93c2.66-1.38,5.21-2.85,7.69-4.38s4.89-3.09,7.25-4.72c3.29-2.28,6.47-4.65,9.64-7,0-.13,0-.25,0-.38-1.59-10-.94-20.07,3.45-29.51a82.2,82.2,0,0,1,3.23-17.1c3.14-10.58,8.29-21.9,17-29,3.09-2.53,7.07-3.57,10.6-2.29a9.51,9.51,0,0,1,7.55.2,45.52,45.52,0,0,1,6.2-4.5l.08,0a.91.91,0,0,1,.17-.92,18.73,18.73,0,0,0-3.79-.83h0c.46.1.91.21,1.36.35a1,1,0,0,1-.53,1.93l-.74-.19a1,1,0,0,1-.5,0c-1.41-.28-2.83-.57-4.26-.74-1.25-.16-1.3-2.11,0-2l1,.1a1,1,0,0,1,.72-1.15c2.47-.78,5-.06,7.4.62a.94.94,0,0,1,.67,1.17c2.27-.73,4.95-.11,7.14.54a.93.93,0,0,1,.69.85c.24.14.47.28.7.44a25.82,25.82,0,0,1,4.57-2.26A8.48,8.48,0,0,1,173.55,54Z"
         id="path50" />
      <path
         class="cls-1"
         d="M297.89,47.1a2.3,2.3,0,0,0-.31-.53c-.34-.16-.34-.16-.73-.88a3.82,3.82,0,0,0-.86-.25c-.41,0-.52,0-2,.16a4.43,4.43,0,0,0,.13-.53c-.38-1.49-.37-1.49-3.45-3.93a9.4,9.4,0,0,0-3.05-.41c-1.84.48-1.84.48-3.94,1.07,0,0-.48.08-1.29.26a13.34,13.34,0,0,1-1.59-.62h0a3.29,3.29,0,0,0,.92-.76c.68-.85.44-1.69-.54-1.87,0-2.56-1.46-4.2-3.54-5.45a4.39,4.39,0,0,0-.51-2.42,14.14,14.14,0,0,0,.09-7l-.64-1.86a7.89,7.89,0,0,0-5.3-2.39l-.75-.17-.15-1.71C266.21,15,260.12,14,255.53,11.61l-3.07-.95a14.76,14.76,0,0,0-8.51,0l-3.34.89c-.66.28-1.31.56-2,.86,2.4-3.36,2.95-6.87,1-9.41-3.24-4.17-12.13-4-19.81.53-15.77,7.81-31,15.68-46.2,24.59l.08,0A40.67,40.67,0,0,1,190,42c.66.52,1.31,1,2,1.56a2.42,2.42,0,0,1,1,2.23,3.69,3.69,0,0,1,.27.88l.27-.06a19.87,19.87,0,0,1,12.18,1.53,17.82,17.82,0,0,1,9.09,5c4.71,5,2.86,11.38-1.22,14.8l0,.15c4.57,1.42,8,6,7.54,10.69,5.19-4.43,14.76-3,16.42,4.28a10,10,0,0,1,6.95,4.1,12.08,12.08,0,0,0,2-.26c.16-4.21-.56-8.57-.66-12.7-.14-6.13,1.94-13.78-1.18-19.44-.75-1.37-4.06-5.82-5.18-9.33a35.78,35.78,0,0,0-5-2.84,3,3,0,0,1-1.08-4.1,2.82,2.82,0,0,1,1.32-1.17,2.76,2.76,0,0,1,.09-.68,2.84,2.84,0,0,1,.67-1.19A2.8,2.8,0,0,1,239.59,34a25.53,25.53,0,0,1,3.19,2.39A13.1,13.1,0,0,1,245,38.31a15.11,15.11,0,0,1,4.22,4.05,2.37,2.37,0,0,1,.41,1.14,11.25,11.25,0,0,1,2.89,4.29,3,3,0,0,1-2.1,3.69,2.92,2.92,0,0,1-.8.1l.12.17c2.19,3.66,2.43,8.59,2.37,12.87,2.85-1,5.69-2.13,8.57-3.37a17.38,17.38,0,0,0,3.27-1.85,22.29,22.29,0,0,0,5.69,1.24c-3.1.61-6.41,1.82-9.53,2.77-2.71.8-5.37,1.62-8,2.45C252,70,252,74,252.14,78c2.42-.87,4.84-1.72,7.27-2.53a75.86,75.86,0,0,0,9.35-2.33A73.59,73.59,0,0,0,278,69.6a58.71,58.71,0,0,0,16-10.72c.94-.52,1.37-1.36,1-1.89s-1.48-.52-2.39,0c-5.66,1.62-11.31,3.48-16.91,4.32-.23,0-.23-.83-.71-.92-.24,0-.49-.07-.74-.09a21,21,0,0,0,2.13-.54l3.54-3.65h0l.16-.19.82-.84,0-.06.2-.23,1.25-.4a1.47,1.47,0,0,0,1-.79,5.65,5.65,0,0,0,.77.29c2.41-.69,2.41-.69,4.87-1.45a2,2,0,0,0-.28-.39,6.18,6.18,0,0,1,1.71-.92A14.52,14.52,0,0,1,293.5,50l-1.37-.23,1.14.07-.61-.7.82.68.09-.84,2.69,1.08,1.14-1a2.88,2.88,0,0,0,.22-.59C297.54,48.25,297.54,48.25,297.89,47.1ZM270.61,20.74l.23.12.26,5.29Z"
         id="path52" />
      <path
         class="cls-1"
         d="M269.53,44.68h0l1.31.59Z"
         id="path54" />
      <path
         class="cls-1"
         d="M286.21,46.67a2.78,2.78,0,0,0,.82.23Z"
         id="path56" />
      <path
         class="cls-1"
         d="M13.69,238.67c.41-.22.84-.4,1.24-.61a8.12,8.12,0,0,1-2.09,2.68,51.88,51.88,0,0,0,8.49-6.67,90.5,90.5,0,0,0,7.5-8.3,92.67,92.67,0,0,0,11-17.68c3-2.75,4.81-6.16,3.92-7.67s-4.14-.48-7.27,2.31a23.14,23.14,0,0,1-2.33,1.43,65.61,65.61,0,0,0-9.37,4.68,99.12,99.12,0,0,0-9.69,6.72l4.35-2.46a42.72,42.72,0,0,0-5.62,4.72c.42,0,.89,0,1.31,0C8,222.21,1.2,231.16.16,237.55s3.64,7.66,10.45,3.09C11.64,240,12.64,239.3,13.69,238.67Z"
         id="path58" />
      <path
         class="cls-1"
         d="M30.79,234.39c-4,2.64-7.77,5.22-11.69,7.76l-1,.28,2.18,1.49-.07-.18a29,29,0,0,1,3.42-7.54c.8-1.33,1.68-2.69,2.61-4s1.94-2.63,2.92-3.9l1.28-1.93a3.15,3.15,0,0,0,.38-2.46c-.55-1.26-2.78-.61-5,1.44l-2.54,2.37A59.07,59.07,0,0,0,12.93,238.1c-3,4-5,8.19-4.82,11.39.11,1.46,1.71,1.58,2.78,2.17C12,253,15.2,251.58,18,248.49s4.15-6.6,3-8l1.69-1.35L22,240.82c-.36-1.88,1.91-5,3.2-7.61.82-1.17,1.71-2.27,2.57-3.41l-4.64-1c-.38.66-.73,1.34-1.1,2a5.71,5.71,0,0,1,.64-.05,128.77,128.77,0,0,1-6.32,11.54l-2.61,5.4c-.42,1.7.56,2.32,2.2,1.46l2.31-1.39-1.14.55c1.12-1,2.24-2,3.36-3l3.42-3c2.28-2,4.55-4,6.83-5.83a3.38,3.38,0,0,0,1.44-2.09C32.18,233.85,31.57,233.81,30.79,234.39Z"
         id="path60" />
      <path
         class="cls-1"
         d="M17.51,250.32a8,8,0,0,0-2.51,2.1l-.12.65,1.73-1C17.85,251.39,18,250.62,17.51,250.32Z"
         id="path62" />
      <path
         class="cls-1"
         d="M14.88,253.07l-.72.41.63-.15.07-.14Z"
         id="path64" />
      <path
         class="cls-1"
         d="M269.36,79.43q-8.55,2.29-17,4.82c0,.31,0,.62,0,.93q8.51-2.55,17.09-4.88c.6-.16,1-.48,1-.73S269.91,79.27,269.36,79.43Z"
         id="path66" />
      <path
         class="cls-1"
         d="M352.82,86.27c-.39.24-.34.5.11.62a2.09,2.09,0,0,0,1.43-.2c.33-.21.27-.52-.11-.62A2.09,2.09,0,0,0,352.82,86.27Z"
         id="path68" />
      <path
         class="cls-1"
         d="M381.08,57.72c-.43-1.2-3.22-1.88-6.16-1.52C352.74,57.95,332.7,63,311.34,69.58,296.14,74.29,283,78.7,268.12,84.25c-5.44,2-10.77,4-16,5.88a25.29,25.29,0,0,1-.91,4.2c19.75-6.66,39.08-13,58.59-18.53,21.91-6.23,44-11.65,66.78-15.24C379.47,60.19,381.51,58.91,381.08,57.72Z"
         id="path70" />
      <path
         class="cls-1"
         d="M113.81,146.42c-1.14,1-2.25,2-3.32,3.08l3.41-1.95C113.86,147.18,113.83,146.8,113.81,146.42Z"
         id="path72" />
      <path
         class="cls-1"
         d="M164.78,210.69c-.84-.3-1.65-.65-2.46-1a35.79,35.79,0,0,1-13.65-4.9c-7.41-3.28-14-8.26-17.29-14.6a34.05,34.05,0,0,1-6-8.45c-5-7-8.75-14.69-9.17-22.47a60.34,60.34,0,0,1-2.28-11.39,73.14,73.14,0,0,0-9.6,9.52c-.37.2-.74.4-1.11.64A93.94,93.94,0,0,0,87.9,167.1c-2.51,1.78-5,3.56-7.52,5.41s-4.94,3.67-7.43,5.39l1.67.72c-2,1.1-3.63,1.14-5.66,2.53l2.29-.41-.12.08a29.65,29.65,0,0,0-7.66,4.91,57,57,0,0,0-5.34,2.49c-1.78,1-3.59,2-5.4,3.18s-3.65,2.38-5.48,3.69-3.59,2.76-5.38,4.22-3.56,3-5.31,4.56-3.41,3.24-5.07,4.91-3.29,3.36-4.88,5.05-3.06,3.48-4.51,5.22c-1,.95-1.58,2.17-1.29,2.66s1.35.16,2.35-.8c2.22-1.62,4.39-3.11,6.6-4.6s4.47-3,6.73-4.73C44.91,205,53.62,199.92,62,193.1c.56-.33,1.11-.66,1.69-1l3-.73-.31.23c-1,.64-2.09,1.27-3.12,1.93l.75-.15q-5.49,4.34-11,8.59c-3.74,2.44-7.54,5.15-11.26,8.12a140.36,140.36,0,0,0-10.61,9.75,117.82,117.82,0,0,0-9.25,10.94,90.78,90.78,0,0,0-7.22,11.63c-.94,1.24-1.2,2.45-.58,2.71s1.89-.55,2.79-1.76c3.1-2.89,6.22-5.78,9.33-8.56a111.32,111.32,0,0,1,9.64-7.58c.27-.18.47.74,1.07.51.3-.11.6-.24.9-.38-.78.59-1.59,1.24-2.42,2l-3.32,6.17h0l-.15.3-.76,1.42.05,0-.17.38L29.73,239a2.76,2.76,0,0,0-.9,1.49,7.2,7.2,0,0,0-1,.23c-2.63,2.39-2.63,2.39-5.29,4.88a1.48,1.48,0,0,0,.44.22,14.86,14.86,0,0,1-1.71,2.17A29.36,29.36,0,0,1,18,251.39l1.65-.75-1.33.75.92.29-1.16-.12.16.94-3.45.83-1,1.86a3.75,3.75,0,0,0-.07.77c.18.19.18.19.15,1.62a1.65,1.65,0,0,0,.53.32c.45-.08.45-.08,1.13.37a5.4,5.4,0,0,0,1.07-.36c.47-.32.59-.4,2.27-1.61a5,5,0,0,0,0,.65c.91,1.26.92,1.25,5.2,1.6a14.46,14.46,0,0,0,3.59-1.71c1.94-1.75,1.89-1.8,4.14-3.8,0,0,.53-.4,1.4-1.13a16.28,16.28,0,0,1,2-.41h0a5.92,5.92,0,0,0-.83,1.39c-.52,1.33,0,2,1.18,1.57.77,2.63,2.94,3.34,5.67,3.3a3.48,3.48,0,0,0,1.32,2.15,12.5,12.5,0,0,0,2.12,7.16L46,268.52c1.63.6,4,.31,6.6-.86l.88-.28.72,1.62a36,36,0,0,0,8.88-1,54.29,54.29,0,0,1,9.13-1.25l3.6-.68a15.59,15.59,0,0,0,4.42-1.41,27.14,27.14,0,0,0,4.82-2.89l3.38-2.54c.64-.61,1.26-1.22,1.92-1.82-1.76,4.57-1.33,8.38,1.45,10,3.37,1.89,9.23.16,15-3.83a15.3,15.3,0,0,1-7.64-2.33,11.85,11.85,0,0,1-5.53-4.88,3.17,3.17,0,0,1-.27-.66c-3.94-.25-8.08-.82-11.62-2.59-2.18-1.09-1.81-4.94.61-5.45.08-.32.19-.64.29-1a3.49,3.49,0,0,1-.83-1.1l-.14-.19c-1.87-2-3.88-4.71-2.31-7.33a4.35,4.35,0,0,1,3.67-2c.16-.21.33-.42.5-.62a10.46,10.46,0,0,1,3.33-10.16A11.66,11.66,0,0,1,89.21,223c-11.64-.78-23.23-2.33-34.91-2.42a2.79,2.79,0,0,1-2-.81l-.2.19q-.88,1-1.66,2a31.49,31.49,0,0,0-7.1,2.15c2.68-1.89,5.38-4.23,8.1-6.43a2.9,2.9,0,0,1,1.77-2.92,2.29,2.29,0,0,1,1.14-.94,2.61,2.61,0,0,1,1.43-.79c.71-.15,1.43-.26,2.14-.37l2.41-1.85c2-1.53,4-3,6-4.48l-1.18,1.3c-.36.44-1.24,1.13-.33,1.23l-2.75,2.17-1.6,1.36c.87-.07,1.73-.11,2.6-.13l.54-.11a2.34,2.34,0,0,1,2.75-1.89c8.34,1,16.83,1.11,25,2.8,7.33.25,15.49.4,21.22,4.51a28.22,28.22,0,0,1,2.32-8.92,3.15,3.15,0,0,1,1.26-1.44c0-.1,0-.19,0-.29a13.41,13.41,0,0,1,1.17-3.31,2.49,2.49,0,0,1,2.19-1.44l.44-.46a3,3,0,0,1,5,2.92c-.32,1.14-.62,2.27-.89,3.41q-.08.85-.16,1.71c0,.32,0,.64-.07,1a106.93,106.93,0,0,1-.58,17.1,34.14,34.14,0,0,1,2.16,11.07,29.93,29.93,0,0,1,.83,7.46q8.92-7.74,18.12-15.14c8.22-6.58,16.65-13,25.34-19.47A20,20,0,0,1,164.78,210.69ZM53,266.2l-.29,0L50.74,261Z"
         id="path74" />
      <path
         class="cls-1"
         d="M96.29,223.67c.14.2.29.4.42.6a2.94,2.94,0,0,1,1.87.36,8.82,8.82,0,0,1,.78.5,5.25,5.25,0,0,1,.72-.11l-.8-.4-.43-.15C98,224.2,97.14,223.93,96.29,223.67Z"
         id="path76" />
      <path
         class="cls-1"
         d="M324.31,120.07a1.87,1.87,0,0,0-1.36.19c-11.5,4.24-22.81,8.95-34.21,13.65l-21.56,9c-.36.61-.71,1.21-1,1.82a2.59,2.59,0,0,1-2.85,1.42,31.25,31.25,0,0,1-5.32,4.38,2.83,2.83,0,0,1-1.27,1.5c-2.31,1.38-4.67,2.68-7,3.94a57,57,0,0,1-7,4q-2,4.28-4.32,8.45c0,.19,0,.37,0,.56,14.92-8.62,29.81-16.75,45.3-24.61,15.22-7.6,26.43-16.28,40.52-23.64C324.6,120.51,324.58,120.22,324.31,120.07Z"
         id="path78" />
      <path
         class="cls-1"
         d="M384.92,81.54C354,82.85,323.67,89.6,295.66,99.87L291,101.19v0a6.6,6.6,0,0,0-3.64-1.82L294.9,97c2.52-.79,5.07-1.48,7.6-2.23s5.06-1.51,7.62-2.19l7.67-2.06c8.65-1.68,17.35-3.1,26.1-4.34,1.26-.18,2.25-.77,2.19-1.38s-1.15-.83-2.48-.66l-6.45.92c1.66-1,2.66-2.15,2.61-3.28s-1.09-1.93-2.73-2.45c4.71-1.25,9.4-2.56,14.1-3.72l7-1.86,7-1.8c.54-.14.81-.41.59-.62a1.6,1.6,0,0,0-1.34-.14c-13.63,2.06-26.93,4.91-40.1,8.19-5.4.24-10.7.74-16.14,1.25-2.72.23-5.43.67-8.2,1.06s-5.58.86-8.43,1.47c-14.91,3.09-28.4,8.28-41.43,14.08-.13.27-.24.55-.39.82a2.65,2.65,0,0,1-3.77,1.13c0,.25-.05.5-.08.76a9.05,9.05,0,0,1,7.57,9.42,83.61,83.61,0,0,1-.56,8.42c.11,1.84.1,3.68,0,5.51a2.26,2.26,0,0,1,2.41-.61,13.9,13.9,0,0,1,6.32-4.7,10.8,10.8,0,0,1,.92-.58,3.05,3.05,0,0,1,3.75-2.49,8.87,8.87,0,0,1,3.63,1.63,2.52,2.52,0,0,1,2.77,2.14c0,.19.07.38.1.58a3.06,3.06,0,0,1,2.88,2.85,19.24,19.24,0,0,1-1.86,9.39,2.56,2.56,0,0,1-.22,2.65l-.19.28,1.48-.36,5.57-1.35,5.62-1.2,1.88-.29c2.45-.53,4.63-1.71,5.53-3a2.08,2.08,0,0,0,.46-1.1c16.39-6.32,33.5-11.31,49.45-17.21.81-.3,1.2-.73,1-1.11a2.05,2.05,0,0,0,1.09-.15,33.5,33.5,0,0,1,6.31-2.41c.49-.2.74-.48.47-.65a1.49,1.49,0,0,0-1.32-.09,47.91,47.91,0,0,0-6.65,2.55.62.62,0,0,0-.37.4,3.48,3.48,0,0,0-2,.05c-16.93,3.87-32.7,9.87-49.26,14.94a246,246,0,0,1,24.73-9.91c2.64-.91,5.23-1.85,7.79-2.79l7.7-2.62a154.69,154.69,0,0,1,15.87-4.49c.58-.09.93-.39.84-.62s-.61-.36-1.18-.21A150.88,150.88,0,0,0,332,107.16c-2.65.86-5.27,1.69-7.86,2.63l-7.74,2.86c-2.58.92-5.14,1.95-7.72,2.93s-5.18,1.92-7.81,2.88c-5.23,2-10.64,3.69-16.28,5.41-.89.26-1.79.49-2.68.71,6.39-4.06,12.79-7.89,19.28-11.68,5.3-1.44,10.56-3.06,15.89-4.38l8-2.1,8-1.94,4-1,4-.9,8-1.83,8-1.67,4-.85c1.34-.28,2.68-.51,4-.78,1.06-.12,1.87-.61,1.8-1.08s-1-.76-2.07-.65c-12.4.68-24.9,1.74-37.33,3.59l2.48-1.1,2.54-.71c4-.81,8-1.38,12-2.1s8-1.29,12-2c3-.34,5.38-1.7,5.4-3.06s-2.48-2.16-5.42-1.88l1.39-.42c.47-.12.78-.43.63-.62a1.66,1.66,0,0,0-1.3-.17l-5,1.6a327.68,327.68,0,0,0-46,8.23,297.91,297.91,0,0,1,49.78-11.9c-.33.21-.33.5.12.62a2.27,2.27,0,0,0,1.44-.2c.38-.24.28-.52-.11-.62h0c2.29-.37,4.59-.64,6.89-.89l6.92-.75c4.62-.45,9.28-.68,13.93-1,.54,0,1-.27,1-.53S385.52,81.49,384.92,81.54Z"
         id="path80" />
      <path
         class="cls-1"
         d="M47.28,240.94h0l-1.67.19Z"
         id="path82" />
      <path
         class="cls-1"
         d="M27.4,249.7a4,4,0,0,0-1,.33Z"
         id="path84" />
      <path
         class="cls-1"
         d="M310.61,195.66c-.36,0-.73,0-1.08.07a4.19,4.19,0,0,1,2-1.52c-10.63,1.82-20.09,11.26-24.69,19.39-2.58,1.59-4.09,4.15-3.36,5.72s3.41,1.55,6,0a9.44,9.44,0,0,1,2-.57,53.05,53.05,0,0,0,16.05-3.77l-3.66.65a22.53,22.53,0,0,0,4.81-2.18L307.6,213c6.07-1.32,12.28-6.27,13.87-11.19s-2-7.92-8.1-6.64Z"
         id="path86" />
      <path
         class="cls-1"
         d="M296,193.35c3.55-1,7.05-1.83,10.55-2.65l.88.12-1.62-2.07,0,.18c-1.45,3.58-5.36,7.11-9,10.33l-1.21,1.27a2.5,2.5,0,0,0-.5,2c.37,1.27,2.26,1.43,4.23.36l2.26-1.24c6.06-2.18,14.33-7.45,14.86-13.09.1-1.29-1.18-2-2-2.93-.73-1.59-3.54-1.57-6.24,0s-4.26,4.18-3.49,5.76l-1.55.57.72-1.21c.08,1.75-2.13,3.59-3.47,5.43-.82.69-1.62,1.41-2.42,2.12l3.73,2.39,1.09-1.36a5.33,5.33,0,0,1-.54-.18,71.14,71.14,0,0,1,6.43-7.67l2.85-3.61c.57-1.29-.14-2.19-1.61-2.08l-2.1.32,1,0c-4.24,1.66-8.49,3.77-12.73,5.37a2.08,2.08,0,0,0-1.38,1.38C294.82,193.38,295.33,193.61,296,193.35Z"
         id="path88" />
      <path
         class="cls-1"
         d="M308.94,184.29a4.82,4.82,0,0,0,2.36-.86l.19-.51-1.56.19C308.81,183.24,308.58,183.85,308.94,184.29Z"
         id="path90" />
      <path
         class="cls-1"
         d="M311.5,182.92l.65-.08-.54-.11-.08.09Z"
         id="path92" />
      <path
         class="cls-1"
         d="M136.64,322.44q-4.8,3.92-9.55,7.9c-.36.3-.53.69-.37.9s.55.11.87-.18c3.16-2.62,6.31-5.24,9.48-7.82Z"
         id="path94" />
      <path
         class="cls-1"
         d="M160.42,304.49c-.15-.21-.54-.17-.89.09q-2.22,1.62-4.42,3.29c-.15.51-.31,1-.46,1.51,1.77-1.35,3.54-2.69,5.33-4C160.36,305.1,160.53,304.71,160.42,304.49Z"
         id="path96" />
      <path
         class="cls-1"
         d="M65.8,355.85c.11-.37-.09-.55-.46-.44a1.36,1.36,0,0,0-.82.81c-.09.31.14.53.46.43A1.35,1.35,0,0,0,65.8,355.85Z"
         id="path98" />
      <path
         class="cls-1"
         d="M112.91,262.62a15.82,15.82,0,0,1-12.88-.8c-4.65,5.59-9.18,11.25-13.6,17.07a106.56,106.56,0,0,0-6.23,9.06c-1.83,3-3.47,6.07-5,9.09-3.14,6-6,12.05-9.25,18.19-.2.35,0,.58.26.59a1.41,1.41,0,0,0,.93-.74c12.67-17,26.15-33.75,42.76-49,1.11-1,2.22-2,3.34-3Z"
         id="path100" />
      <path
         class="cls-1"
         d="M134.1,316.8l-1.22-2c-25,22-45.15,46.78-65.28,71.8-1.46,1.66-1.79,3.58-.74,4.25s3.12-.12,4.57-1.76c2.92-2.9,5.69-5.84,8.36-8.83s5.32-5.94,7.9-9,5.09-6.17,7.7-9.28l7.89-9.55c3.8-4.65,7.52-8.86,11.24-13.08l5.67-6.34c1.94-2.11,3.93-4.22,6-6.41,2.79-2.95,5.6-5.74,8.45-8.44C134.44,317.7,134.27,317.25,134.1,316.8Z"
         id="path102" />
      <path
         class="cls-1"
         d="M144.78,304.67l-4.89,4.07q.75,1.62,1.49,3.25c1-.86,1.94-1.7,2.92-2.55C144.45,307.85,144.6,306.26,144.78,304.67Z"
         id="path104" />
      <path
         class="cls-1"
         d="M124.53,296.84a2.63,2.63,0,0,1-.13-1.69q-1.38-2.69-2.7-5.41c-2.21-4.56-6-10.46-5.45-15.75a3.06,3.06,0,0,1,1.3-2.22c-.09-.46-.17-.91-.24-1.37a.86.86,0,0,1-.55-.47c-.44-.88-.9-1.74-1.35-2.61-2.15,2.71-4.23,5.47-6.29,8.22a17.08,17.08,0,0,0-2.91,3.67c-5.4,3.81-10.58,7.91-15.93,11.85l-1.39.9c-1.75,1.31-3,3.09-3,4.55a2.1,2.1,0,0,0,.17,1.13c-4.93,5.76-10,11.4-14.8,17.22-2.38,2.91-4.71,5.84-6.94,8.8s-4.37,5.94-6.31,9c-.4.62-.42,1.15-.05,1.36a1.48,1.48,0,0,0-.69.63,29.06,29.06,0,0,1-3,4.92c-.21.4-.22.74.07.75a1.1,1.1,0,0,0,1-.57,39.71,39.71,0,0,0,3.14-5.16.56.56,0,0,0,0-.49,2.52,2.52,0,0,0,1.39-1c4.86-5.48,9.51-11,14.17-16.6s9.54-11,14.8-16.17c-4.28,6-9,11.77-13.91,17.94-5.86,7.45-10.79,14.76-17,21.91-.35.34-.42.74-.21.88s.64,0,.95-.38c6.47-7.17,11.9-14.6,17.45-22.06,2.77-3.73,5.68-7.36,8.76-11A105.15,105.15,0,0,1,95,297.24c.59-.52,1.19-1,1.8-1.52-3.27,5.6-6.32,11.24-9.37,16.82-6.51,6.46-12.76,13.16-18.93,19.88-3.1,3.34-6.06,6.81-9,10.23s-5.94,6.86-8.78,10.38c-.62.63-.83,1.42-.49,1.74s1.15.08,1.76-.55c3.85-3.35,7.8-6.62,11.69-10l5.84-5,5.89-5-1.13,1.94-1.39,1.64c-4.75,4.58-9.35,9.3-13.94,14.07-1.81,1.68-2.54,3.86-1.67,4.93s3,.47,4.75-1.1l-.66,1c-.24.31-.25.69,0,.77a1.16,1.16,0,0,0,1-.47l2.29-3.55c9.31-8.38,18.32-17.08,27.33-25.8C87.46,332.82,83,338,78.39,343s-9.22,10.13-14,15c.09-.31-.09-.54-.46-.43a1.47,1.47,0,0,0-.82.82c-.1.36.14.53.46.43h0c-5.13,5.3-10.32,10.57-15.73,15.65-.32.29-.43.7-.24.88s.62,0,1-.3a675.52,675.52,0,0,0,49.62-53.44L101,319h0a5.92,5.92,0,0,0,3.61.34c-5.9,6-11.79,12-17.46,18.28C82,342.33,76.83,347,71.77,351.9c-.74.69-1,1.59-.64,2s1.27.15,2.06-.55l3.76-3.52a3.88,3.88,0,0,0,.22,3.74,3.21,3.21,0,0,0,3.27.8c-2.36,3-4.68,6-6.94,9s-4.44,6.06-6.48,9.18c-.24.36-.24.69,0,.75a1,1,0,0,0,.91-.52L78.48,361c3.48-4,6.94-7.91,10.52-11.76,3.48-2.35,6.93-4.65,10.38-7.08s6.95-4.9,10.41-7.73c2.52-2.06,4.91-4.19,7.22-6.36s4.57-4.34,6.74-6.56,4.29-4.49,6.37-6.76l1.66-1.81-.45-.79A129,129,0,0,1,124.53,296.84Z"
         id="path106" />
      <path
         class="cls-1"
         d="M313,179.43a2.12,2.12,0,0,0-.38-.48c-.38-.1-.38-.1-.87-.75a4,4,0,0,0-.93-.09c-.43.1-.55.12-2.11.54a4.54,4.54,0,0,0,.08-.57c-.57-1.43-.56-1.43-4.08-3.32a10.34,10.34,0,0,0-3.27.16c-1.89.83-1.89.83-4.05,1.82,0,0-.5.17-1.34.51a14,14,0,0,1-1.76-.33h0a3.84,3.84,0,0,0,.89-.94c.62-1,.28-1.79-.78-1.79-.28-2.58-2-4-4.37-4.84a4.09,4.09,0,0,0-.81-2.35,13.68,13.68,0,0,0-.68-7.1l-.89-1.76a8.13,8.13,0,0,0-5.9-1.4l-.82,0-.35-1.7c-4.71-2.07-11.3-1.9-16.44-3.36l-3.37-.35a11.88,11.88,0,0,0-3.28,0,3.09,3.09,0,0,1-.77.66c-2.31,1.38-4.67,2.68-7,3.94a57,57,0,0,1-7,4c-1.34,2.86-2.77,5.69-4.32,8.47a8,8,0,0,1-1.39,5.71l-1.79,2.42a56.38,56.38,0,0,1-6.88,10.14c.4,0,.79,0,1.19,0a77.72,77.72,0,0,1,8.24-1.13c5-1.13,9.85-2.8,14.95-3.58a3.14,3.14,0,0,1,1.35.1c4.13-1.85,8.09-4,12.32-5.73a2.31,2.31,0,0,1,1.68-.05,22.37,22.37,0,0,0,2.56-2.79c2.31-3,7.52,0,5.18,3-6.39,8.37-17.19,13.32-27.53,14.36a3.17,3.17,0,0,1-.76,0q-1.63.47-3.27.92c-5.71,1.54-12,3.67-17.6.9l-.18-.11c-.31,0-.61,0-.92-.08a3.1,3.1,0,0,1-1.92-1,40.8,40.8,0,0,1-11.06,7.27,30,30,0,0,1-5,2.07,10,10,0,0,1-3.74,4.18,36.23,36.23,0,0,1-4.16,2.3,30.79,30.79,0,0,0-.49,6.81,2.65,2.65,0,0,1,.69,1.44c1.57,9.5,5.94,18.21,11.37,26.08,1.65,2.39-.85,4.66-3.12,4.34a3.19,3.19,0,0,1-5.79-.23c-1.22,1.49-3.83,1.75-4.86,0a2.49,2.49,0,0,1-2.17-1.39,3.09,3.09,0,0,1-2.15.49,3.15,3.15,0,0,1-5.11-1.28q-1.44-4.86-2.7-9.75a46.4,46.4,0,0,1-1.88-7.77q-1.71-7.51-3-15.11h-.21c-5.13.93-10.12,1.66-15.42-.25-.84-.3-1.65-.65-2.46-1a43.47,43.47,0,0,1-7.92-2.05l-1.15,1.06L143,218.38l-5.16,4.75c-1.72,1.59-3.44,3.18-5.18,4.75q-3.7,3.33-7.56,6.6c.22,1.5.35,3,.43,4.46,1.67,7.41,1.41,14.7-5.91,19.17l.06.27,2.44-1.68-1.79,1.58a4.91,4.91,0,0,0-.55.54c.26,1.07.53,2.13.75,3.21a1,1,0,0,1-.25.88,1,1,0,0,1-1.63.5c-.62.73-1.22,1.47-1.82,2.21l.45.86c1.1-2.41,5.1-3,5.53.18q.18,1.29.4,2.57a2.73,2.73,0,0,1,1.23,1.72c3.2,12.38,8.89,23.76,14.31,35.27q3.29-2.46,6.49-5c.3-2.27.66-4.53,1.12-6.78q.29-2.67.58-5.35c.42-3.8,6.42-3.83,6,0-.11,1-.23,2.09-.34,3.14,0,0,0,.09,0,.14a3,3,0,0,1,.6,2.42c-.16.93-.31,1.86-.47,2.79a3,3,0,0,1,.17,1.11c0,.2,0,.39,0,.59a3.39,3.39,0,0,1,2.57.66l1-.81a20.7,20.7,0,0,0,3.28-2.43l3-2.82c4.15-3.43,8.47-6.56,12.76-9.69l6.47-4.6c2.17-1.51,4.36-3,6.54-4.44-4.7,4.17-9.27,8.49-13.77,12.84-2.25,2.18-4.48,4.37-6.66,6.6s-4.29,4.53-6.38,6.83c-.63.62-.78,1.36-.41,1.66s1.26,0,1.89-.61c12.44-11.88,25.63-23,38.83-34.06,3.16.23,7.09-.68,11.1-2.31a57.87,57.87,0,0,0,11.7-6.56,37.51,37.51,0,0,0,6.82-6.49l-3.7,2.13a41.61,41.61,0,0,0,7.66-8.72c.28-.14.57-.27.86-.44,8.07-3,15.5-9.1,23.38-13.38l-1.43-1c1.58-.62,2.93-.38,4.58-1.18l-1.9-.11.1,0a16.83,16.83,0,0,0,6.18-2.8c11.44-2.11,24.29-9.85,34.72-18,.86-.5,1.43-1.35,1.22-1.88s-1.09-.58-2-.08c-3.84,1.36-7.58,2.23-11.49,3.93-7.26,3.17-14.5,5.58-21.52,9.67l-1.4.47-2.49,0,.26-.15c.85-.35,1.69-.73,2.56-1.07l-.64,0c3.07-1.71,6.13-3.4,9.21-5a89.1,89.1,0,0,0,9.54-4.2,86.5,86.5,0,0,0,9.29-5.34,78.67,78.67,0,0,0,8.46-6.46,58.09,58.09,0,0,0,7.18-7.38c.93-.7,1.29-1.63.82-2.09s-1.63-.25-2.53.45c-2.89,1.35-5.78,2.76-8.67,4.06a84.74,84.74,0,0,1-8.67,3.5c-.24.07-.34-.8-.86-.79-.26,0-.52,0-.79,0,.71-.27,1.43-.58,2.19-1l3.3-4.37h0l.15-.22.77-1,0-.05.19-.27,1.27-.64a1.7,1.7,0,0,0,.93-1,5.93,5.93,0,0,0,.85.14c2.47-1.15,2.47-1.15,5-2.37a1.85,1.85,0,0,0-.34-.34,7.28,7.28,0,0,1,1.7-1.25,17.14,17.14,0,0,1,3.2-1.73l-1.47,0,1.21-.14-.72-.59.95.54v-.87l3,.59,1.09-1.22a3,3,0,0,0,.17-.64C312.76,180.66,312.76,180.66,313,179.43ZM281.42,158l.87,5.29L281.16,158ZM275,203.12c-3.53,1.73-7,3.46-10.41,5.23l1-.9c.31-.32,1.07-.74.3-1,3.15-1.74,6.3-3.59,9.45-5.59a21.57,21.57,0,0,0,3.22-2.51,24.24,24.24,0,0,0,6.15.15C281.53,199.68,278.18,201.53,275,203.12Z"
         id="path108" />
      <path
         class="cls-1"
         d="M282.75,182.37h0l1.45.34Z"
         id="path110" />
      <path
         class="cls-1"
         d="M300.61,181.19a3,3,0,0,0,.9.07Z"
         id="path112" />
      <path
         class="cls-2"
         d="M142.68,53.38l4,4a41.91,41.91,0,0,1,4.73-6.64Q147,52,142.68,53.38Z"
         id="path114" />
      <path
         class="cls-3"
         d="M276.66,124.34c-.47-9.65-7.17-12.35-13.46-10.5a4,4,0,0,1-3,2.13,3.92,3.92,0,0,1-1.36,0,16.11,16.11,0,0,0-2.88,2.51c.12-1.43.21-2.87.29-4.31l0-.06c-1.17-1.55-2.4-3.09-3.42-4.76,0,1.23-.06,2.46-.11,3.68-.2,4.37-.6,8.8-1.21,13.25l1-.59a3.8,3.8,0,0,1,2.72-.42c0-.28.08-.56.11-.84,1.75-5.06,6.82-9.5,12.34-8.8,9.18,1.18,6.38,14.91,3.49,20.35-4.14,7.8-10.72,12.77-17.89,17a126.87,126.87,0,0,1-11,6.64c-.13.33-.27.65-.43,1l-1.78,3.55.48-.21a90.24,90.24,0,0,1-21.43,29.24c-23.07,20.41-62.74,22.46-85-.55-21.52-22.22-21.75-61.11-14.49-89.18a105.74,105.74,0,0,1,25.63-45.84c-1.23,0-2.46,0-3.69,0A106,106,0,0,0,119.34,94c-5.7,15.66-7.47,33-6.68,49.58.75,15.83,4.39,32.16,13.74,45.24,19,26.68,59.69,30.79,86.39,13.71,15.08-9.65,25.8-24.5,32.84-41.08a105.72,105.72,0,0,0,18-12.3C270.93,142.88,277.15,134.4,276.66,124.34Z"
         id="path116" />
      <path
         d="M215.55,135.62c-1.23-.66-2.16,1.25-1,1.93,1.66.94,3.61,1.85,5.48,2.87C198,160,160.46,187.15,131.4,166c-1.08-.78-2.23.9-1.18,1.69,14.35,10.89,32.57,9.29,48.58,3.06,15.27-5.93,30.64-15.64,41.63-28a7.9,7.9,0,0,1,6.08,3.26,7.45,7.45,0,0,1,.15,6.09c-.27.76.76,1.52,1.29.77C234.39,143.75,221.73,138.94,215.55,135.62Z"
         id="path118" />
      <path
         d="M224.57,131.59c-.79-.37-1.31.82-.55,1.22,3,1.6,3.94,4.52,4.92,7.55.23.73,1.44.4,1.3-.35C229.56,136.3,228.13,133.27,224.57,131.59Z"
         id="path120" />
      <path
         d="M182.83,182.94c-2.14-.3-7.24-1.2-7.48-4-.12-1.43-2.28-1-2.18.39.27,4.11,6.23,5.47,9.49,5.7C183.85,185.14,184,183.11,182.83,182.94Z"
         id="path122" />
      <path
         d="M111.58,60.86c-14.52-.08-24.64,10.32-29.25,23.37-.25.7,1,1.13,1.23.44,4.81-12.15,14-22.39,27.86-22.44C112.29,62.22,112.46,60.86,111.58,60.86Z"
         id="path124" />
      <path
         d="M276.94,174.69c-.6-3.94-3.78-7.47-6.18-10.42-4.17-5.11-8.7-9.79-12.08-15.48-.52.29-1,.57-1.58.84q1.26,2.25,2.72,4.35l-.29-.18,0,0a1.88,1.88,0,0,0-.64-.34l0,0a2.26,2.26,0,0,0-2.92,1.41,8.87,8.87,0,0,0-1.59.79,2.1,2.1,0,0,0-.89,1.21,12.1,12.1,0,0,0-2.94,1.55,18.31,18.31,0,0,0-4.53,3.1,2.52,2.52,0,0,0-1.7.86c-.38.46-.73.92-1,1.37l-.07,0a2.21,2.21,0,0,0-1.39,2.82,10.68,10.68,0,0,0-.39,1.55s0,.09,0,.14c-3.34,3.46-7.16,8.1-8,12.09a11.36,11.36,0,0,0-1.14,3.38,2.3,2.3,0,0,0,0,.46c-1.07,1-2.08,2-3,3a13.77,13.77,0,0,0-2.52,1.77,2.26,2.26,0,0,0-.71,1.2c-.85,0-1.69-.07-2.55,0a1.8,1.8,0,0,0-1.14,3.25c2.7,2,6.74,2,10.75,1.42l2.13,0a30.68,30.68,0,0,0,6.19-.39c9.21-.89,18.56-3.24,25.93-8.14C272.08,183.9,277.86,180.68,276.94,174.69ZM238,192.2c-3.67.37-7.35.78-11-.19a.5.5,0,0,1,.27-1c3.53.95,7.12.52,10.69.15C238.68,191.14,238.68,192.14,238,192.2Zm5.29-.71c-.8.15-1.61.19-2.41.34-.63.12-.9-.84-.27-1,.8-.15,1.61-.19,2.41-.34C243.69,190.41,244,191.38,243.33,191.5Zm22.28-7.66A55.11,55.11,0,0,1,246.27,191c-.63.11-.9-.85-.27-1a54.36,54.36,0,0,0,19.1-7.08C265.65,182.63,266.15,183.5,265.61,183.84Zm6.8-5a34.91,34.91,0,0,1-4.2,3.53c-.52.38-1-.49-.5-.86a33.28,33.28,0,0,0,4-3.38A.5.5,0,0,1,272.41,178.79Zm1.55-2.26-.06.09-.19.23c-.41.49-1.12-.22-.71-.71.21-.25.3-.48.65-.56C274.26,175.44,274.52,176.35,274,176.53Z"
         id="path126" />
      <path
         d="M267.95,121.84a8.65,8.65,0,0,0-4.17.22.37.37,0,0,0-.26,0c-.12.06-.24.13-.35.2a8.33,8.33,0,0,0-4.88,5,.58.58,0,0,0,.18.66.75.75,0,0,0,.74.74c2.22.14,7.72.65,3.59,5.68-.85,1-2.69,1.64-3.92,2.14-2,.83-4.27,1.52-5.79,3.22-1.93,2.16-2.2,5.56.54,7.08.37.21.75-.21.7-.57v0c.11-1,.19-1.91.35-2.82a11.68,11.68,0,0,1,4.79-5.12c2.37-.87,4.81-1.93,6-4.34,1.55-3.25-.21-5.32-2.76-6.29a6.69,6.69,0,0,1,3.7-5.06,7.67,7.67,0,0,1,1.46,0C268.24,122.63,268.37,121.92,267.95,121.84Z"
         id="path128" />
      <path
         d="M269.43,124.56c-.09-.89-1.63-.75-1.57.15.57,8.63-4.06,15.4-11.32,19.77-.53.32,0,1.06.51.88C265.62,142.54,270.28,133.18,269.43,124.56Z"
         id="path130" />
      <path
         d="M204.4,60.62a.42.42,0,0,1-.35.12c-1.56-.12-3.61-.36-4.77.89a52.37,52.37,0,0,0-3.54,9.12.46.46,0,0,1-.1.52l-.06.05-.07.24a3.4,3.4,0,0,0,1.82,1.4.5.5,0,0,1,.24.2,29,29,0,0,0,4.49.36c4.19,0,10-1.67,11.26-6.32C214.63,62.34,208.54,61.1,204.4,60.62Z"
         id="path132" />
      <path
         d="M198,61.68a2.2,2.2,0,0,0-.55-2l-.36-.09-.18-.06a1.75,1.75,0,0,0-.95.54,34.66,34.66,0,0,0-3.81,9,.49.49,0,0,1,0,.23c-.21.75-.22,1.67.67,1.93a2.07,2.07,0,0,0,1.86-.52,55.46,55.46,0,0,1,3.35-8.92A.48.48,0,0,1,198,61.68Z"
         id="path134" />
      <path
         d="M191.31,57.22a53.91,53.91,0,0,1-6.18-2.39,84.31,84.31,0,0,0-23.19-6,.4.4,0,0,0-.25-.45c-3.14-1.39-6.3-2.75-9.54-3.9-1.33-.47-2.67-.9-4-1.26a.54.54,0,0,0-.17,0,35.15,35.15,0,0,0-3.64-.78,32.85,32.85,0,0,1-3.41-.35c-1.48-.4-2.37.15-.61-1.24C143,38.71,148.26,39,151.53,39c7.56,0,14.82,1,20.22,7.79a.38.38,0,0,0,.64-.33,14.6,14.6,0,0,0-2.48-4.77c-.95-1-1.94-1.93-2.86-2.94a29.57,29.57,0,0,0-8.95-4.86.54.54,0,0,0-.06-.18c-.25-.09-.49-.18-.73-.29l-.31.09a47.08,47.08,0,0,0-5.1-1.32c-.51,0-1,0-1.53,0a41.44,41.44,0,0,0-16.42.26.63.63,0,0,0,.28,1.22,45,45,0,0,1,20.25,1.15,12.3,12.3,0,0,0-1.19,1A.79.79,0,0,0,153,36q-.66.65-1.27,1.35l0,0c-6-.26-12.63.67-14.84,5a.59.59,0,0,0,.57.83,25.81,25.81,0,0,1,9.32.82,17.53,17.53,0,0,0-4.33,5.54c-.45.31-.9.62-1.39.94a1.41,1.41,0,0,0-.64,1.13,49.79,49.79,0,0,0-13-7.2,91.64,91.64,0,0,0-25.51-4.64.64.64,0,0,0-.66.37.57.57,0,0,0,.27,1,146,146,0,0,1,30,10.63c.53.25,1-.63.49-.91A102.6,102.6,0,0,0,113.21,43a95.61,95.61,0,0,1,10.27,2.41c8.59,2.58,14.9,7.2,21.85,12.55-1,0-2,0-3,.1-18.58-11.27-47.12-5.6-58,13.8a.48.48,0,0,0,.83.47c5-7.83,13.22-13.19,22.31-15.82,9.69-1.18,18.29-1.09,27.18,1.91-8.95-.59-18.29,3-25.27,8.37C103,71.6,93.62,80.21,94.95,89.1c.1.67,1.07,1,1.4.29,5-11.08,13.72-17.81,24-21.75l.91-.28a118.62,118.62,0,0,1,13.57-2,5.82,5.82,0,0,0,1.79-.12h.2A66.48,66.48,0,0,0,126.61,71c-1.28.82-2.52,1.69-3.71,2.61l-.47.25a.49.49,0,0,0-.28.4s0,0,0,.06a64.71,64.71,0,0,0-7,6.55c-.47.51.25,1.3.75.8a73.81,73.81,0,0,1,8.79-7.56,123,123,0,0,1,29.83-8.45,117.23,117.23,0,0,1,19.22-.89,165.24,165.24,0,0,1,17,5.74,41,41,0,0,1,4.06-10.38.49.49,0,0,1,.12-.34l.29-.3c.09-.14.17-.28.27-.42C194.09,58.45,192.75,57.72,191.31,57.22ZM96.57,85.81c1.36-7.35,9.46-14.42,15-18.38a43.4,43.4,0,0,1,4.84-3c.84-.38,1.67-.79,2.52-1.12,1.18-.47,2.37-.91,3.57-1.35a.41.41,0,0,0,.36.09,56.74,56.74,0,0,1,17.09-.9.56.56,0,0,0,.48-.17.82.82,0,0,0,.73-1.14l.44.26a1.57,1.57,0,0,0,0,.92C123.4,62.69,105.68,69.91,96.57,85.81Zm40.82-22.15,0-.08q2.49-.31,5-.51-1.81.63-3.58,1.35a.7.7,0,0,0-.67-.79Zm19.49-7.94a1,1,0,0,1,0-2A1,1,0,0,1,156.88,55.71Zm8.65,1.44a1,1,0,0,1,0-2A1,1,0,0,1,165.53,57.16Zm8.88,1.44a1,1,0,0,1,0-2A1,1,0,0,1,174.41,58.6Zm8,2.16a1,1,0,0,1,0-2A1,1,0,0,1,182.45,60.76Zm6.6,3.24a1,1,0,0,1,0-2A1,1,0,0,1,189.05,64Z"
         id="path136" />
      <path
         d="M269.39,68.27c-4.19-12.15-11.92-23.06-22.78-30.11q-2.29-1.49-4.73-2.81a44,44,0,0,1,2.52,5c.26.58-.6,1.09-.86.5a39.78,39.78,0,0,0-2.94-5.67.42.42,0,0,1,0-.49C229.66,28.94,217,25.48,205,23.82a87.18,87.18,0,0,0-20.46-.55h-.06a68.44,68.44,0,0,0-11.71,2.17.85.85,0,0,1-.65.21h-.07c-.78.23-1.55.46-2.32.72a29.28,29.28,0,0,0-4.84-1.24,27.45,27.45,0,0,0-7.66.66.63.63,0,0,0,.46.26l1.48.19A40.39,40.39,0,0,1,175,41.38a49.71,49.71,0,0,0-45.16-16.47.44.44,0,0,0,.13.86A50.85,50.85,0,0,1,173.58,42.1a1,1,0,0,1,.38.26c.56.62,1.1,1.27,1.62,1.93h0a.93.93,0,0,1,.71.46c.51.82,1.17,1.53,1.68,2.35,0,0,0,0,0,.07h.08l.24.54.16.22a.91.91,0,0,1,.17.52l0,.11a.49.49,0,0,0,.6.3c-.51-2.12-1.08-4.23-1.78-6.3A37.78,37.78,0,0,0,163,26.8a37.05,37.05,0,0,1,9.26,2.57l0,0c1.14.58,2.28,1.2,3.39,1.84.31.21.62.42.93.65A.75.75,0,0,0,177,32c4.77,3,9,6.65,11.47,11.38,2,2.94,2.91,6.39,3.88,9.81a.9.9,0,0,1,0,.11c.07.11.14.22.22.32a.66.66,0,0,1,.07.17,1,1,0,0,0,.23-.59,22.4,22.4,0,0,0-.14-3.47c.57.22,1.15.41,1.73.57a1.72,1.72,0,0,0,.44.56c.81.69,1.64,1.34,2.47,2l.49.46a3,3,0,0,1-.37,2.75,3.32,3.32,0,0,1-2,1.75,18.67,18.67,0,0,0,4.65,1.36c2.51.33,5.07.38,7.56.93,3.53.79,7.74,3.08,6.61,7.35-1.06,4-5.62,6.29-9.4,6.85a22.46,22.46,0,0,1-4.9.13c.78.36,1.56.71,2.33,1.07a222.07,222.07,0,0,1,22.14,12.18,25.62,25.62,0,0,0-.24,20.24l-4.54-1.86c.07-.8.13-1.59.18-2.33,0,0,0-.08,0-.11-.9-.22-1.78-.48-2.66-.77a1.37,1.37,0,0,0-.24.33.83.83,0,0,0-.5-.38c-2.43-.74-4.9-1.35-7.4-1.87l0,0-1-.26h0a70.27,70.27,0,0,0-14.46-1.84,152.22,152.22,0,0,0-24.11.55,1,1,0,0,0-.78,1.58,1,1,0,0,0-.29.7c0,1.41-.08,2.85-.09,4.29a16.65,16.65,0,0,0-10-.56c.41-2.61.64-5.15.78-7.36,0,0,0-.08,0-.13l-2.6-.82a1.43,1.43,0,0,0-.22.3l-.23-.08a.85.85,0,0,0-.35-.21c-.67-.2-1.36-.38-2-.57a72.56,72.56,0,0,0-15-2.71l.09-.1a144.16,144.16,0,0,0-30.15,0,1,1,0,0,0-.78,1.58,1,1,0,0,0-.29.7c-.2,7-.42,14.54,3.37,20.73a18.14,18.14,0,0,0,8.07,7,1.87,1.87,0,0,1,.31-1.18c5.87-9.4,12.14-18.54,18.56-27.57q3.46.47,6.86,1.12c-.82.89-1.61,1.8-2.39,2.72q-2.92,3.8-5.83,7.62c-4.29,6-8.18,12.37-12.4,18.46a2.14,2.14,0,0,1-.42.44c.73.17,1.47.3,2.21.42A217.7,217.7,0,0,1,147,96.61l1.13.23A213.16,213.16,0,0,0,126.93,126c.56.07,1.13.14,1.69.18a11.57,11.57,0,0,0-.35,6.43c1.19,4.8,5.94,7.74,9.72,10.37a.64.64,0,0,0,.6.08,5.49,5.49,0,0,0,2.2.93c.52.09.85-.73.31-.92a8.21,8.21,0,0,1-1.94-1,.67.67,0,0,0-.23-.41c-.32-.27-.65-.53-1-.8-.09-.12-.2-.23-.28-.36a.54.54,0,0,0-.51-.26c-2.9-2.22-6.12-4.6-7-8.18a10,10,0,0,1-.12-3.48,7.46,7.46,0,0,1,0-.75.79.79,0,0,1,0-.46l0-.06a5.93,5.93,0,0,1,.61-1.75,5.66,5.66,0,0,1,4.11-3.57,5.38,5.38,0,0,1,2.16-.06,5.6,5.6,0,0,1,2.86.64,6,6,0,0,1,2,1,7.9,7.9,0,0,1,1.25.95,8,8,0,0,1,.84.81h0c4.92,4.32,7.71,12.28,14.24,14.14.76.22,1.17-.94.41-1.17-3.08-.91-5.41-3.73-7.57-6.78a.73.73,0,0,0-.08-.31,57.92,57.92,0,0,0-3.81-6.92,13.7,13.7,0,0,0,4.46-2.79c2.57-2.52,4.25-6.22,5.37-10.19,4.41-2.2,8.17-.72,11.65,1.91a23.36,23.36,0,0,0,3.07,9.24,18,18,0,0,0,7.14,6.56c6.5-9.61,12.77-19.38,19.76-28.64q3.43.42,6.83,1.09c-7.41,9.51-14,19.64-20.63,29.67a30.87,30.87,0,0,0,3.15.51c6.44-9.93,12.5-20.11,19.28-29.81l1.06.23c-6.77,9.66-12.81,19.8-19.22,29.7l.53.05c6.84.42,17.56.52,22.86-4.66,2.9-2.83,4.67-7.16,5.76-11.69,5.84,1.2,11.59,2.66,17.32,4.3,1.12,1.7,2.26,3.25,3.34,4.61.72.91,2.2-.05,1.51-1s-1.21-1.75-1.84-2.71l3.37,1a2.63,2.63,0,0,0,.76.11l1.32.55c1.22,4.37.73,9.08.45,13.6a.76.76,0,0,0,1.34.59c1.91-2.36,5.95-6.86,7.22-11.05a2.25,2.25,0,0,0,1.55-3,16.49,16.49,0,0,0,5.82-.48c.93-.26.76-1.73-.24-1.53a19,19,0,0,1-7.5-.21c-.06-.09-.11-.18-.17-.26a.71.71,0,0,0-1.09,0l-.77-.22q-3.82-2-7.77-3.85c-5.1-3.73-8.37-9.27-6.38-15.51.32-1-1.23-1.4-1.55-.42-1.64,5-.13,9.81,3,13.71q-2.22-1-4.46-1.91a40.82,40.82,0,0,1-2.16-5.58,20.07,20.07,0,0,1,1.42-13.1,84,84,0,0,1,8.71,6.92,39.27,39.27,0,0,1,7.4,8.64c1.2,2,2.15,4.16,3.38,6.17C248,113.33,244.7,110.64,242,106c-.4-.67-1.49-.16-1.11.55,3.44,6.36,8.36,10.3,15.28,10.88-.14.17-.27.35-.4.53a.75.75,0,0,0,1,1.1,18.83,18.83,0,0,0,2.14-1.58H259a.62.62,0,0,0,.58-.6A7,7,0,0,1,264,115a.86.86,0,0,0,.66-1.43,1.13,1.13,0,0,0,.14-.1l.39-.38a1.76,1.76,0,0,0,3.43.1c1.82-8.24,4.58-16.18,4.4-24.73A66.6,66.6,0,0,0,269.39,68.27ZM251,124.94a22,22,0,0,1-4.77,8.74,32.8,32.8,0,0,0-.37-10.64Q248.43,124,251,124.94Zm-23.23-15.55A19.3,19.3,0,0,1,228.23,90l.42.27c.58.38,1.15.77,1.72,1.15-3.55,5.54-2.51,12.56.19,19.08ZM247,52.82c.18,1,.2,2,.42,2.94.14.63-.82.89-1,.27-.22-1-.24-2-.42-2.94C245.88,52.46,246.85,52.19,247,52.82Zm-2.38-7.59c-.28-.58.59-1.09.86-.5a12.87,12.87,0,0,1,.89,3.06c.13.63-.84.9-1,.27A12,12,0,0,0,244.58,45.23Zm1.81,50.86a.5.5,0,0,1-1-.27,35.73,35.73,0,0,0,1.18-7.49c0-.64,1-.64,1,0A37,37,0,0,1,246.39,96.09Zm1.22-11.66a.5.5,0,0,1-1,0V82.54a.5.5,0,0,1,1,0Zm.21-6.5a.5.5,0,0,1-1,0V74.78a.5.5,0,0,1,1,0Zm-.58-8.6c-.21-3.29-.44-6.58-.84-9.86-.08-.64.92-.63,1,0,.4,3.28.63,6.57.84,9.86C248.28,70,247.28,70,247.24,69.32Zm7.67,46.24a1,1,0,0,0,0-.78c.26.18.53.35.8.51l.07,0a1.31,1.31,0,0,0,0,.4C255.51,115.66,255.2,115.62,254.91,115.56Z"
         id="path138" />
      <path
         d="M246.47,334.81a381.68,381.68,0,0,0-4.83-44.32c2-2.68,3.3-5.95,4.8-8.91a1,1,0,0,0-.19-1.22c-8.13-23.32-20.86-45.44-41.9-58.42l-.07,0c-.34-.76-.64-1.53-.92-2.31a40.06,40.06,0,0,1-.58-9,1.36,1.36,0,0,0-.8-1.38c0-.09,0-.19,0-.28a2,2,0,0,0-.05-.72,1.4,1.4,0,0,0-1.92-2,47.07,47.07,0,0,1-5.73,2.77,1.33,1.33,0,0,0-.88-.06q-6.44,1.65-12.91,3.22c-.11-.32-.2-.65-.32-1-.84-2.35-4.4-.89-3.58,1.45a56.32,56.32,0,0,1,2.19,11.2h0c0,1.09.12,2.19.24,3.29,0,.39,0,.78.09,1.16a1.07,1.07,0,0,0-.24.11,65.38,65.38,0,0,0-13.88,11.41c-.16.06-.32.13-.47.21-.31.41-.65.79-1,1.18l-.3.41-.72,1c-.55.74-1.11,1.47-1.7,2.18-9.71,12.51-15.6,28-20.09,43.72,2.67,3.27,7.15,4.75,10.84,6.54a2.45,2.45,0,0,1,1.24,2.16c-.35,11.37-.46,22.85-2.13,34.11l.15,0c0,.22-.05.44-.08.66-.63,4.44-1.14,8.89-1.58,13.35q-.48,4.58-.78,9.2l-.05.39a1.47,1.47,0,0,0,0,.4c0,.16,0,.32,0,.47a1.2,1.2,0,0,0,.05.36q-.2,2.52-.36,5a1.21,1.21,0,0,0,.26.83,1,1,0,0,0,.8.92c25.58,5.25,54.24,5.62,79.35-2.3a1,1,0,0,0,.47-.32l1.28-.4a5.64,5.64,0,0,0,4.61-1.84c0,2.49-.08,5-.08,7.49,0,1.07,1.66,1,1.83,0,1.68-10.07,1.13-20.62,0-30.8a159.57,159.57,0,0,0-3.14-24.13.51.51,0,0,0-.17-.29A163.85,163.85,0,0,1,230.41,288a2.55,2.55,0,0,1,1.84-2.41c1.95-.62,3.92-1.17,5.88-1.74,2.78,18,4.51,36.09,6.58,54.18.39,10,.46,20.11,1.13,30.12.07,1,1.73,1.15,1.81.09C248.55,357.23,247.72,345.88,246.47,334.81ZM199.2,237c-4.77,2.92-11.86,2.43-14.42-3-.26-1.61-.55-3.22-.87-4.83s-.6-3.49-1-5.21h.14c-.29-2.29-.67-4.58-1.18-6.82a35.53,35.53,0,0,0,16.34-6,27.48,27.48,0,0,0,2,11.37,21.19,21.19,0,0,0,4.25,9.47A20.65,20.65,0,0,1,199.2,237Z"
         id="path140" />
      <path
         class="cls-4"
         d="M199.62,261.93a10.52,10.52,0,0,0-3.1-1.69,12.5,12.5,0,0,0-11.82-.17,11.39,11.39,0,0,0-5.54,6,12.59,12.59,0,0,0-.69,1.22,11.33,11.33,0,0,0-1.11,2.34,10.7,10.7,0,0,0,.16,7.7,10.89,10.89,0,0,0,4.53,7.23,12.33,12.33,0,0,0,8.75,1.87,13.59,13.59,0,0,0,3.86-.52C204.89,283,208.1,268.64,199.62,261.93Z"
         id="path142" />
      <path
         d="M189.79,270.29a4,4,0,0,0-3.14-3.54c-2-.33-3.75,1.17-4.91,2.66h0a7.57,7.57,0,0,0-2.32,3.94,3.5,3.5,0,0,0,.43,2.65c.28,1.29,1.21,2.2,3.22,2.09a6.38,6.38,0,0,0,4.33-2.32,7.18,7.18,0,0,0,1.68-2.17,4.66,4.66,0,0,0,.36-1.08A5.09,5.09,0,0,0,189.79,270.29Z"
         id="path144" />
      <path
         d="M199.53,272.37s0-.07,0-.1a7,7,0,0,0-.52-2.4,3.27,3.27,0,0,0-2.25-2.24,2.11,2.11,0,0,0-.53,0,1.94,1.94,0,0,0-1.5.57c-1.84,1-1.74,4.43-.79,6a3.42,3.42,0,0,0,1,1.1,2.31,2.31,0,0,0,2.69.45,2.47,2.47,0,0,0,.41-.27l.23-.15.05,0a3.14,3.14,0,0,0,1.16-2.27s0-.1,0-.14S199.54,272.54,199.53,272.37Z"
         id="path146" />
      <path
         d="M190.46,276a4.66,4.66,0,0,0-1.41,1.58,2.66,2.66,0,0,0-.24.45,5.5,5.5,0,0,0-.32.91.7.7,0,0,0,1,.82,3.13,3.13,0,0,0,1.66-2.29,6.88,6.88,0,0,0,.24-.7C191.5,276.3,191,275.67,190.46,276Z"
         id="path148" />
      <path
         d="M193.5,278.9a9.83,9.83,0,0,0-.25-1,3.75,3.75,0,0,0-.51-1.51.47.47,0,0,0-.28-.21.71.71,0,0,0-1,.43,2.79,2.79,0,0,0,.43,2.38.6.6,0,0,0,.2.16,2.64,2.64,0,0,0,.39.38C193,279.93,193.6,279.41,193.5,278.9Z"
         id="path150" />
      <path
         d="M184.54,283.56c-.89,1.42-1.7,3.25-1.33,5,.12.54.94.72,1.14.13a20.79,20.79,0,0,1,1.5-4.4C186.35,283.43,185,282.76,184.54,283.56Z"
         id="path152" />
      <path
         d="M187.8,283.85a7.33,7.33,0,0,0-1,5c.16.67,1.2.5,1.29-.12a15,15,0,0,1,.86-4.24C189.3,283.78,188.16,283.16,187.8,283.85Z"
         id="path154" />
      <path
         d="M191.83,286.59a10.83,10.83,0,0,1,.05-2.1c.1-.86-1.37-1.06-1.53-.2-.24,1.26-.59,3.52.47,4.5a.62.62,0,0,0,1-.14A4.2,4.2,0,0,0,191.83,286.59Z"
         id="path156" />
      <path
         d="M194.64,283.59a.74.74,0,0,0-1.42.44,12.31,12.31,0,0,0,1.31,4,.69.69,0,0,0,1.2-.37A11.43,11.43,0,0,0,194.64,283.59Z"
         id="path158" />
      <path
         d="M200.55,286.25a9.1,9.1,0,0,0-1.35-1.81c-.5-.59-1-1.19-1.47-1.8s-1.79.23-1.28,1c.82,1.25,1.75,2.81,3.09,3.56A.76.76,0,0,0,200.55,286.25Z"
         id="path160" />
      <path
         class="cls-4"
         d="M209.06,258.36A1.78,1.78,0,0,0,208,257a2.45,2.45,0,0,0-.07-3.39,2.69,2.69,0,0,0-4.34.91,2.66,2.66,0,0,0,.52,3L201.2,261a.48.48,0,0,0-.11.29.6.6,0,0,0,.1.8,2.34,2.34,0,0,0,1.43.63.89.89,0,0,0,.28,0,.67.67,0,0,0,.49-.31l.24-.35,0,0c.69-.81,1.34-1.65,2-2.5a1.69,1.69,0,0,0,1,.93A1.85,1.85,0,0,0,209.06,258.36Z"
         id="path162" />
      <path
         class="cls-4"
         d="M209.6,280.66a1.87,1.87,0,0,0-1.92.85c-.93-.76-1.85-1.51-2.76-2.29a.86.86,0,0,0-1.39.55.75.75,0,0,0,.12.93,16.44,16.44,0,0,0,2.94,2.56,1.58,1.58,0,0,0-.47.42l0,0-.07.1a1.54,1.54,0,0,0-.22,1.45,1.69,1.69,0,0,0,2.68.71,1.74,1.74,0,0,0,.52-1.7,1.82,1.82,0,0,0,.65,0,1.65,1.65,0,0,0,.87-.55,1.67,1.67,0,0,0,.31-.38A1.82,1.82,0,0,0,209.6,280.66Z"
         id="path164" />
      <path
         class="cls-4"
         d="M178,282l-.06-.18c.07-.43-.37-.92-.81-.76a.74.74,0,0,0-.38.15l-.36.27c-1,.69-2,1.37-2.92,2.15h0a1.72,1.72,0,0,0-.89-1.15,1.76,1.76,0,1,0-1.36,3.23,2,2,0,0,0-.14,1.11,1.88,1.88,0,0,0,.41,1.57c1.06,1.11,2.57.37,3.21-.79a1.91,1.91,0,0,0-.16-2.31,20.59,20.59,0,0,0,2.7-2.18l.58-.45A.67.67,0,0,0,178,282Z"
         id="path166" />
      <path
         class="cls-4"
         d="M180.88,261.54a7.74,7.74,0,0,0-2-2.42,2.1,2.1,0,0,0,.42-.63,2.06,2.06,0,0,0-.11-2.58,2.33,2.33,0,0,0-3.88,1,2.08,2.08,0,0,0,0,.87h-.16a1.91,1.91,0,0,0-1.33.83s0,.07,0,.1a1.93,1.93,0,0,0-.19.41l0,0s0,.07,0,.11A1.88,1.88,0,0,0,174,261a1.74,1.74,0,0,0,1.42.51,2,2,0,0,0,.32,0h.05a1.77,1.77,0,0,0,1.27-1,1.9,1.9,0,0,0,.09-.33l.44.47a4.77,4.77,0,0,0,.83,1.06,4.29,4.29,0,0,0,1.15,1,.89.89,0,0,0,.3.1.65.65,0,0,0,.39,0A.81.81,0,0,0,180.88,261.54Z"
         id="path168" />
      <path
         d="M182.18,260.2c-1.6,1.25-3.48,2.89-4.18,4.85-.16.44.42.71.73.44a26.84,26.84,0,0,0,2.08-2.34,26.34,26.34,0,0,1,2-2C183.39,260.67,182.78,259.73,182.18,260.2Z"
         id="path170" />
      <path
         d="M205,264.67a15.1,15.1,0,0,0-4.82-4c-.59-.32-1.15.69-.57,1a15.43,15.43,0,0,1,4.3,3.79C204.43,266.12,205.51,265.36,205,264.67Z"
         id="path172" />
      <path
         d="M204,277c-.85,1.61-1.77,3.19-2.51,4.85-.29.65.74,1.22,1.11.6.93-1.57,1.7-3.26,2.51-4.9A.62.62,0,0,0,204,277Z"
         id="path174" />
      <path
         d="M180.22,284.1a37.74,37.74,0,0,1-2.75-5,.47.47,0,0,0-.89.26,8.88,8.88,0,0,0,3,5.36C180,285,180.44,284.49,180.22,284.1Z"
         id="path176" />
      <path
         d="M151.24,319.34c0-.72-1.11-.71-1.34-.12a30,30,0,0,1-3.77,7.79.94.94,0,0,0-.43.24c-1.8,1.77-4.4,2.46-6.16.62a.63.63,0,0,0-.06-.35c-8.55-17.33-16.3-34.46-22.2-52.61a11.11,11.11,0,0,0,6.34-2.64,235.43,235.43,0,0,0,17.64,39,91.88,91.88,0,0,0,4,8.47.61.61,0,0,0,1.1-.52c-.58-1.62-1.26-3.21-2-4.77,0,0,0,0,0-.06a105.85,105.85,0,0,0,1.48-11,62.69,62.69,0,0,0,.89-10,.69.69,0,0,0-1.37-.16c-.84,5.86-1.59,11.73-2.83,17.52-.38-.78-.75-1.56-1.12-2.34a.61.61,0,0,0-.38-.34,328,328,0,0,1-15.81-37.21c.62-.59,1.18-1.18,1.66-1.73a1.63,1.63,0,0,0,.26-1.88c-1.46-2.94-2.9-5.9-4.35-8.85a1.29,1.29,0,0,0-1-.7,1.16,1.16,0,0,0-.4-.31c6.52-3.22,7.3-10.65,6.07-17.25-1-5.61-2.42-11-2.56-16.73s1.82-11.59,1.64-17.33c-.15-4.65-4.39-8.6-8.69-5.38-4.71,3.53-6.24,10.58-5.55,16.79a87.16,87.16,0,0,0-30.79-7.3,118.67,118.67,0,0,0-17.56.28c-3.72.33-9.5.13-12.68,2.62a4.27,4.27,0,0,0-1.56,5.24C51.33,221.49,56,222,59,222.38c9.13,1.3,18.23.75,27.29,1.28-2.18,2.77-5.19,7.39-5.15,10.9-2.33,3.19-4.44,7.3-2.09,11.12a5.7,5.7,0,0,0,1.61,1.7c-1.2,1.66-2.33,3.74-1.21,5.73,1.65,2.94,6.91,2.55,9.68,2.91.88.11,1.91.32,3,.53,4,5.76,12.14,11.72,18.79,6.28.64-.53,0-1.42-.75-1.16-6.15,2.26-11.29-.09-15.29-4.64,2.33.34,4.69.44,6.43-.44,2.74-1.38,3.45-4.55,3.28-7.37a6.27,6.27,0,0,0,2.61-1.86,6.41,6.41,0,0,0,1.54-4.79,13.2,13.2,0,0,0,6.63,8.37.65.65,0,0,0,.75-1c-6.45-6.09-8-15.88-1-22.46.56-.52-.13-1.43-.75-.94a15.71,15.71,0,0,0-2.76,2.8,4.53,4.53,0,0,0-3.05-4,31.91,31.91,0,0,0-8.52-1.48c-7.51-2.74-15.56-2.8-23.49-2.86-4.07,0-8.15,0-12.21-.32a46,46,0,0,1-8.48-1.17q-4.45-.34-1.46-5.41a15.83,15.83,0,0,1,3.66-.71c18.53-2.62,37.59-1,54.78,6.6a19.34,19.34,0,0,0,1.52,4.44c.3.6,1.18.11,1-.48-.21-.77-.39-1.56-.55-2.35-.61-2.24-1.22-4.67-.64-7a19,19,0,0,1,2-8c.61-1.2,1.88-3.86,3.07-4.35,6.78-2.77,4.65,6.68,4.26,9a63.71,63.71,0,0,0-.9,9.29,66.73,66.73,0,0,0,1.65,15.54c1.43,6.6,3.77,15.89-3.89,19.75a.94.94,0,0,0-.5.61.65.65,0,0,0-.67.83c.13.51.26,1,.39,1.52a10.41,10.41,0,0,1-5.94,4c-.24-.89-.49-1.78-.72-2.68-.32-1.25-2.14-.59-1.88.63.17.78.35,1.56.53,2.34l-.28,0c-.75,0-1.6.8-1.28,1.62,1,2.47,1.88,7,4.24,9.1,5.14,18.63,12.72,37.07,23.07,53.15a.85.85,0,0,0-.1,1c1.67,3.06,6.11,4.23,8.65,2a.94.94,0,0,0,.44-.24C149.07,327.1,151.46,323.31,151.24,319.34ZM99.4,254.91c-1.41.35-4.21-.35-5.69-.53l-5.09-.62c-2.22-.26-9.49-.47-6.73-5.72,3.64,1.51,8.91,0,12.42.48,2.67.33,5.61,1.33,8.29,1.15C102.38,251.8,102.08,254.25,99.4,254.91Zm-1.87-8.22a37.73,37.73,0,0,0-5.68-.71c-1.39-.05-2.74.05-4.13.11a18.91,18.91,0,0,1-4.26.12q-3.72-5.26-1.71-9.41a4.21,4.21,0,0,0,1.7,1.58c3.52,1.89,9.11.59,13,1.22,3,.49,6.27,1.63,9.2.53C109.65,247.29,101.69,247.48,97.54,246.69Zm9.91-7.57a8.62,8.62,0,0,0,.89-.86,14.78,14.78,0,0,0,.14,2.8A6.89,6.89,0,0,0,107.45,239.11ZM96,224.78c-.87.68-1.14,1.8-.39,3.56.45,1.05,2.13.56,1.73-.55-1.19-3.28,8.51-1.5,9.62-.84,2,1.2,2.49,3.07,2,5.51-1.23,5.62-6.35,6.06-11.3,5.16a57.65,57.65,0,0,0-9.83-.75c-7.74-.08-2-9.34.22-13.09A74.12,74.12,0,0,1,96,224.78Z"
         id="path178" />
      <path
         d="M143.55,326.05a9,9,0,0,0-1.79-.79c-.74-.26-1.18.9-.43,1.14a9.63,9.63,0,0,0,1.93.46A.45.45,0,0,0,143.55,326.05Z"
         id="path180" />
      <path
         d="M143.05,88.29a14.31,14.31,0,0,0-10.88.71c-.77.42-.15,1.49.61,1.32a20.09,20.09,0,0,1,9.79-.24C143.59,90.34,144.07,88.59,143.05,88.29Z"
         id="path182" />
      <path
         d="M197.18,81c-2.35-5.92-10-6-14.19-2.09-1.23,1.15.67,2.95,1.91,1.8,3.53-3.27,7.86-1.85,10.72,1.38C196.39,83,197.56,82,197.18,81Z"
         id="path184" />
      <path
         class="cls-4"
         d="M171.8,294.4a.32.32,0,0,0,0-.64,5,5,0,0,0-5,5.17c.09,2.55,3,4.57,5.1,2.6.32-.3-.12-.91-.49-.63a2.24,2.24,0,0,1-3.26-.66,3.41,3.41,0,0,1-.16-3.08A4.18,4.18,0,0,1,171.8,294.4Z"
         id="path186" />
      <path
         class="cls-4"
         d="M179.65,292.06a16.52,16.52,0,0,0-.88,4.62,2.26,2.26,0,0,0-2.47,2,2.07,2.07,0,0,0-.86-1.88,1.9,1.9,0,0,0-2.91,1.26,1.77,1.77,0,0,0,.15,1.42,2,2,0,0,0,3.06.43,1.87,1.87,0,0,0,.55-1.15,2.16,2.16,0,0,0,2.69,2.15.37.37,0,0,0,.25-.35,8.9,8.9,0,0,0,.53,1.35.4.4,0,0,0,.74-.28c-.61-3.29-1-6.08.09-9.3C180.8,291.7,179.85,291.47,179.65,292.06Zm-4.37,7.07a1.22,1.22,0,0,1-1.81,0,1.1,1.1,0,0,1-.08-1.32,1.34,1.34,0,0,1,1.48-.43A1.22,1.22,0,0,1,175.29,299.13Zm3.63,1a1.69,1.69,0,0,1-1.7-1.09,1.42,1.42,0,0,1,1.56-1.71,11.1,11.1,0,0,0,.43,3A.3.3,0,0,0,178.91,300.17Z"
         id="path188" />
      <path
         class="cls-4"
         d="M183.67,299.12c0,1.35-1.56.89-1.89,0a1.67,1.67,0,0,1-.07-.4c1.32.1,2.94-.54,2.82-2.07s-2-1.4-2.86-.49c-1,1.12-1.32,3.16-.08,4.24a1.76,1.76,0,0,0,3-1.27C184.53,298.57,183.65,298.55,183.67,299.12Zm-.29-2.78c.37.19.23.76,0,1a2,2,0,0,1-1.61.5,2.82,2.82,0,0,1,.44-.91C182.44,296.67,183,296.13,183.37,296.34Z"
         id="path190" />
      <path
         class="cls-4"
         d="M190.67,294.05c-1.4-.12-3,1.15-2.69,2.58-.45,1.48-.24,3.19,1.44,3.8s3.5-.9,3.79-2.54S192.46,294.2,190.67,294.05Zm1.39,3.86a2.12,2.12,0,0,1-2,1.56c-1.88-.26-1.33-2.65-.67-3.73v0a1.35,1.35,0,0,1,1.84-.32A2.32,2.32,0,0,1,192.06,297.92Z"
         id="path192" />
      <path
         class="cls-4"
         d="M196.34,296.49h0a1.79,1.79,0,0,0-.63-3.47,3.12,3.12,0,0,0-2,.69.45.45,0,0,0-.62.47h0l-.11.09a.35.35,0,0,0,.17.61c.17,1.95.37,4.35,1.39,5.93.16.25.66.27.66-.12a18.1,18.1,0,0,0-.69-3.42c0-.1,0-.19-.05-.29a4.54,4.54,0,0,0,1.19-.19.39.39,0,0,0,.09.38,8.45,8.45,0,0,1,1.36,1.81c.37.67.57,1.41.91,2.08a.48.48,0,0,0,.91-.21C198.82,299.18,197.53,297.57,196.34,296.49Zm-2.08-.42c-.1-.59-.18-1.18-.26-1.78a3,3,0,0,1,1.13-.55c.69-.14,1.5.13,1.53.92C196.71,295.95,195.33,296,194.27,296.07Z"
         id="path194" />
      <path
         class="cls-4"
         d="M208.07,296.33a4.12,4.12,0,0,0-7.06-2.17.32.32,0,0,0,.4.48l.61,2.88a12.5,12.5,0,0,0,.67,2.57.43.43,0,0,0,0,.78C205.55,302.09,208.52,299.16,208.07,296.33ZM203.53,300a10.46,10.46,0,0,0-.44-2.45c-.28-1.16-.56-2.33-.84-3.49a3.31,3.31,0,0,1,4.89,2.75C207.22,299,205.4,299.94,203.53,300Z"
         id="path196" />
      <path
         class="cls-4"
         d="M210.65,299.48a2,2,0,0,0-.89-.11s0,0,0,0a13.91,13.91,0,0,0-.8-5.68.36.36,0,0,0-.05-.09l.37,0c.49-.1.3-.75-.12-.8a7.82,7.82,0,0,0-1.28,0,.45.45,0,0,0,0,.9l.35,0a.33.33,0,0,0,0,.23,38.47,38.47,0,0,1,1,5.5.21.21,0,0,0,.06.1,5.48,5.48,0,0,0-.66.2c-.41.15-.19.85.24.74s1.11-.15,1.66-.25A.34.34,0,0,0,210.65,299.48Z"
         id="path198" />
      <path
         class="cls-4"
         d="M214.52,297.9a10.88,10.88,0,0,0-2.12.48,15.12,15.12,0,0,0-.38-2,11.47,11.47,0,0,0,1.73-.35.49.49,0,0,0-.17-1,12,12,0,0,0-1.82.32c-.22-.79-.46-1.58-.68-2.34a11.32,11.32,0,0,0,2.44-.34c.38-.11.36-.76-.05-.8a14.9,14.9,0,0,0-3.08.23c-.49.06-.44.82,0,.93a25.88,25.88,0,0,0,1.36,6.1.37.37,0,0,0,.66.05,10.74,10.74,0,0,0,2.24-.48C215,298.55,215,297.85,214.52,297.9Z"
         id="path200" />
      <path
         class="cls-4"
         d="M215.57,290.54c-.14-.55-1.08-.32-1,.24a44,44,0,0,0,1.46,6.2c.2.54.95.19.89-.31A44,44,0,0,0,215.57,290.54Z"
         id="path202" />
      <path
         class="cls-4"
         d="M217.53,298.42a.55.55,0,0,0-.61-.23l-.09,0a.51.51,0,0,0-.35.59.61.61,0,0,0,.67.76A.7.7,0,0,0,217.53,298.42Z"
         id="path204" />
      <path
         class="cls-4"
         d="M281,197.52c0-.46-.79-.53-.82-.05s-.11.52.15.8a.36.36,0,0,0,.5,0C281.13,198,281.05,197.87,281,197.52Z"
         id="path206" />
      <path
         class="cls-4"
         d="M104.54,143.67c-.47.11-.81.13-1,.62a.41.41,0,0,0,.18.45h0v0a.84.84,0,0,0,1.45-.72A.53.53,0,0,0,104.54,143.67Z"
         id="path208" />
      <path
         class="cls-1"
         d="M134.15,330.05l-.16.16a1.5,1.5,0,0,0,2.12,2.12l.16-.16a1.5,1.5,0,1,0-2.12-2.12Z"
         id="path210" />
      <path
         class="cls-1"
         d="M136.12,329.71,130.82,323c-1.09-1.38-3.13.38-2.36,1.82A28.31,28.31,0,0,0,135.1,333c1.46,1.24,3.6-.87,2.12-2.12a26,26,0,0,1-6.17-7.62l-2.36,1.82,5.31,6.74c1.19,1.52,3.3-.62,2.12-2.12Z"
         id="path212" />
      <path
         class="cls-1"
         d="M137.75,329.9l-4.36-5.08a1.51,1.51,0,0,0-2.51,1.46,10.33,10.33,0,0,0,3.73,5,1.51,1.51,0,0,0,2.05-.54,1.53,1.53,0,0,0-.54-2.05,6.78,6.78,0,0,1-2.35-3.19l-2.51,1.46,4.36,5.08c1.26,1.47,3.37-.66,2.12-2.12Z"
         id="path214" />
      <path
         class="cls-1"
         d="M138.46,330.3l-3.23-5.66c-.83-1.45-3.29-.49-2.74,1.16a13.19,13.19,0,0,0,4,6c1.47,1.23,3.6-.88,2.12-2.12a10.31,10.31,0,0,1-3.25-4.7l-2.74,1.16,3.23,5.66a1.5,1.5,0,0,0,2.59-1.51Z"
         id="path216" />
      <path
         class="cls-1"
         d="M131.83,327.08a4.56,4.56,0,0,0,.9,5.25,1.51,1.51,0,0,0,2.36-1.82c-.85-1.86-3.42-3.9-5.52-2.67a2.26,2.26,0,0,0-.5,3.44,3.27,3.27,0,0,0,3.64.65c1.84-.57,1.06-3.46-.8-2.89a3.48,3.48,0,0,0-.63.18h-.11q.42.15,0,.65.13.63-.39.63H131c-.09-.05.15.05.15.05a2.66,2.66,0,0,1,1.35,1.48l2.36-1.82a1.5,1.5,0,0,1-.43-1.62,1.55,1.55,0,0,0-.54-2.05,1.51,1.51,0,0,0-2.05.54Z"
         id="path218" />
      <path
         class="cls-1"
         d="M136.55,328.31v-.78l-2.95.4.33,1.11a1.5,1.5,0,1,0,2.89-.8l-.33-1.11a1.51,1.51,0,0,0-2.95.4v.78a1.5,1.5,0,0,0,3,0Z"
         id="path220" />
      <path
         class="cls-1"
         d="M137.54,328.39l-.33-1a1.54,1.54,0,0,0-1.85-1,1.51,1.51,0,0,0-1,1.85l.33,1a1.54,1.54,0,0,0,1.85,1,1.51,1.51,0,0,0,1-1.85Z"
         id="path222" />
      <path
         class="cls-1"
         d="M137.82,328.41l-.33-1a1.53,1.53,0,0,0-1.85-1,1.52,1.52,0,0,0-1,1.85l.33,1a1.53,1.53,0,0,0,1.85,1,1.52,1.52,0,0,0,1-1.85Z"
         id="path224" />
      <path
         class="cls-1"
         d="M137,327.88l-.54-.94a1.53,1.53,0,0,0-1.69-.69,1.5,1.5,0,0,0-1.1,1.45l.32,2.93a1.54,1.54,0,0,0,1.5,1.5,1.51,1.51,0,0,0,1.5-1.5l-.32-2.93-2.8.76.54.94a1.5,1.5,0,0,0,2.59-1.51Z"
         id="path226" />
      <path
         class="cls-1"
         d="M130.34,321.66l-2.17-5.91a1.51,1.51,0,0,0-2.89,0,6.9,6.9,0,0,0,1.57,6.9,1.51,1.51,0,0,0,2.51-1.46l-1.48-5.74c-.41-1.59-3.14-1.32-2.95.4a12.55,12.55,0,0,0,2.89,6.81c1.24,1.49,3.35-.65,2.12-2.12a8.94,8.94,0,0,1-2-4.69l-2.95.4,1.48,5.74,2.51-1.46a3.86,3.86,0,0,1-.8-4h-2.89l2.17,5.91c.66,1.8,3.56,1,2.89-.8Z"
         id="path228" />
      <path
         class="cls-1"
         d="M126.17,316l2.31,4.95c.82,1.75,3.4.23,2.59-1.51l-2.31-4.95c-.82-1.75-3.4-.23-2.59,1.51Z"
         id="path230" />
      <path
         class="cls-1"
         d="M126.43,316l2.3,4.13c.94,1.69,3.53.18,2.59-1.51l-2.3-4.13c-.94-1.69-3.53-.18-2.59,1.51Z"
         id="path232" />
      <path
         class="cls-1"
         d="M126.67,314.86l1.81,4.45a1.55,1.55,0,0,0,1.85,1,1.51,1.51,0,0,0,1-1.85l-1.81-4.45a1.55,1.55,0,0,0-1.85-1,1.51,1.51,0,0,0-1,1.85Z"
         id="path234" />
      <path
         class="cls-1"
         d="M126.87,315.35l2.31,4.45c.89,1.71,3.48.2,2.59-1.51l-2.31-4.45c-.89-1.71-3.48-.2-2.59,1.51Z"
         id="path236" />
      <path
         class="cls-1"
         d="M126.84,314.76l2.23,4.18c.91,1.7,3.5.19,2.59-1.51l-2.23-4.18c-.91-1.7-3.5-.19-2.59,1.51Z"
         id="path238" />
    </g>
  </g>
  <path
     style="fill:#ffffff;fill-opacity:1;stroke:none;stroke-width:0.0158929;stroke-miterlimit:4;stroke-dasharray:none"
     d="m 102.98408,261.97595 c -1.99027,-0.47461 -5.3802,-2.43021 -6.452658,-3.72244 -0.599947,-0.72289 -0.384291,-0.84485 1.497106,-0.84667 3.142492,-0.003 5.685802,-1.73395 6.417062,-4.36729 0.3296,-1.18693 0.6007,-2.42954 0.60244,-2.76136 0.002,-0.33182 0.76943,-1.33744 1.70598,-2.23472 0.93655,-0.89727 1.70281,-1.96674 1.70281,-2.37661 0,-1.13698 1.01356,-0.8875 1.405,0.34584 0.4465,1.40678 4.58423,5.1526 5.6917,5.1526 1.28529,0 1.03083,-0.97648 -0.87128,-3.3434 -2.07094,-2.577 -3.955,-7.30742 -3.955,-9.93004 0,-2.69647 1.3961,-6.32592 3.41275,-8.87215 1.90054,-2.39962 1.32158,-3.84239 -0.72188,-1.79893 l -1.16787,1.16787 -1.49393,-1.59926 c -1.08105,-1.15727 -2.42884,-1.78103 -4.87664,-2.25694 -1.86049,-0.36172 -5.679,-1.18276 -8.485596,-1.82453 -5.918404,-1.35333 -15.558819,-2.15121 -26.290468,-2.17591 -7.608009,-0.0175 -14.830958,-0.80537 -16.761006,-1.82825 -1.202605,-0.63735 -0.89489,-3.1353 0.52002,-4.22138 1.45115,-1.1139 14.852979,-2.10961 23.587194,-1.75246 9.925825,0.40589 16.944537,1.58147 25.182366,4.21787 8.02363,2.56784 9.13653,3.16203 9.55801,5.10308 0.49535,2.28133 1.33875,3.40317 2.03504,2.70689 0.38429,-0.38429 0.28237,-1.68121 -0.31055,-3.95176 -2.16886,-8.30546 3.06282,-21.1169 7.44316,-18.22697 1.47071,0.9703 1.70746,3.47282 0.83765,8.85391 -1.10784,6.8536 -0.78641,16.27838 0.8495,24.90857 0.79199,4.17813 1.43438,8.64802 1.42752,9.93309 -0.0175,3.27761 -1.70572,6.62836 -4.42459,8.78174 -1.50173,1.18939 -2.20326,2.13764 -1.99089,2.69106 0.4135,1.07757 -1.7251,3.39789 -3.7977,4.1204 -1.45279,0.50645 -1.59759,0.42245 -1.90286,-1.10393 -0.37903,-1.89511 -2.00861,-2.2612 -2.45566,-0.55167 -0.20457,0.78224 -1.09993,1.2746 -3.09663,1.70281 -1.54488,0.33132 -2.86015,0.57625 -2.92283,0.5443 -0.0627,-0.032 -0.91645,-0.24947 -1.89727,-0.48336 z"
     id="path1091" />
  <path
     style="fill:#ffffff;fill-opacity:1;stroke:none;stroke-width:0.0158929;stroke-miterlimit:4;stroke-dasharray:none"
     d="m 91.256813,236.74177 c -4.202315,-0.44406 -6.305731,-0.91113 -6.684761,-1.48438 -0.787442,-1.19093 -0.211463,-3.70019 1.788252,-7.79055 l 1.734798,-3.54848 2.376289,0.32049 c 4.085382,0.551 4.988411,0.83134 4.616488,1.43312 -0.198249,0.32077 -0.20383,1.20726 -0.0124,1.96998 0.454875,1.81237 2.445957,1.89324 2.699269,0.10964 0.211086,-1.48629 2.054495,-1.87707 6.037222,-1.27982 3.57645,0.53632 5.45242,2.51888 4.94463,5.2256 -1.09511,5.83744 -3.48245,6.5256 -17.499787,5.0444 z"
     id="path1093" />
  <path
     style="fill:#ffffff;fill-opacity:1;stroke:none;stroke-width:0.0158929;stroke-miterlimit:4;stroke-dasharray:none"
     d="m 96.91638,246.24692 c -0.207647,-0.20765 -3.370585,-0.39921 -7.028751,-0.4257 l -6.651212,-0.0482 -1.090267,-2.63073 c -0.68843,-1.66113 -0.952476,-3.17974 -0.716412,-4.12029 0.365863,-1.45772 0.404946,-1.46918 1.82836,-0.53653 1.339655,0.87778 9.417812,1.74305 19.522672,2.09112 2.85066,0.0982 3.38431,0.53052 3.39694,2.75193 0.0125,2.2036 -1.87622,3.29591 -5.69905,3.29591 -1.751608,0 -3.354632,-0.16989 -3.56228,-0.37754 z"
     id="path1095" />
  <path
     style="fill:#ffffff;fill-opacity:1;stroke:none;stroke-width:0.0158929;stroke-miterlimit:4;stroke-dasharray:none"
     d="m 89.799784,253.7109 c -6.365572,-0.86621 -8.020141,-1.61599 -8.021105,-3.63482 l -6.99e-4,-1.465 6.386258,0.15578 c 3.512442,0.0857 8.131367,0.43157 10.264278,0.76866 3.803804,0.60116 3.871104,0.64163 3.516464,2.11465 -0.74659,3.10105 -2.417134,3.3845 -12.145196,2.06073 z"
     id="path1097" />
  <path
     style="fill:#ffffff;fill-opacity:1;stroke:none;stroke-width:0.0158929;stroke-miterlimit:4;stroke-dasharray:none"
     d="m 189.87689,238.07163 c -2.24721,-0.6531 -3.87413,-2.51788 -4.67065,-5.3535 -0.70875,-2.52315 -3.04042,-15.18866 -2.81813,-15.30788 0.0777,-0.0417 1.66596,-0.38017 3.52957,-0.75228 1.86361,-0.3721 5.27446,-1.57224 7.57968,-2.66698 2.30522,-1.09475 4.25557,-1.99045 4.33412,-1.99045 0.0785,0 0.2982,1.59639 0.48813,3.54754 0.39123,4.01913 2.76057,11.70531 4.46632,14.48884 1.02767,1.67701 1.05727,1.98526 0.30135,3.13894 -1.21257,1.85061 -5.09734,4.38968 -7.60769,4.97235 -2.57661,0.59805 -3.3162,0.58794 -5.6027,-0.0766 z"
     id="path1103" />
  <path
     style="fill:#ffffff;fill-opacity:1;stroke:none;stroke-width:0.0158929;stroke-miterlimit:4;stroke-dasharray:none"
     d="m 140.6475,328.21771 c -1.98522,-1.48674 -15.40031,-31.55685 -20.53202,-46.02283 -2.20809,-6.22446 -2.41902,-7.19335 -1.57051,-7.21395 0.53909,-0.0131 1.86522,-0.49504 2.94696,-1.07102 l 1.96681,-1.04723 2.63506,6.88897 c 1.44928,3.78894 3.86252,9.57091 5.36275,12.84883 4.17344,9.11872 13.92669,27.81266 14.51079,27.81266 0.7607,0 0.63532,-1.38921 -0.34693,-3.84409 -0.7897,-1.97366 -0.76471,-2.96187 0.28374,-11.22169 0.63233,-4.98159 1.14972,-9.76505 1.14976,-10.62989 l 7e-5,-1.57245 2.41232,1.22299 c 1.32678,0.67265 2.57297,1.47302 2.76933,1.7786 0.37798,0.58825 0.10258,13.03635 -0.42072,19.01618 -0.20336,2.32379 -0.55879,3.54753 -1.03036,3.54753 -0.39595,0 -1.65217,1.8863 -2.7916,4.19177 -1.60983,3.25728 -2.50234,4.39613 -4.00343,5.10845 -2.31533,1.0987 -2.16409,1.08933 -3.34202,0.20717 z m 3.26705,-1.53244 c 0.33603,-0.5437 -1.37838,-1.73129 -2.49931,-1.73129 -0.84459,0 -0.75925,1.54594 0.10459,1.89451 1.16339,0.46944 2.04067,0.40965 2.39472,-0.16322 z"
     id="path1105" />
  <path
     style="fill:#ffffff;fill-opacity:1;stroke:none;stroke-width:0.0158929;stroke-miterlimit:4;stroke-dasharray:none"
     d="m 169.75819,208.24596 c -24.49557,-3.00535 -41.1499,-16.53188 -48.78748,-39.62484 -3.5488,-10.73016 -4.58937,-17.99975 -4.58821,-32.05402 9.5e-4,-11.53043 0.29099,-13.90342 1.60917,-13.16573 0.71752,0.40155 1.51196,-0.47933 3.97312,-4.40541 7.13607,-11.38358 16.09734,-23.792195 17.04669,-23.604436 0.52109,0.103059 1.93637,0.34658 3.14508,0.541157 l 2.19765,0.353778 -1.40148,1.522226 c -3.26176,3.542785 -18.00713,24.567485 -18.94602,27.014215 -0.19514,0.50851 0.42543,0.8605 1.94566,1.10359 l 2.23217,0.35694 -0.28914,2.56525 c -0.43696,3.87671 1.05417,7.11622 4.82087,10.47343 2.62102,2.33607 7.18297,5.13341 8.37167,5.13341 1.05752,0 -0.16312,-1.7258 -2.40875,-3.40563 -4.7219,-3.53216 -7.35699,-6.42541 -8.09473,-8.88776 -1.5528,-5.18279 1.19995,-9.84321 5.81403,-9.84321 3.60595,0 6.94344,2.36523 11.41138,8.08708 3.72718,4.77319 7.85196,8.94108 8.84861,8.94108 0.28575,0 0.92357,0.15504 1.41738,0.34453 1.5886,0.6096 1.00285,-1.39547 -0.66309,-2.26979 -2.43464,-1.27775 -5.44693,-4.80559 -7.74379,-9.06912 -1.15536,-2.14462 -2.02481,-3.95208 -1.93212,-4.01657 0.0927,-0.0645 1.10439,-0.67971 2.24822,-1.36715 2.12594,-1.27769 4.82618,-5.04508 6.16149,-8.59653 1.06177,-2.8239 1.56364,-3.33013 3.69856,-3.73064 3.38204,-0.63448 8.77784,2.01992 8.77784,4.31815 0,2.96771 2.50007,7.72984 5.7258,10.90649 1.82278,1.79506 3.64281,3.25884 4.04452,3.25287 0.40171,-0.006 2.77376,-3.11992 5.27122,-6.91987 3.3807,-5.14383 13.24707,-19.39121 14.77524,-21.33596 0.0736,-0.0936 1.4547,0.005 3.06915,0.21915 3.40664,0.4519 3.40604,0.47503 -0.13477,5.14136 -2.81726,3.71277 -16.85821,24.35132 -16.85821,24.77958 0,0.63726 3.00899,0.96175 3.68853,0.39778 0.53382,-0.44304 0.80001,-0.44147 0.94903,0.006 0.27135,0.81405 11.2049,0.80568 14.97642,-0.0114 6.65858,-1.44264 10.97865,-5.47515 13.11035,-12.23765 0.76953,-2.44125 1.21583,-3.07802 2.14515,-3.06062 0.6454,0.0121 4.45127,0.87947 8.45751,1.92755 5.44965,1.42569 7.5002,2.21417 8.1423,3.13091 2.3277,3.32325 3.4931,4.30116 4.24423,3.56139 0.60123,-0.59215 0.60126,-0.93746 1.5e-4,-1.89999 -0.40404,-0.64698 -0.65307,-1.2407 -0.55339,-1.31939 0.56589,-0.44674 3.80939,0.97806 4.13031,1.81436 0.20937,0.54562 0.36702,3.86586 0.35032,7.37832 -0.0246,5.17548 0.12364,6.38626 0.78188,6.38626 0.90326,0 5.26116,-5.42849 6.83497,-8.51408 1.18787,-2.32896 1.93257,-2.91815 3.19328,-2.52648 0.66459,0.20648 1.01297,-0.18221 1.25702,-1.40248 0.27765,-1.38826 0.69518,-1.75519 2.3506,-2.06575 2.3918,-0.44871 3.08979,-1.30168 1.8231,-2.2279 -0.69905,-0.51116 -0.76043,-0.82948 -0.25699,-1.33291 0.36375,-0.36376 0.90945,-0.66137 1.21266,-0.66137 0.30321,0 1.01061,-0.41568 1.57199,-0.92372 1.27521,-1.15404 4.99323,-1.2936 6.92469,-0.25992 4.26398,2.28202 4.27109,11.50655 0.0149,19.42141 -3.23113,6.00873 -12.23267,13.43534 -25.19619,20.78781 -2.41751,1.37112 -3.4244,2.37356 -4.39894,4.37947 -0.69511,1.43073 -1.26383,2.9269 -1.26383,3.3248 0,1.12105 -5.77817,10.63201 -9.31095,15.32597 -4.08437,5.42686 -11.3452,12.72881 -15.83216,15.92183 -6.95914,4.95228 -16.34751,8.9396 -25.41266,10.79299 -4.43951,0.90767 -15.20057,1.55799 -18.69207,1.12963 z M 183.66451,183.947 c 0,-0.85316 -0.64815,-1.23828 -2.96045,-1.75906 -3.24637,-0.73115 -4.4785,-1.50943 -5.00229,-3.15976 -0.18921,-0.59617 -0.83766,-1.08395 -1.44099,-1.08395 -1.62493,0 -1.45767,2.86889 0.26142,4.48388 2.76921,2.60154 9.14231,3.66035 9.14231,1.51889 z m -17.92491,-9.14976 c 16.14334,-3.06234 36.35924,-13.95296 50.35763,-27.12846 2.72535,-2.56513 5.10765,-4.34847 5.809,-4.34847 0.65391,0 2.02309,0.74658 3.0426,1.65907 1.73744,1.55504 1.84749,1.87536 1.75495,5.10845 -0.11634,4.06501 0.83307,4.61964 2.36861,1.38373 2.30289,-4.85298 -0.17264,-8.79199 -8.4998,-13.52474 -5.01037,-2.84765 -6.5412,-3.1824 -6.5412,-1.43039 0,0.79193 0.78388,1.52343 2.55422,2.38352 1.40483,0.68252 2.55423,1.40555 2.55423,1.60674 0,1.03177 -14.18502,12.14244 -22.42041,17.56121 -25.09399,16.51146 -46.15261,19.61613 -62.6447,9.2357 -3.01479,-1.89757 -4.61651,-2.07266 -4.61651,-0.50465 0,1.77998 9.53919,6.72705 15.44375,8.00919 4.88129,1.05994 15.22114,1.05453 20.83763,-0.0109 z m 88.89422,-29.0646 c 0.53496,-2.57652 2.04463,-5.16955 3.61267,-6.20515 2.43337,-1.6071 6.30176,-3.46098 6.30176,-3.02004 0,0.61282 -4.53298,5.21446 -6.81126,6.91442 -2.35999,1.76094 -1.99388,2.54029 0.76554,1.6296 5.36029,-1.76906 10.45408,-9.23664 11.00806,-16.13801 0.33888,-4.22174 0.004,-5.58706 -1.25142,-5.10523 -0.63552,0.24387 -0.88374,1.20598 -0.91279,3.53796 -0.0411,3.29974 -0.97137,6.94904 -1.05541,4.14024 -0.022,-0.73325 -0.80098,-2.04414 -1.73119,-2.91309 l -1.69129,-1.5799 1.28392,-1.91155 c 0.83291,-1.24008 1.8258,-1.97465 2.8265,-2.09116 1.6889,-0.19664 2.03548,-0.92882 0.68496,-1.44706 -2.26871,-0.87059 -7.44544,1.38163 -8.74135,3.80307 -1.18514,2.21444 -0.60154,3.43692 1.82937,3.83205 2.88514,0.46897 3.5885,1.24439 2.91365,3.2122 -0.41537,1.21123 -1.61061,2.08459 -5.30087,3.87338 -2.62051,1.27024 -5.23858,2.89493 -5.81795,3.61041 -1.28432,1.58607 -1.36338,4.45317 -0.16979,6.15726 1.17781,1.68156 1.86451,1.59046 2.25689,-0.2994 z m -24.41017,-6.81127 c -0.67054,-3.61672 -3.69061,-7.52076 -5.81786,-7.52076 -1.19047,0 -0.82941,1.11823 0.92873,2.87637 0.90961,0.90961 2.09372,2.80563 2.63134,4.21338 1.2457,3.2618 2.83901,3.56597 2.25779,0.43101 z"
     id="path1107" />
  <path
     style="fill:#ffffff;fill-opacity:1;stroke:none;stroke-width:0.0158929;stroke-miterlimit:4;stroke-dasharray:none"
     d="m 221.28283,106.28407 c -0.50161,-0.39022 -1.00075,-1.22035 -1.10922,-1.84471 -0.16259,-0.93603 -1.29142,-1.40569 -6.43344,-2.67673 -11.56162,-2.85789 -17.40157,-3.443111 -31.67846,-3.174508 -14.45725,0.271998 -13.98281,0.124336 -13.99765,4.356518 -0.008,2.29171 -0.10495,2.45273 -1.2858,2.13627 -0.70241,-0.18823 -2.77157,-0.34574 -4.59812,-0.35 l -3.321,-0.008 0.19917,-3.52638 0.19918,-3.526375 -4.82465,-1.283997 c -6.49622,-1.728859 -15.28411,-3.021503 -23.68791,-3.484342 l -6.94357,-0.382418 3.14269,-6.527459 c 1.72848,-3.590103 4.45717,-8.620493 6.06375,-11.178645 l 2.92105,-4.651185 4.28545,-1.150453 c 10.04486,-2.696598 19.45595,-4.022483 28.5282,-4.019204 4.83067,0.0017 5.97343,0.239682 13.63057,2.838026 4.59682,1.559866 8.47424,2.83612 8.6165,2.83612 0.14227,0 0.36935,-0.5747 0.50464,-1.277112 0.21736,-1.128507 0.25498,-1.100987 0.32328,0.236503 0.0871,1.705116 1.01632,2.269292 2.48962,1.511545 0.73159,-0.376272 0.99331,-0.28655 0.99331,0.340531 0,1.399678 1.94221,2.021105 6.63205,2.121978 l 4.43625,0.09542 -3.40563,0.332322 -3.40563,0.332321 6.52746,3.328578 c 3.5901,1.830717 9.12928,4.844991 12.30927,6.698386 l 5.78182,3.36981 -0.91771,2.381261 c -1.08855,2.82452 -1.25296,12.866889 -0.2504,15.294279 0.72438,1.75386 -0.0645,2.14323 -1.72507,0.8514 z M 143.36454,89.010266 c 0,-2.444531 -11.03684,-2.020132 -11.51113,0.442637 -0.14338,0.744511 0.68007,0.850481 5.6717,0.729892 5.21349,-0.125948 5.83943,-0.251635 5.83943,-1.172529 z m 54.08973,-7.656575 c 0.27557,-1.430975 -3.44508,-4.80724 -5.7804,-5.245349 -2.60877,-0.489406 -6.14218,0.467438 -8.14221,2.204904 -1.46795,1.275235 -1.50844,1.426384 -0.62321,2.32605 0.88952,0.904038 1.0651,0.889044 2.90502,-0.24809 1.07705,-0.665654 2.64322,-1.21028 3.48038,-1.21028 1.74501,0 4.31935,1.205163 5.42811,2.541141 0.9266,1.116491 2.48686,0.906134 2.73231,-0.368376 z"
     id="path1111" />
  <path
     style="fill:#ffffff;fill-opacity:1;stroke:none;stroke-width:0.0158929;stroke-miterlimit:4;stroke-dasharray:none"
     d="m 246.41657,117.5163 c -7.18006,-3.70366 -10.50825,-8.50169 -10.1597,-14.64654 0.21736,-3.83201 -0.77009,-5.071893 -1.83801,-2.30787 -0.86582,2.24096 -0.37944,6.94614 1.00789,9.75018 0.64153,1.29666 1.08739,2.35756 0.99079,2.35756 -0.0966,0 -0.80667,-0.23991 -1.57793,-0.53315 -1.86043,-0.70733 -3.78006,-5.79647 -3.78006,-10.02129 0,-3.636479 1.01701,-8.176528 1.83162,-8.176528 0.91661,0 7.29317,5.298998 10.68372,8.878298 3.2445,3.42513 7.73218,10.22814 7.13863,10.82169 -0.62483,0.62483 -4.92052,-2.83663 -6.94814,-5.59879 -2.07352,-2.82471 -3.05654,-3.42228 -3.05654,-1.85805 0,2.32193 5.50723,8.2388 9.25987,9.94861 1.02201,0.46566 1.52462,1.13243 1.52462,2.02257 0,1.72226 -0.66538,1.63882 -5.07676,-0.63669 z"
     id="path1113" />
  <path
     style="fill:#ffffff;fill-opacity:1;stroke:none;stroke-width:0.0158929;stroke-miterlimit:4;stroke-dasharray:none"
     d="m 228.38014,109.37404 c -1.19164,-0.75713 -2.47204,-5.33771 -2.49971,-8.94261 -0.0426,-5.551258 1.70182,-10.460631 3.34738,-9.420586 0.57286,0.362065 0.52193,0.918241 -0.24591,2.685535 -1.22922,2.829239 -1.20772,9.786961 0.0409,13.226661 0.49586,1.36603 0.90157,2.57929 0.90157,2.69613 0,0.35159 -0.80656,0.22355 -1.5442,-0.24513 z"
     id="path1121" />
  <path
     style="fill:#ffffff;fill-opacity:1;stroke:none;stroke-width:0.00397324;stroke-miterlimit:4;stroke-dasharray:none"
     d="m 246.42523,129.45862 c -0.008,-2.76921 -0.0706,-4.10956 -0.23196,-4.99186 -0.1213,-0.66339 -0.20512,-1.22362 -0.18627,-1.24496 0.0299,-0.0338 4.75592,1.66381 4.87313,1.75046 0.0863,0.0638 -0.7283,2.27612 -1.27578,3.46472 -0.55668,1.2086 -2.40938,4.12441 -2.90323,4.56917 -0.25733,0.23175 -0.26477,0.13607 -0.27589,-3.54753 z"
     id="path1125" />
  <path
     style="fill:#ffffff;fill-opacity:1;stroke:none;stroke-width:0.00397324;stroke-miterlimit:4;stroke-dasharray:none"
     d=""
     id="path1127" />
  <path
     style="fill:#ffffff;fill-opacity:1;stroke:none;stroke-width:0.00397324;stroke-miterlimit:4;stroke-dasharray:none"
     d="m 267.57542,182.0644 c -0.052,-0.16394 -0.0404,-0.34406 0.0259,-0.40024 0.0663,-0.0562 0.56593,-0.44886 1.11032,-0.8726 0.5444,-0.42374 1.47012,-1.20147 2.05715,-1.72827 1.08238,-0.97133 1.49955,-1.15118 1.66572,-0.71815 0.067,0.17451 -0.17544,0.48884 -0.89133,1.15584 -1.24591,1.16081 -3.43534,2.86151 -3.68381,2.86151 -0.10415,0 -0.23193,-0.13414 -0.28397,-0.29809 z"
     id="path1129" />
  <path
     style="fill:#ffffff;fill-opacity:1;stroke:none;stroke-width:0.00397324;stroke-miterlimit:4;stroke-dasharray:none"
     d="m 273.07154,176.79996 c -0.2521,-0.25209 -0.20957,-0.45284 0.17181,-0.81113 0.68861,-0.64692 1.2498,-0.0558 0.5815,0.61253 -0.41552,0.41551 -0.51118,0.44073 -0.75331,0.1986 z"
     id="path1131" />
  <path
     style="fill:#ffffff;fill-opacity:1;stroke:none;stroke-width:0.000702376;stroke-miterlimit:4;stroke-dasharray:none"
     d="m 245.96796,190.94682 c -0.33282,-0.15116 -0.41911,-0.63851 -0.14946,-0.84418 0.0879,-0.067 0.20694,-0.0963 0.86615,-0.21302 6.07079,-1.07487 12.33813,-3.38599 17.67227,-6.51676 0.94505,-0.55468 0.9149,-0.54187 1.10505,-0.46925 0.30189,0.11529 0.45363,0.49028 0.30485,0.75338 -0.0417,0.0737 -0.0966,0.12064 -0.20654,0.17672 -0.0824,0.042 -0.38366,0.21386 -0.6695,0.38189 -5.15048,3.02775 -10.91644,5.23121 -16.85155,6.43983 -0.82297,0.16759 -1.77459,0.33896 -1.87875,0.33832 -0.0497,-3e-4 -0.13636,-0.0214 -0.19252,-0.0469 z"
     id="path1145" />
  <path
     style="fill:#ffffff;fill-opacity:1;stroke:none;stroke-width:0.000702376;stroke-miterlimit:4;stroke-dasharray:none"
     d="m 240.56898,191.78017 c -0.17218,-0.0849 -0.30605,-0.30846 -0.30605,-0.5112 0,-0.13455 0.0916,-0.29254 0.20936,-0.36121 0.12602,-0.0735 0.32368,-0.10877 1.27065,-0.22698 0.3932,-0.0491 0.86024,-0.1125 1.03786,-0.14092 0.18974,-0.0304 0.36045,-0.0448 0.4139,-0.0351 0.41716,0.0762 0.64523,0.59971 0.37365,0.85761 -0.0863,0.082 -0.14479,0.10734 -0.27729,0.12034 -0.0444,0.004 -0.14839,0.0201 -0.23117,0.0351 -0.0828,0.0149 -0.51241,0.0725 -0.95474,0.12782 -0.44233,0.0554 -0.8995,0.1175 -1.01594,0.13808 -0.27252,0.0482 -0.41721,0.0472 -0.52023,-0.004 z"
     id="path1147" />
  <path
     style="fill:#ffffff;fill-opacity:1;stroke:none;stroke-width:0.000702376;stroke-miterlimit:4;stroke-dasharray:none"
     d="m 230.89374,192.5745 c -1.18578,-0.0631 -2.28053,-0.20617 -3.27414,-0.42788 -0.67207,-0.14995 -0.80245,-0.19941 -0.89386,-0.33905 -0.0319,-0.0487 -0.0118,-0.0755 0.30497,-0.40554 0.33443,-0.3485 0.34023,-0.35307 0.42039,-0.33129 0.20917,0.0568 0.8962,0.20106 1.23518,0.25928 1.60043,0.27488 3.48673,0.33348 5.69426,0.1769 0.74085,-0.0525 1.50043,-0.12147 2.63391,-0.23901 0.53807,-0.0558 1.01441,-0.0958 1.05855,-0.089 0.14668,0.0228 0.26268,0.0963 0.33704,0.21355 0.16664,0.26277 0.038,0.64936 -0.25282,0.75995 -0.15575,0.0592 -2.95492,0.31521 -4.35363,0.39816 -0.58722,0.0348 -2.42153,0.0499 -2.90985,0.0239 z"
     id="path1149" />
  <path
     style="fill:#ffffff;fill-opacity:1;stroke:none;stroke-width:0.00397324;stroke-miterlimit:4;stroke-dasharray:none"
     d="m 203.34058,74.091812 c 1.61322,-0.171224 2.98079,-0.359206 3.03906,-0.41774 0.0583,-0.05853 -0.5273,-0.115993 -1.30125,-0.127688 -0.77395,-0.01169 -1.21562,-0.04453 -0.98149,-0.07296 1.91903,-0.23307 4.38475,-1.041297 5.84565,-1.916119 2.56952,-1.538688 4.07619,-4.476085 3.44756,-6.721348 -0.68686,-2.453206 -4.82996,-4.174776 -10.14461,-4.215355 -2.158,-0.01648 -2.85843,0.09711 -3.60844,0.585182 -0.58508,0.38074 -2.30115,4.297957 -3.45735,7.891975 -0.74553,2.317452 -0.76329,2.489953 -0.31171,3.026628 0.20824,0.247474 0.31898,0.449953 0.24609,0.449953 -0.26148,0 -0.64863,-0.57831 -0.73248,-1.094137 -0.0619,-0.380726 -0.1699,-0.546832 -0.39188,-0.602616 -0.30037,-0.07549 -0.29009,-0.126284 0.51769,-2.560286 0.45328,-1.3658 1.19021,-3.313395 1.63763,-4.327989 0.44742,-1.014595 0.84453,-2.085588 0.88247,-2.379985 0.22951,-1.780808 -0.95254,-2.736482 -2.00223,-1.618781 -0.88834,0.945888 -2.90568,5.440633 -3.6417,8.113903 -0.4618,1.677258 -0.54026,1.822416 -0.55154,1.02041 -0.011,-0.783363 -0.21388,-0.779541 -0.36128,0.0068 -0.12401,0.661538 -0.47686,1.526235 -0.5805,1.42259 -0.18513,-0.185132 1.01012,-3.979681 1.95615,-6.210191 0.71906,-1.695333 2.0503,-4.362399 2.40003,-4.808306 0.14598,-0.186127 0.26543,-0.384978 0.26543,-0.44189 0,-0.178878 -3.39317,-1.659962 -5.39225,-2.353659 -1.05362,-0.365614 -3.01692,-1.134051 -4.3629,-1.707636 -5.35899,-2.283722 -10.76801,-3.965389 -16.35469,-5.084682 -2.58125,-0.517154 -6.03299,-1.06853 -6.69931,-1.070139 -0.21159,-5.68e-4 -0.49894,-0.123302 -0.63856,-0.272871 -0.5196,-0.55662 -9.42301,-4.152069 -12.45737,-5.030641 -2.10276,-0.608834 -4.38616,-1.079786 -5.99991,-1.23748 -1.66582,-0.162783 -4.0074,-0.510975 -4.10715,-0.610734 -0.14086,-0.140856 1.64838,-1.383687 2.45949,-1.708394 1.90518,-0.762697 2.91661,-0.861401 8.78279,-0.857096 4.43438,0.0033 5.69388,0.04899 7.09026,0.257483 3.16336,0.472313 5.09434,1.036666 7.38367,2.157971 1.94326,0.951801 3.60734,2.196237 5.28881,3.955092 1.68318,1.760629 2.26113,1.840309 1.71321,0.236196 -0.75532,-2.211329 -1.91324,-3.912809 -4.1294,-6.067817 -2.18414,-2.123883 -5.5344,-4.212628 -8.61962,-5.373982 -0.58535,-0.220337 -1.16809,-0.487355 -1.29499,-0.593372 -0.1269,-0.106018 -0.47811,-0.229967 -0.78046,-0.275441 -0.30235,-0.04548 -1.0925,-0.2373 -1.75589,-0.426278 -2.03228,-0.578931 -3.64401,-0.897607 -4.57481,-0.904547 -0.80851,-0.006 -3.03337,-0.362432 -2.51053,-0.402166 0.62714,-0.04766 1.75404,-0.504802 2.19175,-0.889113 0.62063,-0.544923 0.66953,-1.168078 0.13678,-1.742927 -0.9224,-0.995287 -4.42325,-2.083178 -9.89033,-3.073425 -0.99278,-0.179823 -1.77806,-0.353954 -1.74506,-0.386958 0.10598,-0.105973 3.34575,0.272307 5.39485,0.629908 7.8841,1.375904 15.30318,4.586372 21.73531,9.405544 0.92312,0.691634 2.06154,1.592195 2.52981,2.001248 1.30038,1.135927 5.1703,4.946922 5.88638,5.796756 0.34981,0.415157 0.77583,0.828919 0.9467,0.919475 0.37443,0.198431 2.23843,2.729953 2.55455,3.469371 0.38242,0.894467 0.42379,0.951007 0.72937,0.996615 0.28968,0.04324 0.28523,5.68e-4 -0.18452,-1.773766 -1.18888,-4.49041 -1.66129,-5.580165 -3.83308,-8.842183 -2.80358,-4.21095 -6.03107,-7.484316 -10.17866,-10.323319 -0.90236,-0.617663 -1.20063,-0.886883 -0.98258,-0.886883 0.96107,0 5.2388,1.158572 7.35729,1.992635 1.13578,0.447164 4.17686,2.059508 4.94152,2.619937 0.23414,0.171602 0.53544,0.350601 0.66957,0.397776 0.49689,0.174759 3.22224,2.091261 4.72856,3.325176 1.76623,1.446831 3.7651,3.47025 4.8724,4.932247 1.19737,1.580916 3.11655,4.92479 3.85727,6.720686 0.37463,0.90832 0.97825,2.673181 1.34138,3.921912 0.36312,1.248731 0.7321,2.418858 0.81996,2.60028 0.15222,0.314327 0.16903,0.317669 0.35693,0.07095 0.1531,-0.201023 0.18155,-0.647551 0.12725,-1.9972 -0.0385,-0.95606 -0.0561,-1.738291 -0.0393,-1.738291 0.34442,0 1.53586,0.571594 1.85448,0.889693 0.23385,0.233467 0.98743,0.873451 1.67462,1.422187 0.68718,0.548736 1.31001,1.110897 1.38405,1.24925 0.074,0.138351 0.13463,0.565513 0.13463,0.949248 0,1.14506 -1.01954,2.751714 -2.00525,3.160009 -0.22389,0.09274 -0.40707,0.218686 -0.40707,0.279882 0,0.154092 2.13122,0.907069 3.33468,1.178167 0.54632,0.123068 2.33427,0.358599 3.97323,0.523403 1.63896,0.164802 3.61354,0.42667 4.38795,0.581926 4.46,0.894154 7.17657,3.167969 7.1769,6.007178 1e-4,0.917358 -0.0317,1.019354 -0.45314,1.454184 -0.42253,0.435946 -0.43618,0.480104 -0.2014,0.651779 0.23365,0.170851 0.19837,0.26411 -0.48858,1.291184 -1.33992,2.003336 -3.92157,3.662947 -6.88432,4.425566 -1.149,0.295755 -1.82769,0.372489 -3.67931,0.415996 l -2.27042,0.05335 z"
     id="path1155" />
  <path
     style="fill:#ffffff;fill-opacity:1;stroke:none;stroke-width:0.00397324;stroke-miterlimit:4;stroke-dasharray:none"
     d="m 96.890471,84.869258 c 0,-0.119018 0.167661,-0.683155 0.37258,-1.253638 1.144606,-3.186517 3.278769,-6.211955 6.992229,-9.91235 3.68512,-3.672159 8.8274,-7.520363 12.38411,-9.267602 1.91241,-0.939476 5.56591,-2.361424 6.07267,-2.363497 0.19756,-8.08e-4 1.09354,-0.130448 1.99107,-0.28809 2.65637,-0.466565 5.13475,-0.705156 8.30122,-0.799148 3.12846,-0.09286 4.66688,0.0011 4.57413,0.279348 -0.0296,0.08883 -0.59199,0.243068 -1.24972,0.34275 -13.57189,2.056869 -24.93982,7.288426 -32.77345,15.082443 -2.32039,2.308656 -3.918,4.240471 -5.554828,6.716839 -0.610506,0.923638 -1.110011,1.581964 -1.110011,1.462945 z"
     id="path1157" />
  <path
     style="fill:#ffffff;fill-opacity:1;stroke:none;stroke-width:0.00397324;stroke-miterlimit:4;stroke-dasharray:none"
     d="m 140.24132,56.791865 c -3.1277,-1.667907 -7.98801,-3.265277 -11.77781,-3.870846 -2.3272,-0.371863 -2.20532,-0.306984 -1.47887,-0.787183 0.6352,-0.419888 1.12412,-1.116926 1.12412,-1.602645 0,-0.308416 -0.12555,-0.348544 1.96357,0.627627 1.73346,0.809983 2.03681,0.82221 2.12502,0.08565 0.042,-0.350784 -0.1177,-0.451926 -2.95853,-1.873574 -4.20039,-2.102015 -10.65049,-4.795596 -13.44092,-5.612972 -1.05486,-0.308992 -0.53744,-0.305465 0.91019,0.0062 10.1401,2.183126 15.90658,4.841003 24.88129,11.468261 1.20971,0.893293 2.26013,1.68054 2.33428,1.749437 0.0785,0.07295 -0.54374,0.12265 -1.48997,0.118997 -1.3789,-0.0053 -1.71066,-0.05208 -2.19237,-0.308958 z"
     id="path1161" />
  <path
     style="fill:#ffffff;fill-opacity:1;stroke:none;stroke-width:0.00397324;stroke-miterlimit:4;stroke-dasharray:none"
     d="m 106.42649,68.628882 c 0,-0.428175 -0.80123,-1.550073 -1.44767,-2.027056 -0.78416,-0.578604 -2.11991,-1.192377 -3.2591,-1.497543 -0.49408,-0.132355 -0.95193,-0.286624 -1.01743,-0.342819 -0.16483,-0.141417 2.54001,-1.179793 4.18982,-1.60845 1.76275,-0.458001 4.05835,-0.795571 5.41016,-0.795571 0.58976,0 1.2343,-0.0616 1.43231,-0.136883 0.42123,-0.16015 0.6019,-0.703097 0.37503,-1.127012 -0.1376,-0.257105 -0.28975,-0.29702 -1.13224,-0.29702 -2.2765,0 -5.38991,0.486875 -7.81461,1.22205 -1.33572,0.404991 -3.911851,1.46729 -4.682746,1.930983 -0.455747,0.274132 -0.721649,0.300262 -3.228255,0.317235 -1.50238,0.01017 -2.7316,0.0062 -2.7316,-0.0088 0,-0.01501 0.558737,-0.44311 1.241637,-0.951324 3.496666,-2.602221 7.507964,-4.671194 11.883774,-6.129492 1.5337,-0.511127 2.20746,-0.652444 3.99137,-0.83717 8.68862,-0.899722 15.48628,-0.489259 22.33178,1.348457 l 1.77377,0.476179 -2.41232,0.169316 c -3.94198,0.276682 -6.57435,0.796443 -10.03229,1.980881 -4.64785,1.592011 -8.59851,3.787297 -12.98575,7.21587 -0.95306,0.744806 -1.76722,1.354192 -1.80924,1.354192 -0.042,0 -0.0764,-0.11521 -0.0764,-0.256021 z"
     id="path1165" />
  <path
     style="fill:#ffffff;fill-opacity:1;stroke:none;stroke-width:0.011238;stroke-miterlimit:4;stroke-dasharray:none"
     d="m 237.27174,361.82155 c 0.48554,-2.17655 0.32559,-19.00928 -0.23549,-24.78382 -1.29348,-13.31199 -1.79317,-17.38781 -2.73095,-22.27535 -2.66744,-13.90213 -4.17815,-26.37492 -3.37607,-27.87362 0.26631,-0.4976 1.43714,-1.10522 3.12819,-1.62344 1.48642,-0.4555 2.99302,-0.91741 3.34799,-1.02645 0.511,-0.15698 0.694,0.20063 0.87871,1.71715 0.12831,1.05348 0.68822,5.25671 1.24424,9.34053 2.42969,17.84526 5.01418,43.16724 5.24347,51.37376 0.12644,4.5253 0.33433,10.07733 0.46198,12.33784 l 0.2321,4.11001 -1.14209,-0.59566 c -1.42579,-0.74363 -3.47009,-0.73885 -5.55703,0.013 -0.88298,0.31811 -1.64606,0.58109 -1.69573,0.58442 -0.0497,0.003 0.0406,-0.58094 0.20068,-1.29837 z"
     id="path1179" />
</svg>
